<svg viewBox="0 0 600 38" version="1.1" xmlns="http://www.w3.org/2000/svg" xmlns:xlink="http://www.w3.org/1999/xlink">
    <path d="M0,36.8623395 C0,37.9713197 0.68844527,38.2875955 1.51966613,37.5840137 L18.4803339,23.2277598 C19.3196223,22.5173492 20.6884453,22.5241779 21.5196661,23.2277598 L38.4803339,37.5840137 C39.3196223,38.2944243 40.6884453,38.2875955 41.5196661,37.5840137 L58.4803339,23.2277598 C59.3196223,22.5173492 60.6884453,22.5241779 61.5196661,23.2277598 L78.4803339,37.5840137 C79.3196223,38.2944243 80.6884453,38.2875955 81.5196661,37.5840137 L98.4803339,23.2277598 C99.3196223,22.5173492 100.688445,22.5241779 101.519666,23.2277598 L118.480334,37.5840137 C119.319622,38.2944243 120.688445,38.2875955 121.519666,37.5840137 L138.480334,23.2277598 C139.319622,22.5173492 140.688445,22.5241779 141.519666,23.2277598 L158.480334,37.5840137 C159.319622,38.2944243 160.688445,38.2875955 161.519666,37.5840137 L178.480334,23.2277598 C179.319622,22.5173492 180.688445,22.5241779 181.519666,23.2277598 L198.480334,37.5840137 C199.319622,38.2944243 200.688445,38.2875955 201.519666,37.5840137 L218.480334,23.2277598 C219.319622,22.5173492 220.688445,22.5241779 221.519666,23.2277598 L238.480334,37.5840137 C239.319622,38.2944243 240.688445,38.2875955 241.519666,37.5840137 L258.480334,23.2277598 C259.319622,22.5173492 260.688445,22.5241779 261.519666,23.2277598 L278.480334,37.5840137 C279.319622,38.2944243 280.688445,38.2875955 281.519666,37.5840137 L298.480334,23.2277598 C299.319622,22.5173492 300.688445,22.5241779 301.519666,23.2277598 L318.480334,37.5840137 C319.319622,38.2944243 320.688445,38.2875955 321.519666,37.5840137 L338.480334,23.2277598 C339.319622,22.5173492 340.688445,22.5241779 341.519666,23.2277598 L358.480334,37.5840137 C359.319622,38.2944243 360.688445,38.2875955 361.519666,37.5840137 L378.480334,23.2277598 C379.319622,22.5173492 380.688445,22.5241779 381.519666,23.2277598 L398.480334,37.5840137 C399.319622,38.2944243 400.688445,38.2875955 401.519666,37.5840137 L418.480334,23.2277598 C419.319622,22.5173492 420.688445,22.5241779 421.519666,23.2277598 L438.480334,37.5840137 C439.319622,38.2944243 440.688445,38.2875955 441.519666,37.5840137 L458.480334,23.2277598 C459.319622,22.5173492 460.688445,22.5241779 461.519666,23.2277598 L478.480334,37.5840137 C479.319622,38.2944243 480.688445,38.2875955 481.519666,37.5840137 L498.480334,23.2277598 C499.319622,22.5173492 500.688445,22.5241779 501.519666,23.2277598 L518.480334,37.5840137 C519.319622,38.2944243 520.688445,38.2875955 521.519666,37.5840137 L538.480334,23.2277598 C539.319622,22.5173492 540.688445,22.5241779 541.519666,23.2277598 L558.480334,37.5840137 C559.319622,38.2944243 560.688445,38.2875955 561.519666,37.5840137 L578.480334,23.2277598 C579.319622,22.5173492 580.688445,22.5241779 581.519666,23.2277598 L598.480334,37.5840137 C599.319622,38.2944243 600,37.9667168 600,36.8623395 L600,-5.68434189e-14 L0,-5.68434189e-14 L0,36.8623395 L0,36.8623395 Z" fill="#FFFFFF"></path>
</svg>