<svg viewBox="0 0 380 139" version="1.1" xmlns="http://www.w3.org/2000/svg" xmlns:xlink="http://www.w3.org/1999/xlink">
    <g fill="#FFFFFF">
        <circle stroke-opacity="0.426970109" stroke="#E9E8F8" stroke-width="3" cx="162" cy="71" r="15"></circle>
        <circle stroke-opacity="0.426970109" stroke="#E9E8F8" stroke-width="3" opacity="0.5" cx="285" cy="52" r="37"></circle>
        <circle stroke-opacity="0.426970109" stroke="#E9E8F8" stroke-width="3" opacity="0.5" cx="243" cy="71" r="37"></circle>
        <circle stroke-opacity="0.426970109" stroke="#E9E8F8" stroke-width="3" opacity="0.6" cx="177" cy="56" r="17"></circle>
        <circle stroke-opacity="0.426970109" stroke="#E9E8F8" stroke-width="3" opacity="0.6" cx="214.5" cy="53.5" r="26.5"></circle>
        <circle stroke-opacity="0.426970109" stroke="#E9E8F8" stroke-width="3" opacity="0.8" cx="96.5" cy="85.5" r="35.5"></circle>
        <circle stroke-opacity="0.426970109" stroke="#E9E8F8" stroke-width="3" cx="119.5" cy="85.5" r="35.5"></circle>
        <circle stroke-opacity="0.426970109" stroke="#E9E8F8" stroke-width="3" cx="362" cy="59" r="17"></circle>
        <circle stroke-opacity="0.426970109" stroke="#E9E8F8" stroke-width="3" opacity="0.5" cx="91" cy="41" r="7"></circle>
        <circle stroke-opacity="0.426970109" stroke="#E9E8F8" stroke-width="3" opacity="0.5" cx="68" cy="22" r="7"></circle>
        <circle stroke-opacity="0.426970109" stroke="#E9E8F8" stroke-width="3" opacity="0.8" cx="220.5" cy="65.5" r="14.5"></circle>
        <path d="M200,92 C209.388841,92 217,84.3888407 217,75 C217,65.6111593 209.388841,58 200,58 C190.611159,58 183,65.6111593 183,75 C183,84.3888407 190.611159,92 200,92 Z M42.5,102 C65.4198171,102 84,83.4198171 84,60.5 C84,37.5801829 65.4198171,19 42.5,19 C19.5801829,19 1,37.5801829 1,60.5 C1,83.4198171 19.5801829,102 42.5,102 Z M299,85 C311.702549,85 322,74.7025492 322,62 C322,49.2974508 311.702549,39 299,39 C286.297451,39 276,49.2974508 276,62 C276,74.7025492 286.297451,85 299,85 Z" stroke-opacity="0.426970109" stroke="#E9E8F8" stroke-width="3"></path>
        <circle stroke-opacity="0.426970109" stroke="#E9E8F8" stroke-width="3" opacity="0.5" cx="34" cy="34" r="34"></circle>
        <circle stroke-opacity="0.426970109" stroke="#E9E8F8" stroke-width="3" cx="255" cy="85" r="37"></circle>
        <circle stroke-opacity="0.426970109" stroke="#E9E8F8" stroke-width="3" cx="322.5" cy="48.5" r="26.5"></circle>
        <path d="M0,56 C0,56 126.666667,70.25 190,70.25 C253.333333,70.25 380,56 380,56 L380,137.009847 C380,138.108978 379.102937,139 378.001029,139 L1.99897138,139 C0.894969971,139 0,138.096159 0,137.009847 L0,56 Z"></path>
    </g>
</svg>