<?xml version="1.0" encoding="utf-8"?>
<!-- Generator: Adobe Illustrator 16.0.0, SVG Export Plug-In . SVG Version: 6.00 Build 0)  -->
<!DOCTYPE svg PUBLIC "-//W3C//DTD SVG 1.1//EN" "http://www.w3.org/Graphics/SVG/1.1/DTD/svg11.dtd">
<svg version="1.1" id="Layer_1" xmlns="http://www.w3.org/2000/svg" xmlns:xlink="http://www.w3.org/1999/xlink" x="0px" y="0px"
	 width="736px" height="93px" viewBox="0 0 736 93" enable-background="new 0 0 736 93" xml:space="preserve">
<g>
	<g>
		<path d="M27.951,35.85c0.349-0.199,0.637-0.499,0.862-0.899s0.4-0.8,0.525-1.2c0.125-0.399,0.212-0.774,0.263-1.125
			c0.049-0.35,0.075-0.601,0.075-0.75c0-1.351-1.326-3.35-3.975-6c-2.651-2.649-4.2-3.976-4.65-3.976c-0.251,0-0.3,0.289-0.15,0.863
			c0.15,0.575,0.225,1.287,0.225,2.137c0,2.001-0.675,4.65-2.025,7.95c-1.4,3.401-2.85,6.326-4.35,8.775
			c-1.601,2.501-2.726,3.825-3.375,3.975c-0.65,0.051-0.975,0.675-0.975,1.875c0,1.05,0.35,2.55,1.05,4.5c0.75,1.8,1.6,2.7,2.55,2.7
			c0.949,0,2-0.725,3.15-2.175c0.15,5.1-0.025,9.125-0.525,12.074c-0.25,1.602,0.375,3.477,1.875,5.625
			c1.6,2.2,2.775,3.301,3.525,3.301c0.45,0,0.799-0.301,1.05-0.9c0.1-0.3,0.199-1.013,0.3-2.138c0.1-1.125,0.175-2.662,0.225-4.612
			c0.15-3.9,0.225-7.75,0.225-11.55c0-3.85-0.101-5.775-0.3-5.775c-0.2,0-0.476,0.851-0.825,2.55
			c-0.201-0.549-0.413-1.125-0.638-1.725s-0.487-1.249-0.788-1.95c0-0.6,0.949-2.574,2.85-5.925
			C25.975,38.175,27.25,36.3,27.951,35.85z M57.801,52.574c-0.65,0-1.35,0.063-2.1,0.188c-0.75,0.126-1.851,0.188-3.3,0.188
			c-0.701,0-1.275-0.012-1.725-0.037c-0.45-0.024-0.801-0.062-1.05-0.112c0-2.3-0.3-4.125-0.9-5.476
			c0.399-0.75,1.174-1.225,2.325-1.425c0.15-0.049,1.425-0.949,3.825-2.699c2.5-1.801,3.775-2.8,3.825-3
			c0.349-0.649,1-1.075,1.95-1.275c1-0.25,1.65-0.799,1.95-1.65c0.3-0.899,0.45-1.649,0.45-2.25c0-1.449-1.176-2.925-3.525-4.425
			c-2.351-1.5-4.175-2.25-5.475-2.25c-0.6,0-1.101,0.126-1.5,0.375c-0.851,0.551-1.913,1.113-3.188,1.688
			c-1.275,0.575-2.764,1.188-4.463,1.838c0.199-1.899,0.6-3.226,1.2-3.976c0.6-0.648,0.9-2.124,0.9-4.425
			c0-1.099-0.35-2.062-1.05-2.888c-0.701-0.824-2.1-1.736-4.2-2.737c-2.051-1.05-3.45-1.575-4.2-1.575
			c-0.6,0-1.163,0.102-1.688,0.301c-0.525,0.2-0.975,0.449-1.35,0.75c-0.375,0.3-0.664,0.588-0.863,0.862
			c-0.2,0.275-0.3,0.487-0.3,0.638c0,0.101,0.087,0.149,0.263,0.149c0.174,0,0.537-0.175,1.087-0.524
			c0.549-0.4,1.075-0.601,1.575-0.601c0.949,0,1.75,0.626,2.4,1.875c0.649,1.151,0.975,2.075,0.975,2.775
			c0,0.65-0.275,1.751-0.825,3.3c-0.551,1.551-1.2,3.326-1.95,5.325c-1.1,2.9-1.95,4.9-2.55,6c-0.6,1.101-1.101,1.725-1.5,1.875
			c-0.951,0.45-1.425,1.376-1.425,2.774c0,1.4,0.424,2.876,1.275,4.425c0.9,1.551,1.674,2.325,2.325,2.325
			c0.7,0,1.975-0.925,3.825-2.774c0.85,0.95,1.549,1.762,2.1,2.438c0.549,0.675,0.924,1.213,1.125,1.612
			c0.45,0.8,0.625,2.075,0.525,3.825c-2.501,1.15-4.663,2.188-6.488,3.112c-1.826,0.926-3.363,1.737-4.612,2.438
			c-0.551-1.55-1.325-2.325-2.325-2.325c-1,0-1.725,0.801-2.175,2.4c-0.401,1.7-0.6,3.149-0.6,4.35c0,1.25,0.525,2.625,1.575,4.125
			c1.149,1.449,1.999,2.175,2.55,2.175c0.649,0,1.05-0.251,1.2-0.75c0.649-2.199,1.575-4.05,2.775-5.55c3.3,3,6.024,6,8.175,9
			c0.949,1.399,1.812,2.1,2.588,2.1c0.774,0,1.712-1.025,2.812-3.074c1.149-2.051,1.725-6.025,1.725-11.926
			c0-0.949-0.013-1.975-0.037-3.074c-0.026-1.1-0.063-2.3-0.113-3.601c2.5,0.251,4.099,0.501,4.8,0.75
			c0.75,0.251,1.624,0.976,2.625,2.175c1,1.151,1.5,1.826,1.5,2.025c0,0.45-0.338,0.825-1.013,1.125s-1.563,0.45-2.663,0.45
			c-1.1,0-1.65,0.163-1.65,0.487c0,0.326,0.3,0.663,0.9,1.013c3.949,2.3,6.15,3.8,6.6,4.5s0.925,1.05,1.425,1.05
			c0.85,0,1.65-0.638,2.4-1.912c0.75-1.275,1.125-2.963,1.125-5.062c0-2.101-0.713-3.863-2.138-5.288S60.201,52.574,57.801,52.574z
			 M42.875,64.199c-0.101,0.45-0.401,0.676-0.9,0.676c-0.9,0-1.976-0.237-3.225-0.713c-1.25-0.475-2.25-0.962-3-1.463
			c1.2-1.949,3.574-3.899,7.125-5.85c0.15,1.05,0.225,2.426,0.225,4.125C43.101,62.675,43.025,63.75,42.875,64.199z M45.65,44.1
			c-0.75,0-1.601-0.399-2.55-1.2C44.4,41,46,39.5,47.9,38.399c2-1.199,3.274-1.8,3.825-1.8c0.15,0,0.225,0.075,0.225,0.226
			c0,0.3-0.576,1.325-1.725,3.074C49.125,41.55,47.601,42.95,45.65,44.1z M125.076,42.825c-0.401-0.649-0.851-1.287-1.35-1.913
			c-0.5-0.624-1.05-1.237-1.65-1.837c1.849-2.25,3.312-4.263,4.387-6.038c1.075-1.774,1.613-3.412,1.613-4.912
			c0-2.149-0.951-4.1-2.85-5.851c-1.901-1.749-3.926-2.625-6.075-2.625c-1.05,0-2.038,0.251-2.962,0.75
			c-0.926,0.501-2.062,1.551-3.413,3.15c-0.65,0.801-1.275,1.639-1.875,2.513c-0.6,0.875-1.175,1.812-1.725,2.812
			c-1.05,1.95-1.575,3.075-1.575,3.375c0,0.101,0.062,0.149,0.188,0.149c0.124,0,0.462-0.324,1.013-0.975
			c0.499-0.649,1.249-0.975,2.25-0.975l1.65,0.074c1.6,0,2.95-0.624,4.05-1.875c0.55-0.648,1.099-1.225,1.65-1.725
			c0.55-0.499,1.075-0.949,1.575-1.35c1-0.85,1.6-1.275,1.8-1.275c0.3,0,0.45,0.251,0.45,0.75c0,1.5-0.525,3.4-1.575,5.7
			c-1.05,2.3-2.426,3.926-4.125,4.875c-0.65,0.4-1.188,1.05-1.612,1.95c-0.425,0.899-0.638,2.15-0.638,3.75
			c0,1.55,0.162,2.688,0.488,3.412c0.325,0.726,0.938,1.138,1.837,1.237c-2.201,1.25-4.425,2.713-6.675,4.388
			c-2.25,1.676-4.575,3.612-6.975,5.812c-0.9-2.449-1.35-4.675-1.35-6.675c0-3.05,1.3-7.95,3.9-14.7c0.9-2.35,1.35-4.6,1.35-6.75
			c0-2.149-0.975-4.399-2.925-6.75c-1.95-2.35-4.001-3.525-6.15-3.525c-1.15,0-1.95,0.45-2.4,1.351
			c-0.45,0.851-0.675,1.425-0.675,1.725s0.075,0.45,0.225,0.45c0.15,0,0.424-0.35,0.825-1.05c0.4-0.7,0.949-1.05,1.65-1.05
			c0.85,0.149,1.613,0.575,2.288,1.274c0.675,0.701,0.938,1.65,0.788,2.851c0,2.5-0.675,6.3-2.025,11.399
			c-0.8-2.449-1.301-3.675-1.5-3.675c-0.101,0-0.075,0.45,0.075,1.35c0.15,0.9,0.475,2.325,0.975,4.275
			c-0.5,2.25-0.963,4.688-1.387,7.312c-0.426,2.625-0.838,5.438-1.238,8.438c-0.75-1-1.325-2.074-1.725-3.226
			c0.1-2.35,0.75-4.499,1.95-6.449c0.349-0.601,0.525-1,0.525-1.2c0-0.199-0.101-0.3-0.3-0.3c-0.6,0-1.976,0.626-4.125,1.875
			c-0.15-1.699-0.9-4.175-2.25-7.425c-0.15-0.35-0.3-0.8-0.45-1.351c-0.15-0.55-0.275-1.112-0.375-1.688
			c-0.101-0.574-0.188-1.137-0.262-1.688c-0.075-0.55-0.113-1.024-0.113-1.425c0-0.85-0.2-1.275-0.6-1.275
			c-0.6,0-1.525,1.426-2.775,4.275c-1.2,2.85-1.8,5.576-1.8,8.175c0,2.601,0.675,5.351,2.025,8.25
			c-3.251,3.551-4.875,6.9-4.875,10.05c0,1.2,0.199,2.238,0.6,3.112c0.399,0.876,0.949,1.463,1.65,1.763
			c0.649,0.2,1.5,0.825,2.55,1.875c0.5,0.501,1.287,1.363,2.363,2.588c1.075,1.225,2.412,2.812,4.012,4.763
			c0.649,0.799,1.3,1.199,1.95,1.199c0.949,0,1.913-0.975,2.888-2.925c0.975-1.95,1.787-4.675,2.438-8.175
			c1.549,0.3,3.124,0.525,4.725,0.675c1.699,2.651,3.075,4.726,4.125,6.226c1.05,1.5,2,2.637,2.85,3.412
			c0.85,0.774,1.699,1.287,2.55,1.537c0.85,0.25,1.899,0.425,3.15,0.525c5.1,0,8.475-1.551,10.125-4.65
			c1.65-3.049,2.475-8.1,2.475-15.149c2.1,0.149,3.737-0.162,4.912-0.938c1.174-0.774,1.763-1.938,1.763-3.487
			c0-1.5-0.875-3.274-2.625-5.325C130.975,43.95,128.425,42.875,125.076,42.825z M93.5,62.362c-0.2,0.675-0.487,1.15-0.862,1.425
			c-0.375,0.275-0.863,0.388-1.462,0.338c-0.6-0.05-1.4-0.226-2.4-0.525c-1.2-0.399-1.8-1.312-1.8-2.737S87.65,57.225,89,54.225
			c0.7,0.9,1.474,1.788,2.325,2.662c0.85,0.876,1.75,1.738,2.7,2.588C93.875,60.725,93.7,61.688,93.5,62.362z M116.15,53.399
			c0.049-0.149,0.225-0.362,0.525-0.638c0.3-0.273,0.799-0.637,1.5-1.087c1.399-1,2.574-1.5,3.525-1.5
			c0.199,0,0.413,0.013,0.637,0.037c0.225,0.026,0.462,0.063,0.713,0.112c0.15,0.501,0.225,0.926,0.225,1.275
			c0,0.351-0.25,0.65-0.75,0.9c-0.25,0.101-0.625,0.225-1.125,0.375c-0.5,0.149-1.125,0.3-1.875,0.449
			c-0.701,0.102-1.288,0.188-1.762,0.263c-0.476,0.075-0.813,0.112-1.013,0.112c-0.2,0-0.363-0.012-0.487-0.037
			C116.138,53.638,116.1,53.55,116.15,53.399z M121.663,65.774c-1.676,2.351-3.963,3.525-6.862,3.525
			c-1.65,0-3.576-0.626-5.775-1.875c-2.201-1.249-3.725-2.675-4.575-4.275c0-0.799-0.15-1.774-0.45-2.925
			c0.649-1,1.262-1.774,1.837-2.325c0.574-0.55,1.287-0.85,2.138-0.899c0.799-0.05,1.6-0.25,2.4-0.601
			c0.799-0.3,2.224-0.975,4.275-2.024c3.3,0,6.45,0.375,9.45,1.125C124.15,60,123.338,63.425,121.663,65.774z M149.638,60.037
			c-0.476,0.025-1.013,0.251-1.613,0.675c-0.6,0.426-1.2,1.088-1.8,1.987c-1.2,1.751-1.8,3.126-1.8,4.125
			c0,0.551,0.15,0.988,0.45,1.312c0.3,0.326,0.649,0.488,1.05,0.488c1,0,2.149-0.8,3.45-2.4c1.25-1.549,1.875-2.949,1.875-4.2
			c0-0.649-0.15-1.149-0.45-1.5C150.5,60.176,150.113,60.013,149.638,60.037z M209.675,24.524c1.05,0.351,2.899,1.526,5.55,3.525
			c0.949,0.701,1.825,1.138,2.625,1.312c0.799,0.176,1.462,0.163,1.987-0.037c0.525-0.199,0.938-0.537,1.238-1.013
			c0.3-0.475,0.45-1.013,0.45-1.612c0-0.85-0.45-1.925-1.35-3.226c-0.8-1.249-1.976-1.875-3.525-1.875
			c-0.65,0-1.875,0.251-3.675,0.75c-0.951,0.251-1.701,0.463-2.25,0.638c-0.551,0.176-0.926,0.312-1.125,0.412
			c-0.351,0.15-0.525,0.338-0.525,0.562C209.075,24.188,209.274,24.375,209.675,24.524z M227.075,75.262
			c-0.251-1.025-0.45-1.963-0.6-2.812c-0.101-0.851-0.275-2.225-0.525-4.125c-0.251-1.899-0.551-4.299-0.9-7.199
			c-0.101-0.649-0.275-0.976-0.525-0.976c-0.25,0-0.401,0.3-0.45,0.9c-0.9,5.95-1.601,8.925-2.1,8.925
			c-0.3,0-1.476-1.549-3.525-4.65c-2-3.199-3.701-6.499-5.1-9.899c1.099-1.699,2.274-3.175,3.525-4.425
			c0.399-0.4,0.6-0.85,0.6-1.351c0-0.149-0.026-0.375-0.075-0.675c-0.05-0.3-0.112-0.638-0.188-1.013
			c-0.075-0.375-0.15-0.737-0.225-1.087c-0.075-0.35-0.163-0.649-0.262-0.9c-0.15-0.45-1.076-1.2-2.775-2.25
			c-1.751-1.05-2.775-1.575-3.075-1.575c-0.251,0-0.375,0.113-0.375,0.338s0.15,0.889,0.45,1.987c0.3,1.05,0.45,1.838,0.45,2.362
			c0,0.525-0.3,1.113-0.9,1.763c-0.45-1.149-0.926-2.562-1.425-4.237c-0.5-1.675-1.025-3.611-1.575-5.812
			c2.899-0.649,4.35-1.75,4.35-3.3c0-0.8-0.525-1.524-1.575-2.175c-1.05-0.649-2.576-1.1-4.575-1.351
			c-0.551-2.55-1.039-4.862-1.463-6.938c-0.425-2.074-0.763-3.911-1.012-5.513c-0.551-3.349-2.126-5.199-4.725-5.55
			c-1.151-0.199-2-0.45-2.55-0.75c-0.551-0.3-1.05-0.85-1.5-1.649c-0.351-0.8-0.701-1.2-1.05-1.2c-0.551,0-0.5,1.25,0.15,3.75
			c0.4,1.301,0.975,2.2,1.725,2.7c0.199,0.101,0.562,0.675,1.087,1.725c0.525,1.05,1.088,2.301,1.688,3.75
			c-1.451-0.699-2.625-1.212-3.525-1.537S192.899,20,192.35,19.95c-0.551-0.05-0.926,0.013-1.125,0.188
			c-0.201,0.176-0.3,0.412-0.3,0.712c0,0.2,0.062,0.45,0.188,0.75c0.125,0.3,0.188,0.675,0.188,1.125s-0.9,1.425-2.7,2.925
			l-14.1,11.775c-1.7,1.5-2.988,2.925-3.862,4.275c-0.875,1.35-1.451,2.587-1.725,3.712c-0.275,1.125-0.337,2.1-0.188,2.925
			s0.375,1.438,0.675,1.838c0.55,0.65,1.849,1.7,3.9,3.149c2.149,1.451,4.225,2.176,6.225,2.176c2.05,0,4.225-1.375,6.525-4.125
			c-0.05,0.4-0.063,0.95-0.037,1.649c0.024,0.701,0.062,1.551,0.112,2.55c-4.851,2.601-7.55,4.001-8.1,4.2
			c-0.75,0.251-1.425,0.375-2.025,0.375c-0.701,0-1.05,0.476-1.05,1.425c0,0.951,0.424,1.875,1.275,2.775
			c0.85,0.9,1.899,1.301,3.15,1.2c1.099,0.551,1.999,1.175,2.7,1.875c5.449,5.25,8.55,7.875,9.3,7.875
			c0.45,0,0.675-0.375,0.675-1.125l-0.675-6.075c-0.101-1.1-0.176-2.387-0.225-3.862c-0.05-1.475-0.101-3.162-0.15-5.062
			c5.7-3.25,10.699-7.149,15-11.7c0.499,1.751,1.075,3.326,1.725,4.725c-3.05,4.351-6.626,6.9-10.725,7.65
			c-0.701,0.101-1.05,0.338-1.05,0.713s0.649,0.738,1.95,1.087c1.2,0.351,2.5,0.525,3.9,0.525c3.6,0,6.5-1.125,8.7-3.375
			c2.25,5.1,4.437,9.2,6.562,12.3c2.125,3.1,4.187,5.475,6.188,7.125c1.999,1.699,3.325,2.55,3.975,2.55
			c0.649,0,0.975-0.237,0.975-0.712c0-0.477-0.075-0.988-0.225-1.538C227.625,77.374,227.325,76.286,227.075,75.262z M186.2,65.475
			c-0.251,0-0.75-0.1-1.5-0.3c-0.75-0.199-1.4-0.525-1.95-0.976c0.349-0.199,0.825-0.499,1.425-0.899c0.6-0.399,1.35-0.9,2.25-1.5
			c0.15,1.15,0.225,2.051,0.225,2.7C186.65,65.15,186.5,65.475,186.2,65.475z M188.9,35.399c-1.75,0-2.875,0.051-3.375,0.15
			c-0.35,0.051-0.525,0.225-0.525,0.525c0,0.551,0.574,1.1,1.725,1.649c0.549,0.3,0.825,0.65,0.825,1.05
			c0,0.401-0.075,0.926-0.225,1.575c-2.25,1.251-4.476,2.513-6.675,3.788c-2.201,1.274-4.425,2.612-6.675,4.012
			c-0.251,0.251-0.6,0.388-1.05,0.413c-0.45,0.025-0.888-0.075-1.312-0.301c-0.425-0.225-0.8-0.574-1.125-1.05
			C170.162,46.737,170,46.15,170,45.45c0-1.801,1.3-3.625,3.9-5.476c2.65-1.899,5.25-3.225,7.8-3.975
			c1.249-0.35,2.524-0.788,3.825-1.312c1.3-0.525,2.513-1.062,3.638-1.612c1.125-0.55,2.162-1.112,3.112-1.688
			c0.949-0.574,1.725-1.088,2.325-1.538c0.45-0.349,1.275-0.662,2.475-0.938c1.2-0.274,2.274-0.412,3.225-0.412
			c0.15,0.4,0.325,0.95,0.525,1.649c0.199,0.701,0.424,1.551,0.675,2.551c-1.05,0.25-1.901,0.463-2.55,0.637
			c-0.65,0.176-1.151,0.351-1.5,0.525c-0.351,0.176-0.588,0.351-0.713,0.525c-0.125,0.176-0.188,0.412-0.188,0.712
			c0,0.45-0.05,0.776-0.15,0.976c-0.05,0.101-0.313,0.237-0.788,0.412c-0.476,0.176-1.288,0.388-2.438,0.638
			C192.174,35.976,190.749,35.399,188.9,35.399z M191.375,52.875c0-2.65,0.475-4.85,1.425-6.601c1.25-1.099,2.337-2.036,3.263-2.812
			c0.925-0.774,1.737-1.412,2.438-1.912c1.35-1,2.95-1.824,4.8-2.475c0.55,2.051,1.15,3.975,1.8,5.774
			C203.6,46.25,199.025,48.926,191.375,52.875z M288.275,38.7c-2.951-2.05-5.651-3.075-8.1-3.075c-0.8,0-1.826,0.125-3.075,0.375
			c0.25-0.35,0.574-0.976,0.975-1.875c0.399-0.9,0.874-2.074,1.425-3.525c1.099-2.949,1.65-5.224,1.65-6.825
			c0-1.6-0.675-3.199-2.025-4.8c-1.35-1.649-2.825-2.475-4.425-2.475c-0.801,0-1.451,0.163-1.95,0.487
			c-0.5,0.326-0.75,0.889-0.75,1.688c0,0.801-0.6,2.726-1.8,5.775c-0.6,1.55-1.588,3.487-2.963,5.812
			c-1.375,2.324-3.188,5.062-5.438,8.212c-1.301-1.35-2.9-2.024-4.8-2.024c-0.6,0-1.138,0.062-1.612,0.188
			c-0.476,0.125-0.963,0.363-1.463,0.712c-0.5,0.351-1.012,0.801-1.537,1.351c-0.525,0.551-1.138,1.25-1.838,2.1
			c-0.701,0.851-1.438,1.838-2.212,2.963c-0.776,1.125-1.588,2.412-2.438,3.862c-0.45-2.449-1.5-5.449-3.15-9
			c-0.05-0.15-0.088-0.362-0.112-0.638c-0.026-0.274,0.037-0.55,0.188-0.825c0.15-0.274,0.399-0.524,0.75-0.75
			c0.349-0.225,0.85-0.337,1.5-0.337l2.7,0.149c2.8,0,4.774-0.574,5.925-1.725c1.149-1.149,2.374-1.95,3.675-2.4
			c0.85-0.3,1.275-1.024,1.275-2.175c0-1.699-0.575-3.199-1.725-4.5c-1.15-1.3-2.576-2.274-4.275-2.925
			c-1.65-0.649-2.812-0.976-3.487-0.976c-0.675,0-1.013,0.226-1.013,0.676c0,0.95,0.625,2.351,1.875,4.199
			c0.15,0.251,0.225,0.501,0.225,0.75c0,1.101-0.726,2.451-2.175,4.051c-1.451,1.601-3.101,2.801-4.95,3.6
			c-0.401,0.15-0.788,0.438-1.163,0.862c-0.375,0.426-0.712,0.876-1.012,1.351c-0.3,0.476-0.538,0.975-0.713,1.5
			c-0.176,0.524-0.262,0.963-0.262,1.312l0.15,3.899l-0.3,7.35c0,1.301,0.112,2.613,0.337,3.938
			c0.225,1.326,0.549,2.613,0.975,3.863c0.424,1.25,0.912,2.438,1.462,3.562c0.549,1.125,1.174,2.088,1.875,2.887
			c1.35,1.65,2.475,2.476,3.375,2.476s1.35-0.925,1.35-2.775c0-0.45-0.051-1.137-0.15-2.062c-0.101-0.925-0.15-1.987-0.15-3.188
			c0-4.449,1.125-8.524,3.375-12.225c2.35-3.699,3.75-5.55,4.2-5.55c0.349,0,0.7,0.775,1.05,2.325c-4.2,5.351-6.575,8.6-7.125,9.749
			c-0.551,1.251-0.825,2.876-0.825,4.875c0,2.001,0.75,4.426,2.25,7.275c1.6,2.8,3.274,4.2,5.025,4.2
			c0.75,0,1.412-0.139,1.987-0.413c0.574-0.275,1.112-0.8,1.613-1.574c0.499-0.775,0.962-1.862,1.387-3.263
			c0.424-1.399,0.837-3.25,1.238-5.55l1.5-9c0.499-2.8,0.75-4.399,0.75-4.801c0-1.249-0.525-2.898-1.575-4.949
			c6.3-9.601,9.55-16.225,9.75-19.875c0.049-0.55,0.212-0.888,0.487-1.013c0.274-0.124,0.55-0.049,0.825,0.225
			c0.274,0.275,0.499,0.701,0.675,1.275c0.175,0.575,0.237,1.264,0.188,2.062c0,1.001-0.3,2.4-0.9,4.2s-1.451,3.825-2.55,6.075
			c-0.551,1.1-1.013,2-1.388,2.699c-0.375,0.701-0.688,1.176-0.938,1.426c-0.45,0.551-1.076,0.926-1.875,1.125
			c-0.75,0.2-1.226,0.663-1.425,1.387c-0.201,0.726-0.3,1.913-0.3,3.562c0,1.451,0.125,2.501,0.375,3.15
			c0.25,0.65,0.612,1.025,1.088,1.125c0.475,0.101,1.062-0.062,1.762-0.487c0.7-0.425,1.5-1.013,2.4-1.763
			c1.85-1.5,3.799-2.674,5.85-3.525c2.05-0.85,3.75-1.274,5.1-1.274c0.949,0,1.699,0.388,2.25,1.162
			c0.55,0.776,0.825,1.963,0.825,3.562c0,1.7-0.401,4.226-1.2,7.575c-0.8,3.45-1.663,6.176-2.587,8.175
			c-0.926,2-1.638,3.2-2.138,3.6c-0.45,0.351-1.063,0.525-1.837,0.525c-0.776,0-1.913-0.274-3.413-0.825
			c-1.451-0.499-2.925-1.524-4.425-3.075c-1.451-1.6-2.276-3.225-2.475-4.875c0.3-0.1,0.625-0.149,0.975-0.149
			c1.2,0,2.35,0.4,3.45,1.2c0.35,0.25,0.837,0.4,1.463,0.449c0.625,0.051,1.249-0.049,1.875-0.3
			c0.625-0.249,1.162-0.687,1.612-1.312c0.45-0.624,0.675-1.487,0.675-2.587c0-1.399-0.625-2.712-1.875-3.938
			c-1.25-1.225-2.925-1.838-5.025-1.838c-3.5,0-5.25,2.351-5.25,7.05c0,3.2,0.662,6.2,1.988,9c1.324,2.801,3.188,5.175,5.587,7.125
			s4.174,2.925,5.325,2.925c1.2,0,3.025-1.226,5.475-3.675c2.4-2.351,4.474-8.175,6.225-17.475c0.55-3.199,1.075-5.35,1.575-6.45
			c0.549-1.2,0.825-2.1,0.825-2.7C292.775,42.65,291.275,40.751,288.275,38.7z M258.087,53.362C257.912,54.588,257.7,55.8,257.45,57
			c-0.551,2.351-1.176,3.524-1.875,3.524c-0.351,0-0.613-0.225-0.788-0.675c-0.176-0.45-0.263-1-0.263-1.65
			c0-1.649,1.324-4.524,3.975-8.625C258.399,50.875,258.262,52.138,258.087,53.362z M269.075,53.774
			c0.75-0.049,1.211,0.026,1.387,0.226c0.175,0.2,0.15,0.449-0.075,0.75c-0.225,0.3-0.588,0.588-1.088,0.862
			c-0.5,0.275-1,0.463-1.5,0.562C268.1,54.575,268.524,53.774,269.075,53.774z M353,52.35c-2.55-1.5-4.676-2.25-6.375-2.25
			c-0.8,0-1.376,0.225-1.725,0.675c-0.35,0.401-1.526,0.726-3.525,0.976c-1.95,0.149-6.15,1.5-12.6,4.05
			c-0.101-0.399-0.225-0.762-0.375-1.088c-0.15-0.324-0.3-0.638-0.45-0.938c0.85-0.699,1.837-1.624,2.962-2.774
			s2.412-2.5,3.862-4.051c0.55,0.051,1.05,0.088,1.5,0.113c0.45,0.025,0.875,0.037,1.275,0.037c2.95,0,4.425-0.85,4.425-2.55
			c0-1.3-0.6-2.6-1.8-3.9c2.85-3.499,4.95-5.974,6.3-7.425c0.7-0.75,1.45-1.5,2.25-2.25c0.799-0.75,1.674-1.524,2.625-2.325
			c0.799-0.648,1.2-1.5,1.2-2.55c0-1.449-0.8-2.824-2.4-4.125c-1.601-1.3-3.125-1.95-4.575-1.95c-0.3,0-0.6,0.038-0.9,0.113
			c-0.3,0.074-0.95,0.463-1.95,1.162c-0.05-0.45-0.188-0.949-0.413-1.5c-0.225-0.55-0.487-1.088-0.788-1.612
			c-0.3-0.525-0.625-1.024-0.975-1.5c-0.35-0.475-0.701-0.862-1.05-1.163c-0.65-0.499-1.725-1.023-3.225-1.574
			c-1.1-0.45-1.875-0.713-2.325-0.788c-0.45-0.075-0.738,0-0.863,0.226c-0.125,0.225-0.15,0.562-0.075,1.012
			c0.075,0.45,0.112,0.926,0.112,1.426c0.15,1.15-0.6,2.875-2.25,5.175c-1.65,2.351-3.45,4.15-5.4,5.399
			c-1.901,1.251-3.251,2.563-4.05,3.938c-0.8,1.376-1.2,2.513-1.2,3.413c-0.101,0.65,0.062,1.25,0.487,1.8
			c0.424,0.551,0.949,0.963,1.575,1.237c0.625,0.275,1.287,0.351,1.987,0.226c0.7-0.125,1.324-0.537,1.875-1.238
			c0.649-0.799,1.512-1.661,2.587-2.587c1.075-0.925,2.312-1.85,3.713-2.775c1.399-0.925,2.937-1.812,4.612-2.662
			c1.675-0.85,3.413-1.624,5.212-2.325c-0.35,1.4-3.2,5.325-8.55,11.775c-3.101-0.45-5.15-0.676-6.15-0.676
			c-1.901,0-2.85,0.701-2.85,2.101c0,1.2,1.249,2.925,3.75,5.175c-1.751,2.15-3.313,4.025-4.688,5.625
			c-1.376,1.601-2.563,2.976-3.562,4.125c-1.001,1.15-2,2.238-3,3.263c-1.001,1.025-1.976,2.013-2.925,2.962l-2.925,2.851
			c-0.101,0.101-0.2,0.149-0.3,0.149c-0.45,0-0.675-0.349-0.675-1.05c0.049-0.499,0.162-1.05,0.337-1.65
			c0.175-0.6,0.162-0.824-0.037-0.675c-0.101,0-0.551,0.776-1.35,2.325c-0.401,0.75-0.763,1.425-1.087,2.025
			c-0.326,0.6-0.638,1.15-0.938,1.649c-0.551,0.95-0.825,1.5-0.825,1.65c0,0.3,0.3,0.45,0.9,0.45c1.099,0,2.524-0.375,4.275-1.125
			c1.65-0.7,5.85-3.825,12.6-9.375c0.6,5.95,1.525,10.226,2.775,12.824c1.25,2.6,2.625,3.9,4.125,3.9c0.5,0,0.949-0.2,1.35-0.6
			c1.25-1.251,4.174-1.875,8.775-1.875c1.5,0,2.712,0.049,3.638,0.149c0.925,0.1,1.688,0.175,2.288,0.226
			c0.6,0.049,1.087,0.062,1.462,0.037c0.375-0.025,0.762-0.163,1.163-0.412c0.499-0.301,0.75-0.676,0.75-1.125
			c0-0.45-0.15-0.825-0.45-1.125c-0.3-0.301-0.45-0.562-0.45-0.788c0-0.225,0.349-0.638,1.05-1.237c0.75-0.699,1.5-1.774,2.25-3.225
			c0.75-1.5,1.699-2.75,2.85-3.75c0.7-0.601,1.05-1.375,1.05-2.325C356.9,55.525,355.599,53.75,353,52.35z M347.15,60.225
			c-0.35,1.15-0.851,2.226-1.5,3.225c-0.551,0.9-1.076,1.451-1.575,1.65c-0.5,0.2-1.526,0.438-3.075,0.713
			c-1.55,0.275-3.3,0.412-5.25,0.412c-2,0-3.176-0.15-3.525-0.45c-0.401-0.349-0.851-1.112-1.35-2.287
			c-0.5-1.175-0.926-2.888-1.275-5.138c1.899,0.5,3.562,0.75,4.987,0.75c1.425,0,2.637-0.15,3.638-0.45
			c3.25-1.099,5.424-1.649,6.525-1.649c0.55,0,1.013,0.013,1.388,0.037c0.375,0.025,0.687,0.063,0.938,0.112
			c0.45,0.101,0.675,0.3,0.675,0.601C347.75,58.05,347.55,58.875,347.15,60.225z M420.425,19.05c-2.501-0.6-4.95-0.9-7.35-0.9h-3.15
			c-0.95,0-1.775,0.026-2.475,0.075c-4.001-3.649-8.276-5.475-12.825-5.475c-0.551,0-0.825,0.176-0.825,0.524
			c0,0.351,0.375,1.251,1.125,2.7c0.399,0.701,0.837,1.425,1.312,2.175c0.475,0.75,1.037,1.476,1.688,2.176
			c-5.65,2.15-10.425,4.725-14.325,7.725c-1.05-2.4-1.976-3.925-2.774-4.575c-0.801-0.649-1.151-0.624-1.05,0.075
			c0,0.3,0.049,0.726,0.149,1.275c0.1,0.551,0.15,1.175,0.15,1.875c0,2.55-1.125,5.95-3.375,10.199
			c-0.45,0.852-0.776,1.602-0.976,2.25c-0.2,0.65-0.3,1.301-0.3,1.95c0,0.65,0.087,1.339,0.263,2.062
			c0.175,0.726,0.438,1.563,0.787,2.513c0.75,1.851,1.426,2.774,2.025,2.774c0.3,0,0.55-0.174,0.75-0.524
			c0.3-0.399,1.05-2.225,2.25-5.475c0.6-1.65,1.1-3.1,1.5-4.351c0.399-1.249,0.725-2.374,0.975-3.375
			c0.25-0.999,0.438-1.899,0.562-2.7c0.125-0.799,0.213-1.574,0.263-2.324c1.399-1.3,2.925-1.95,4.575-1.95
			c0.499,0,1.074,0.088,1.725,0.263c0.649,0.176,1.375,0.312,2.176,0.412c0.799,0.101,1.649,0.088,2.55-0.037
			c0.899-0.125,1.849-0.488,2.85-1.088c3.199,2,5.425,3,6.675,3c1.2,0,2.101-0.525,2.7-1.575c0.649-1.099,1.275-2.874,1.875-5.325
			c2.449-1.249,5.074-1.875,7.875-1.875c0.85,0,1.275,0.251,1.275,0.75c0,0.501-0.575,1.301-1.726,2.4
			c-1.1,1.101-5.075,3.3-11.925,6.6c-3.45,1.602-6.176,2.851-8.175,3.75c-2,0.9-3.326,1.4-3.975,1.5
			c-1.351,0.251-2.201,1.2-2.551,2.851c-0.35,1.55-0.524,2.774-0.524,3.675c0,0.801,0.188,1.2,0.562,1.2s0.712-0.075,1.013-0.226
			c0.149-0.1,0.637-0.361,1.462-0.787c0.825-0.424,2.013-1.037,3.562-1.838c3.1-1.6,5.3-2.786,6.601-3.562
			c1.299-0.774,2.074-1.162,2.324-1.162c0.199,0,0.301,0.075,0.301,0.225c0,0.401-0.551,1.476-1.65,3.226
			c-1.05,1.851-2.201,2.801-3.45,2.85c-1.25,0.051-2.1,0.776-2.55,2.175c-0.4,1.301-0.6,2.488-0.6,3.562
			c0,1.076,0.3,2.438,0.899,4.088c-5.45,2.25-9.025,4.101-10.725,5.55c-1.65,1.451-2.476,2.951-2.476,4.5
			c0,1.551,0.625,3.351,1.875,5.4c1.3,2.1,2.551,3.799,3.75,5.1c1.2,1.3,2.149,2.199,2.851,2.7c0.75,0.55,2.325,1.524,4.725,2.925
			c2.35,1.399,3.874,2.1,4.575,2.1c0.75,0,1.975-0.7,3.675-2.1c0.9-0.65,1.712-1.525,2.438-2.625c0.725-1.101,1.337-2.45,1.838-4.05
			c0.499-1.601,0.887-3.514,1.162-5.737c0.274-2.225,0.413-4.838,0.413-7.838c1.199-0.399,2.1-0.6,2.699-0.6l1.275,0.074
			c0.799,0,1.449-0.236,1.95-0.712c0.499-0.475,0.75-1.237,0.75-2.288c0-1.05-0.726-2.299-2.175-3.75
			C415.824,50,414,49.274,411.8,49.274h-0.787c-0.275,0-0.538,0.026-0.788,0.075c-0.95-1.35-2.125-2.35-3.524-3
			c1.449-2.399,3.075-4.5,4.875-6.3c0.799-0.799,1.2-1.838,1.2-3.112c0-1.275-0.626-2.438-1.875-3.487
			c0.699-0.199,1.725-0.513,3.074-0.938c1.351-0.425,3.075-0.987,5.176-1.688c4.05-1.3,6.349-2.2,6.899-2.7
			c0.499-0.499,0.75-1.125,0.75-1.875s-0.425-1.999-1.274-3.75C424.674,20.75,422.975,19.601,420.425,19.05z M406.85,56.625
			c0,0.8-0.675,1.525-2.024,2.175c-0.9,0.5-1.076,0.825-0.525,0.975c0.55,0.15,1.624,0.101,3.226-0.149
			c-0.15,4.55-0.726,7.912-1.726,10.087c-1.001,2.175-2.55,3.263-4.649,3.263c-0.951,0-2.276-0.251-3.976-0.75
			c-1.851-0.551-3.4-1.25-4.649-2.1c-1.301-0.801-2.126-1.476-2.476-2.025c-0.6-1.149-0.626-2.149-0.075-3
			c0.1-0.25,0.237-0.462,0.413-0.638l0.562-0.562c0.55-0.45,2.425-1.549,5.625-3.3c1.649-0.949,3.049-1.725,4.2-2.325
			c1.149-0.6,2.049-1.05,2.699-1.35c1.25-0.649,2.3-1.05,3.15-1.2C406.775,56.024,406.85,56.324,406.85,56.625z M496.7,27.6
			c0.349-3.699,0.624-5.874,0.825-6.524c0.149-0.5,0.225-1.075,0.225-1.726c0-2.149-0.95-3.574-2.85-4.274
			c-1.551-0.601-2.588-1.137-3.113-1.613c-0.524-0.475-1.012-0.712-1.462-0.712s-0.876,0.163-1.275,0.487
			c-0.4,0.326-0.6,0.713-0.6,1.162c0,0.45,0.199,0.676,0.6,0.676c0.399,0,0.725,0.074,0.976,0.225c0.3,0.15,0.6,0.525,0.899,1.125
			s0.45,1.325,0.45,2.175c0,1.4-0.037,2.825-0.112,4.275s-0.214,2.976-0.413,4.575c-0.3-0.45-0.65-1.675-1.05-3.676
			c-0.3-1.999-0.45-3.799-0.45-5.399c0-0.7-0.074-1.05-0.225-1.05c-0.4,0-0.6,0.625-0.6,1.875v1.087
			c0,0.375,0.024,0.813,0.074,1.312c0.55,3.101,0.976,5.751,1.275,7.95c0.3,2.201,0.45,3.975,0.45,5.325
			c-3.401,1.601-6.3,3.149-8.7,4.649c-0.15-0.75-0.176-1.512-0.075-2.287c0.1-0.774,0.237-1.512,0.413-2.213
			c0.174-0.699,0.349-1.337,0.524-1.912c0.175-0.574,0.287-1.062,0.338-1.463c0-1.6-1.2-3-3.601-4.199
			c-2.3-1.25-4.075-1.875-5.324-1.875c-1.151,0-1.726,0.325-1.726,0.975c0,0.2,0.075,0.45,0.226,0.75c-0.251,0-0.701,1.2-1.351,3.6
			c-0.65,2.501-1.2,4.227-1.649,5.176c-0.102,0.2-0.201,0.425-0.301,0.675c-0.101,0.251-0.2,0.551-0.3,0.899
			c-0.101,0.351-0.351,0.825-0.75,1.426c-0.4,0.6-0.95,1.325-1.649,2.175c0.149-1.3,0.574-2.625,1.274-3.976
			c0.25-0.399,0.375-0.85,0.375-1.35c0-1.3-0.675-2.524-2.024-3.675c-1.4-1.149-2.876-1.726-4.426-1.726
			c-3.75,0-7.325,3.351-10.725,10.051c-1.15-0.75-2.188-1.263-3.112-1.538c-0.926-0.274-1.513-0.412-1.763-0.412
			c-0.45,0-0.45,0.3,0,0.899c1.549,2.4,2.6,6.3,3.15,11.7c0.1,1.551,0.85,3.025,2.25,4.425c1.449,1.451,2.55,2.175,3.3,2.175
			c0.799,0,1.099-1.125,0.899-3.375c0.949,0.9,1.737,1.351,2.363,1.351c0.624,0,1.262-0.199,1.912-0.601
			c0.75-0.399,1.899-2.1,3.45-5.1c1.6-3.15,2.574-5.299,2.925-6.45c1.35-0.999,2.374-2.175,3.075-3.524
			c0.349-0.7,0.837-1.875,1.462-3.525c0.625-1.649,1.388-3.774,2.288-6.375c0.349-1.05,0.712-1.575,1.087-1.575
			s0.912,0.65,1.613,1.95c0.75,1.301,1.125,3.051,1.125,5.25c0,2.101-0.501,4.2-1.5,6.3c-1.001,2.051-2.25,3.426-3.75,4.125
			c-0.852,0.401-1.414,0.788-1.688,1.163c-0.275,0.375-0.413,1.012-0.413,1.912c0,2.45,0.25,3.926,0.75,4.425
			c0.499,0.45,1.249,0.675,2.25,0.675c1.85,0,3.425-0.949,4.726-2.85c1.999-2.85,4.425-5.225,7.274-7.125
			c2.8-1.849,4.774-2.925,5.925-3.225c0,1.4,0.025,3.112,0.075,5.137c0.05,2.025,0.124,4.388,0.226,7.088
			c0.1,2.7,0.174,4.838,0.225,6.412c0.049,1.575,0.075,2.639,0.075,3.188c0,1.101-0.075,1.875-0.226,2.325
			c-0.149,0.45-0.476,0.726-0.975,0.825c-0.5,0.101-0.75,0.351-0.75,0.75c0,0.65,0.324,1.774,0.975,3.375
			c0.7,1.8,1.475,3.3,2.325,4.5c0.9,1.3,1.612,1.95,2.138,1.95s1.013-0.851,1.463-2.55c0.449-1.701,0.675-3.926,0.675-6.676
			c0-1.398-0.038-2.711-0.112-3.938c-0.075-1.225-0.163-2.387-0.263-3.487c-0.101-1.099-0.188-2.574-0.263-4.425
			c-0.075-1.85-0.163-4.074-0.263-6.675c-0.05-2.649-0.088-4.75-0.112-6.3c-0.025-1.55-0.013-2.575,0.037-3.075
			c0.35-0.6,0.9-0.9,1.65-0.9c0.25,0,0.375-0.199,0.375-0.6c0-0.499-0.551-1.875-1.65-4.125c0-0.25,0.05-0.912,0.15-1.987
			C496.35,30.987,496.5,29.501,496.7,27.6z M460.812,39.149c-0.176,0.551-0.438,1.351-0.787,2.4c-0.701,2.15-1.4,3.525-2.101,4.125
			c-0.4,0.351-0.851,0.7-1.35,1.05c-0.501,0.351-1.101,0.701-1.8,1.05c-0.102-2.898-1.001-4.999-2.7-6.3
			c-0.101-0.3-0.15-0.699-0.15-1.2c0-0.499,0.075-0.975,0.226-1.425c0.149-0.45,0.437-0.837,0.862-1.162
			c0.424-0.325,1.062-0.513,1.912-0.562c1.05-0.1,2.175-0.15,3.375-0.15s1.95,0.051,2.25,0.15c0.15,0.05,0.274,0.112,0.375,0.188
			c0.1,0.075,0.15,0.263,0.15,0.562S460.987,38.601,460.812,39.149z M555.688,40.087c0.925-0.624,1.688-1.199,2.287-1.725
			c0.601-0.525,1.024-0.912,1.275-1.162c0.499-0.55,0.75-1.163,0.75-1.838s-0.551-1.537-1.65-2.588
			c-1.05-1.099-1.976-1.649-2.774-1.649c-0.701,0-1.95,0.275-3.75,0.825c-1.601,0.5-3.176,1.15-4.726,1.949
			c0.5-0.75,0.863-1.412,1.088-1.987c0.225-0.574,0.362-1.137,0.412-1.688c0.05-0.55,0.012-1.099-0.112-1.649
			c-0.125-0.55-0.288-1.125-0.487-1.726c2.4-0.899,4.675-1.35,6.825-1.35c1.099,0,1.862-0.162,2.287-0.487s0.638-0.788,0.638-1.388
			c0-1.149-0.801-2.101-2.4-2.851c-1.601-0.75-2.975-1.125-4.125-1.125c-1.25,0-2.324,0.176-3.225,0.525
			c0.399-1.3,0.6-2.374,0.6-3.225c0-0.949-0.975-2.074-2.925-3.375c-1.851-1.25-3.3-1.875-4.35-1.875
			c-1.101,0-2.175,0.176-3.226,0.524c-1.15,0.3-1.725,0.776-1.725,1.425c0,0.601,0.574,1.2,1.725,1.801c1.2,0.5,2,1.05,2.4,1.649
			c0.45,0.551,0.675,1.325,0.675,2.325c0,1.001-0.101,2.4-0.3,4.2c-9.4,6.05-15.926,9.075-19.575,9.075
			c-1.2,0-2.188-0.237-2.962-0.713c-0.776-0.475-1.312-0.713-1.613-0.713c-0.3,0-0.449,0.126-0.449,0.375
			c0,0.65,1.05,2.126,3.149,4.426c2.149,2.3,4.275,3.449,6.375,3.449c1.2,0,2.374-0.449,3.525-1.35c1.899-1.549,3.6-2.85,5.1-3.9
			c1.5-1.05,2.775-1.899,3.825-2.55c0.45-0.1,0.675,0.026,0.675,0.375c0,0.351-0.225,0.825-0.675,1.425
			c-0.5,0.65-2.55,2.601-6.15,5.851c-3.7,3.251-6.25,5.351-7.649,6.3c-1.4,0.899-2.501,1.45-3.3,1.649
			c-0.852,0.251-1.376,0.501-1.575,0.75c-0.101,0.15-0.2,0.438-0.3,0.863c-0.102,0.425-0.201,0.912-0.301,1.462
			c-0.101,0.551-0.176,1.113-0.225,1.688c-0.051,0.575-0.075,1.088-0.075,1.538c0,0.851,0.226,1.274,0.675,1.274
			c0.5,0,1.75-0.774,3.75-2.325c1.051-0.799,2.975-2.187,5.775-4.162c2.8-1.975,6.499-4.587,11.1-7.837
			c0.05,0.75,0.075,1.462,0.075,2.137c0,0.676-0.05,1.288-0.149,1.838c-1.901,1.4-3.601,2.45-5.101,3.149
			c-1.45,0.701-2.426,1.626-2.925,2.775c-0.45,1.15-0.675,2.1-0.675,2.85c0,0.701,0.424,1.051,1.274,1.051
			c0.85,0,2.551-0.574,5.101-1.726c2.599-1.149,4.649-2.199,6.149-3.149c1.5-0.949,2.4-1.426,2.7-1.426s0.45,0.176,0.45,0.525
			c0,0.15-0.063,0.4-0.188,0.75c-0.125,0.351-0.326,0.713-0.6,1.088c-0.275,0.375-0.589,0.712-0.938,1.012
			c-0.351,0.301-0.75,0.525-1.2,0.676c-2.651,0.75-4.001,2.774-4.05,6.074c-5.501,1.801-8.826,3.201-9.976,4.2
			c-1.101,0.95-1.649,2.351-1.649,4.2c0,0.5,0.024,0.963,0.074,1.388s0.175,0.862,0.375,1.312c0.199,0.45,0.488,0.938,0.863,1.462
			c0.375,0.525,0.887,1.137,1.537,1.838c1.249,1.399,2.775,2.8,4.575,4.2c1.749,1.35,3.037,2.224,3.862,2.625
			c0.825,0.399,1.662,0.6,2.513,0.6c1.899,0,3.85-1.001,5.85-3c2.05-2.051,3.325-5.55,3.825-10.5c1.999-0.049,3.75-0.724,5.25-2.024
			c1.549-1.351,2.325-2.575,2.325-3.676c0-1.099-0.726-2.324-2.175-3.675c-0.701-0.699-1.376-1.2-2.025-1.5
			c-0.65-0.3-1.288-0.487-1.912-0.562c-0.626-0.075-1.264-0.062-1.913,0.038c-0.65,0.101-1.35,0.225-2.1,0.375
			c-0.051-0.15-0.075-0.425-0.075-0.825c0-0.399,0.9-1.5,2.7-3.3c0.499-0.5,0.75-1.15,0.75-1.95c0-1.95-1.251-3.725-3.75-5.325
			c1.35-0.6,2.599-1.262,3.75-1.987C553.725,41.388,554.762,40.713,555.688,40.087z M552.95,59.625c0.499,0,0.75,0.149,0.75,0.449
			c0,0.351-0.75,1.076-2.25,2.176c-0.101-0.949-0.275-1.75-0.525-2.4C551.774,59.699,552.449,59.625,552.95,59.625z M544.925,72.6
			c-0.899,1.3-2.226,1.95-3.975,1.95c-2.501,0-4.976-0.825-7.425-2.476c-2.451-1.55-3.676-3.176-3.676-4.875
			c0-0.648,0.325-1.324,0.976-2.024c0.649-0.7,1.5-1.175,2.55-1.425c0.6,0.149,1.249,0.225,1.95,0.225
			c2.649,0,6.199-0.975,10.649-2.925c0.55,1.001,0.85,2.075,0.9,3.225c-1.9,0.501-3.551,0.75-4.95,0.75
			c-1.4,0-2.2,0.026-2.399,0.075c-0.201,0-0.301,0.075-0.301,0.225c0,0.351,0.949,0.65,2.851,0.9
			c0.949,0.101,1.824,0.176,2.625,0.225c0.799,0.051,1.549,0.102,2.25,0.15C546.5,69.3,545.825,71.299,544.925,72.6z
			 M549.463,38.925c-1.076,0.551-2.812,1.625-5.213,3.225c0.049-0.75,0.1-1.462,0.15-2.137c0.049-0.676,0.124-1.287,0.225-1.838
			c2.55-0.399,4.262-0.6,5.138-0.6c0.874,0,1.312,0.101,1.312,0.3C551.075,38.024,550.537,38.375,549.463,38.925z M638.3,48.712
			c-1.2-0.774-2.625-1.162-4.274-1.162c-1.001,0-1.826,0.149-2.476,0.45c-0.6,0.25-3.425,0.725-8.475,1.425
			c-0.75-1.45-1.7-2.55-2.851-3.3c0.05-0.7-0.275-1.5-0.975-2.4c0.499-0.949,1.924-2.074,4.275-3.375
			c0.3-0.149,0.524-0.399,0.675-0.75c0.149-0.349,0.199-0.737,0.149-1.162s-0.225-0.888-0.524-1.388
			c-0.3-0.499-0.776-0.975-1.425-1.425c-1.301-0.9-2.551-1.351-3.75-1.351c-1.2,0-3,0.463-5.4,1.388
			c-2.4,0.926-5.925,2.413-10.575,4.463c-0.351-0.399-0.524-0.812-0.524-1.237s0.124-0.737,0.375-0.938
			c1.999-0.55,4.249-1.25,6.75-2.101c2.499-0.85,5.274-1.849,8.324-3c0.4-0.149,0.9-0.3,1.5-0.45c0.601-0.149,1.3-0.324,2.101-0.524
			c1.699-0.399,2.925-0.601,3.675-0.601c0.85,0,1.524-0.062,2.025-0.188c0.499-0.124,0.75-0.387,0.75-0.787
			c0-0.399-0.551-1.074-1.65-2.025c-1.001-0.949-2.301-1.425-3.9-1.425c-1.55,0-3.4,0.551-5.55,1.65l0.226-2.4
			c0.949-0.499,2.374-1.074,4.274-1.725c1-0.399,1.787-0.725,2.362-0.976c0.574-0.249,0.963-0.424,1.163-0.524
			c0.399-0.3,0.6-0.825,0.6-1.575c0-0.699-0.575-1.699-1.725-3c-1.101-1.249-2.876-1.774-5.325-1.575
			c-0.15-1.449-0.575-2.574-1.275-3.375c-0.7-0.799-1.976-1.399-3.824-1.8c-1.801-0.399-3.063-0.6-3.788-0.6
			c-0.726,0-1.288,0.125-1.688,0.375c-0.351,0.2-0.524,0.487-0.524,0.862s0.324,0.838,0.975,1.388c0.649,0.5,1.1,1.15,1.35,1.949
			c0.25,0.852,0.375,2.301,0.375,4.351c-3.101,1.25-5.85,1.875-8.25,1.875c-1.9,0-2.85,0.101-2.85,0.3c0,0.2,0.225,0.4,0.675,0.6
			c0.499,0.251,0.949,0.825,1.351,1.726c0.6,1.15,1.249,2.013,1.949,2.587c0.7,0.576,1.426,0.976,2.176,1.2
			c0.75,0.226,1.512,0.326,2.287,0.3c0.774-0.024,1.512-0.086,2.213-0.188c0.1,0.551,0.024,1.351-0.226,2.4
			c-3.149,0.801-5.763,1.438-7.837,1.912c-2.076,0.477-3.613,0.813-4.613,1.013c-0.7,0.101-1.05,0.326-1.05,0.675
			c0,0.65,1.624,1.775,4.875,3.375c-0.4,0.401-0.638,1.051-0.712,1.95c-0.075,0.9,0.037,1.963,0.337,3.188
			c0.3,1.226,0.825,2.525,1.575,3.9s1.75,2.737,3,4.087c-1.15-0.6-2.075-0.899-2.775-0.899c-1.25,0-1.775,0.926-1.574,2.774
			c-1.301,0.551-2.438,1.063-3.413,1.538c-0.975,0.476-1.737,0.888-2.287,1.237c3.3-1.249,5.299-1.875,6-1.875
			c0.649,0,0.975,0.251,0.975,0.75c-4.7,1.5-9.524,2.774-14.475,3.825c-0.9,0.2-1.688,0.5-2.362,0.899
			c-0.676,0.401-1.163,0.825-1.463,1.275s-0.375,0.899-0.225,1.35c0.149,0.45,0.6,0.851,1.35,1.2c1.8,0.801,3.399,0.801,4.8,0
			c1.85-1.149,3.601-2.05,5.25-2.7c0.85-0.349,1.975-0.774,3.375-1.274c1.399-0.5,3.05-1.075,4.95-1.726
			c-0.95,2.051-2,3.726-3.15,5.025c-3.05,1.9-5.024,2.9-5.925,3c-1.101,0.05-1.649,0.524-1.649,1.425c0,1.301,0.774,1.95,2.324,1.95
			c1.25,0,2.65-0.399,4.2-1.2c0,0.251,0.038,0.688,0.112,1.312c0.075,0.625,0.162,1.463,0.263,2.513
			c-1.649,2.85-3.188,5.087-4.612,6.712s-2.513,2.562-3.263,2.812C590.35,81,590,81.273,590,81.524c0,0.25,0.25,0.375,0.75,0.375
			c2.749,0,6.049-1.9,9.9-5.7c1.899,4.45,3.574,6.676,5.024,6.676c1.149,0,2.6-1.701,4.351-5.101c1.699-3.351,2.898-7.2,3.6-11.55
			c0.399,0.2,0.774,0.787,1.125,1.763c0.35,0.975,0.525,1.862,0.525,2.662c0,0.85,0.074,1.6,0.225,2.25c0.15,0.8,0.75,1.899,1.8,3.3
			c1.149,1.45,1.899,2.176,2.25,2.176c0.399,0,0.55-0.951,0.45-2.851c1.75-0.551,3.387-0.825,4.912-0.825s3.338,0.35,5.438,1.051
			c0.5,0.1,0.8,0.149,0.9,0.149c0.799,0,1.2-0.675,1.2-2.024c0-1.351-0.45-2.25-1.351-2.7c-0.449-0.2-0.675-0.65-0.675-1.351
			c0-1.301,0.75-2.898,2.25-4.8c0.35-0.349,0.525-0.899,0.525-1.649c0-1.699-0.926-3.075-2.775-4.125
			c-1.8-1.051-3.2-1.575-4.2-1.575c-0.95,0-1.7,0.351-2.25,1.05c-0.449,0.701-1.075,1.226-1.875,1.575
			c-0.4,0.2-1.075,0.5-2.024,0.899c-0.95,0.401-2.226,0.876-3.825,1.426c-0.95-1.15-2.275-1.85-3.975-2.101
			c4.398-2.299,7.699-4.999,9.899-8.1c2.25-0.35,4.512-0.525,6.788-0.525c2.274,0,4.861,0.3,7.762,0.9
			c0.649,0.149,1.2,0.225,1.65,0.225c1.149,0,1.725-0.45,1.725-1.35C640.1,50.475,639.5,49.488,638.3,48.712z M621.2,65.024
			c0.699-0.1,1.274-0.188,1.725-0.263c0.45-0.074,0.8-0.161,1.05-0.262c0.5-0.15,0.825-0.226,0.976-0.226
			c0.499,0,0.75,0.163,0.75,0.487c0,0.326-0.176,0.988-0.525,1.988c-0.149,0.5-0.337,0.926-0.562,1.274
			c-0.225,0.351-0.538,0.675-0.938,0.976c-0.4,0.3-0.926,0.587-1.575,0.862c-0.65,0.274-1.45,0.587-2.399,0.938
			c-0.351-1.751-0.926-3.625-1.726-5.625C618.675,65.225,619.749,65.175,621.2,65.024z M604.4,42.975
			c1.398-0.349,2.574-0.649,3.524-0.899c0.949-0.25,1.699-0.475,2.25-0.676c0.55-0.249,1.163-0.524,1.838-0.824
			c0.675-0.301,1.412-0.649,2.212-1.051c1.6-0.85,2.476-1.274,2.625-1.274c0.25,0,0.375,0.213,0.375,0.638s-0.4,1.287-1.199,2.587
			c-0.852,1.301-4.2,2.625-10.051,3.976C605.225,44.501,604.7,43.676,604.4,42.975z M600.688,67.912
			c-0.125,0.426-0.463,1.037-1.013,1.838c-0.3-0.65-0.45-1.5-0.45-2.551c0.301-0.1,0.588-0.174,0.863-0.225
			c0.273-0.049,0.475-0.012,0.6,0.112C600.812,67.213,600.812,67.488,600.688,67.912z M608.075,70.649
			c-0.551,2.101-1.013,3.499-1.388,4.2c-0.375,0.699-0.763,1.05-1.162,1.05c-0.601,0-1.775-0.575-3.525-1.725
			c1.3-1.65,3.124-4.95,5.475-9.9c0.15-0.049,0.312-0.112,0.488-0.188c0.174-0.075,0.324-0.075,0.449,0s0.237,0.251,0.338,0.525
			c0.1,0.275,0.15,0.712,0.15,1.312C608.9,66.975,608.625,68.55,608.075,70.649z M609.2,59.699c-0.3-0.1-0.551-0.149-0.75-0.149
			c-0.801-1.149-1.226-2.476-1.275-3.976c1.55-0.499,3.124-0.938,4.726-1.312c1.6-0.375,3.249-0.736,4.949-1.087
			C615.05,55.226,612.5,57.4,609.2,59.699z M618.2,49.762c0,0.176-0.026,0.363-0.075,0.562c-1.751,0.251-3.5,0.551-5.25,0.9
			c-1.751,0.351-3.5,0.75-5.25,1.2c0.049-0.649,1.125-1.55,3.225-2.7c2.05-1.149,3.925-1.725,5.625-1.725
			c1.15,0,1.726,0.425,1.726,1.274V49.762z M706.55,53.699c-2,0-4.45,0.375-7.35,1.125c-1.451,0.401-2.825,0.813-4.125,1.238
			c-1.301,0.425-2.525,0.888-3.675,1.387c-0.351,0.201-0.801,0.301-1.351,0.301c-1.5,0-2.575-0.676-3.225-2.025
			c-0.601-1.399-1.526-2.1-2.775-2.1c-1.25,0-2.024,0.088-2.325,0.262c-0.3,0.176-0.449,0.613-0.449,1.312l0.074,1.426
			c0,1.1-0.112,1.949-0.337,2.55c-0.226,0.6-0.338,1.025-0.338,1.274c0,0.9,0.774,2.201,2.325,3.9
			c1.6,1.751,2.725,2.625,3.375,2.625c0.25,0,0.499-0.15,0.75-0.45c1.549-2.199,2.899-3.574,4.05-4.125
			c1.3,1.05,2.325,2.213,3.075,3.487c0.75,1.275,1.125,2.138,1.125,2.588c0,0.399-0.312,0.649-0.938,0.75
			c-0.626,0.1-1.938,0.15-3.938,0.15c-2.4,0-4.476-0.139-6.225-0.413c-1.751-0.275-3.226-0.712-4.426-1.312
			c-1.199-0.6-2.175-1.399-2.925-2.399s-1.35-2.25-1.8-3.75c-0.851-3-2.65-4.5-5.4-4.5c-0.95,0-2.3,0.5-4.05,1.5
			c-0.251-0.75-0.275-1.426-0.075-2.025c0.1-0.35,0.15-0.737,0.15-1.162s-0.225-0.638-0.675-0.638c-0.351,0-0.726,0.176-1.125,0.524
			c-0.401,0.351-0.701,0.825-0.9,1.426c-0.551,1.45-1.013,2.638-1.388,3.562c-0.375,0.926-0.663,1.588-0.862,1.987
			c-0.351,0.75-0.775,1.2-1.274,1.35c-0.45,0.15-0.676,0.601-0.676,1.351s0.301,2.175,0.9,4.274c0.3,1.05,0.574,1.875,0.825,2.476
			c0.249,0.6,0.475,1.05,0.675,1.35c0.199,0.3,0.387,0.487,0.562,0.562c0.175,0.075,0.362,0.112,0.562,0.112
			c0.9,0,1.399-0.45,1.5-1.35l0.45-2.175c0.949-4.65,1.624-7.525,2.024-8.625c0.35-1.051,1-1.575,1.95-1.575
			c0.9,0,1.55,0.675,1.95,2.024c0.9,3.051,2.449,5.676,4.65,7.875c2.199,2.2,4.899,3.725,8.1,4.575
			c3.199,0.9,7.624,1.351,13.275,1.351c2.449,0,4.674-0.351,6.675-1.051c1.999-0.65,3-1.5,3-2.55c0-1.001-1.038-2.375-3.112-4.125
			c-2.076-1.749-5.238-3.975-9.488-6.675c1-2.449,3.1-3.925,6.301-4.425c2.699,2,4.837,3.562,6.412,4.688s2.588,1.837,3.037,2.138
			c1,0.551,1.75,0.824,2.25,0.824c1,0,1.5-1.249,1.5-3.75c0-2.499-0.551-4.299-1.649-5.399
			C710.049,54.275,708.5,53.699,706.55,53.699z M671.3,54.524c0.3,0,0.574-0.075,0.825-0.225c1.149-0.7,2.712-1.463,4.688-2.288
			c1.975-0.824,4.388-1.661,7.237-2.512c0.75,0.35,1.425,0.524,2.025,0.524c0.6,0,1.374-0.175,2.325-0.524
			c0.199,0.05,0.399,0.138,0.6,0.262c0.199,0.126,0.399,0.351,0.6,0.676c0.199,0.325,0.45,0.775,0.75,1.35
			c0.301,0.575,0.676,1.312,1.125,2.213c0.199,0.5,0.5,0.75,0.9,0.75c0.399,0,0.837-0.312,1.312-0.938
			c0.475-0.625,0.912-1.55,1.312-2.775c0.399-1.225,0.737-2.737,1.013-4.537c0.274-1.8,0.412-3.874,0.412-6.226l-0.149-7.949
			c0-2.6,0.249-4.3,0.75-5.101c0.549-0.85,0.824-1.774,0.824-2.774c0-1.051-0.2-1.925-0.6-2.625c-0.4-0.8-0.975-1.3-1.725-1.5
			c-0.801-0.199-1.875-0.875-3.226-2.025c-0.45-0.35-0.938-0.625-1.462-0.825c-0.525-0.199-1.151-0.3-1.875-0.3
			c-0.726,0-1.613,0.088-2.663,0.263c-1.05,0.176-2.325,0.438-3.825,0.787c-2.95,0.65-5,1.251-6.149,1.8
			c-1.101,0.501-1.826,1.227-2.175,2.176c-0.501,1.301-0.938,2.412-1.312,3.337c-0.375,0.926-0.713,1.663-1.013,2.213
			c-1.05-1.55-1.95-2.325-2.7-2.325S668,25.9,668,26.85c0.049,0.401,0.137,0.801,0.263,1.2c0.124,0.4,0.225,0.862,0.3,1.388
			c0.075,0.524,0.112,1.15,0.112,1.875c0,0.726-0.101,1.612-0.3,2.662c-0.101,0.701-0.176,1.476-0.225,2.325
			c-0.051,0.851-0.075,1.826-0.075,2.925c0,2.101,0.075,3.45,0.225,4.05c0.1,0.251,0.237,0.601,0.413,1.051
			c0.174,0.449,0.437,1,0.787,1.649c0.1,0.851,0.499,1.851,1.2,3c-0.401,0.251-0.801,0.375-1.2,0.375
			c-0.4,0-0.975-0.075-1.725-0.225c-0.701-0.25-1.051,0-1.051,0.75c0,0.65,0.55,1.601,1.65,2.85
			C669.475,53.925,670.449,54.524,671.3,54.524z M672.95,44.774c-0.101-0.949-0.176-1.924-0.226-2.925
			c-0.05-0.999-0.074-1.999-0.074-3c0.899,0.2,1.736,0.3,2.512,0.3s1.463-0.049,2.062-0.149
			C676.625,41.3,675.2,43.226,672.95,44.774z M684.65,23.024c1.249-0.999,2.625-1.5,4.125-1.5c1.149,0,1.674,2.651,1.574,7.95
			c-1.949-0.6-4-0.874-6.149-0.825C684.249,26.501,684.399,24.626,684.65,23.024z M683.825,35.625c1.699-0.9,3.825-1.5,6.375-1.8
			c-0.051,0.8-0.112,1.649-0.188,2.55c-0.075,0.899-0.188,1.851-0.338,2.85c-1.5-0.85-3.524-1.624-6.075-2.325
			C683.75,36.551,683.825,36.125,683.825,35.625z M681.725,41.325c2.101,0.551,3.612,1,4.538,1.35c0.925,0.351,1.537,0.65,1.837,0.9
			c0.301,0.25,0.4,0.463,0.301,0.637c-0.102,0.176-0.126,0.363-0.075,0.562c-5.15,0.801-8.501,1.451-10.05,1.95
			c0.049-0.1,0.361-0.6,0.938-1.5C679.787,44.325,680.625,43.025,681.725,41.325z M672.987,26.774
			c0.475-0.449,1.037-0.762,1.688-0.938c0.649-0.174,1.324-0.249,2.025-0.225c0.699,0.025,1.274,0.063,1.725,0.112
			c0.05,2.051,0.05,4.001,0,5.851c-1.8,0.7-3.65,1.05-5.55,1.05c-0.051-0.601-0.112-1.237-0.188-1.913
			c-0.075-0.675-0.213-1.361-0.412-2.062C672.275,27.851,672.512,27.225,672.987,26.774z M725.15,60.524
			c-0.301-0.349-0.688-0.512-1.163-0.487c-0.476,0.025-1.013,0.251-1.612,0.675c-0.6,0.426-1.2,1.088-1.8,1.987
			c-1.2,1.751-1.8,3.126-1.8,4.125c0,0.551,0.149,0.988,0.449,1.312c0.301,0.326,0.649,0.488,1.051,0.488
			c0.999,0,2.148-0.8,3.449-2.4c1.25-1.549,1.875-2.949,1.875-4.2C725.6,61.375,725.45,60.875,725.15,60.524z"/>
	</g>
</g>
</svg>
