<?xml version="1.0" standalone="no"?>
<!DOCTYPE svg PUBLIC "-//W3C//DTD SVG 1.1//EN" "http://www.w3.org/Graphics/SVG/1.1/DTD/svg11.dtd" >
<svg xmlns="http://www.w3.org/2000/svg">
<metadata></metadata>
<defs>
<font id="onrampregular" horiz-adv-x="911" >
<font-face units-per-em="2048" ascent="1638" descent="-410" />
<missing-glyph horiz-adv-x="540" />
<glyph horiz-adv-x="0" />
<glyph unicode="&#xd;" horiz-adv-x="540" />
<glyph unicode=" "  horiz-adv-x="540" />
<glyph unicode="&#x09;" horiz-adv-x="540" />
<glyph unicode="&#xa0;" horiz-adv-x="540" />
<glyph unicode="!" horiz-adv-x="448" d="M115 190h211v-190h-211v190v0zM326 287h-211v610h211v-610v0z" />
<glyph unicode="&#x22;" horiz-adv-x="704" d="M317 707h-137v305h137v-305v0zM524 707h-137v305h137v-305v0z" />
<glyph unicode="#" horiz-adv-x="776" d="M678 498h-84v-86h84v-172h-84v-84h-172v84h-86v-84h-172v84h-84v172h84v86h-84v172h84v84h172v-84h86v84h172v-84h84v-172zM422 412v86h-86v-86h86z" />
<glyph unicode="$" horiz-adv-x="712" d="M276 659v-131h256q35 0 60.5 -22.5t25.5 -52.5v-293q0 -33 -25.5 -55.5t-60.5 -22.5h-86v-156h-172v156h-170v156h340v137h-254q-37 0 -61.5 22.5t-24.5 55.5v284q0 33 25 55.5t61 22.5h84v154h172v-154h172v-156h-342z" />
<glyph unicode="%" horiz-adv-x="1007" d="M612 895h222l-420 -895h-221zM178 606h197q20 0 34.5 13.5t14.5 31.5v201q0 16 -14.5 29.5t-34.5 13.5h-197q-20 0 -34.5 -13.5t-14.5 -29.5v-201q0 -18 14.5 -31.5t34.5 -13.5zM227 807h99v-111h-99v111zM651 0h197q20 0 34.5 12.5t14.5 30.5v201q0 18 -14.5 30.5 t-34.5 12.5h-197q-20 0 -34.5 -12.5t-14.5 -30.5v-201q0 -18 14.5 -30.5t34.5 -12.5zM700 199h99v-111h-99v111zM834 895l-420 -895z" />
<glyph unicode="&#x26;" horiz-adv-x="1032" d="M948 174h-92v-80q0 -41 -30.5 -67.5t-73.5 -26.5h-467q-45 0 -76 26.5t-31 67.5v707q0 39 31 66.5t76 27.5h467q43 0 73.5 -27.5t30.5 -66.5v-211h-211v115h-256v-160h193v-191h-193v-164h256v111h303v-127z" />
<glyph unicode="'" horiz-adv-x="526" d="M317 707h-137v305h137v-305v0z" />
<glyph unicode="(" horiz-adv-x="704" d="M557 1085v-190h-168v-895h168v-193h-272q-45 0 -76 28t-31 69v1087q0 39 31 66.5t76 27.5h272z" />
<glyph unicode=")" horiz-adv-x="704" d="M418 1085q45 0 75.5 -27.5t30.5 -66.5v-1087q0 -41 -30.5 -69t-75.5 -28h-273v193h168v895h-168v190h273z" />
<glyph unicode="*" horiz-adv-x="479" d="M326 858v0l65 -43l-49 -72l-53 35v-71h-88v71l-54 -35l-51 72l68 43v0l-68 43l51 72l54 -35v74h88v-74l53 35l49 -72l-65 -43v0z" />
<glyph unicode="+" horiz-adv-x="847" d="M676 543v-172h-162v-162h-172v162h-164v172h164v162h172v-162h162v0z" />
<glyph unicode="," horiz-adv-x="319" d="M238 0q0 -41 -31 -67.5t-76 -26.5h-68v284h175v-190v0z" />
<glyph unicode="-" horiz-adv-x="751" d="M178 535h385v-173h-385v173v0z" />
<glyph unicode="." horiz-adv-x="366" d="M92 190h172v-190h-172v190v0z" />
<glyph unicode="/" horiz-adv-x="817" d="M463 897h221l-266 -897h-223l268 897v0z" />
<glyph unicode="0" horiz-adv-x="815" d="M627 897q43 0 73.5 -27.5t30.5 -68.5v-705q0 -41 -30.5 -68.5t-73.5 -27.5h-426q-43 0 -74 27.5t-31 68.5v705q0 41 31 68.5t74 27.5h426zM522 707h-215v-517h215v517z" />
<glyph unicode="1" horiz-adv-x="577" d="M63 895h431v-895h-211v705h-220v190v0z" />
<glyph unicode="2" horiz-adv-x="847" d="M307 350v-162h467v-188h-678v444q0 41 31 69t76 28h360v161h-467v191h574q43 0 73.5 -27.5t30.5 -66.5v-449h-467z" />
<glyph unicode="3" horiz-adv-x="815" d="M627 895q43 0 73.5 -27.5t30.5 -66.5v-707q0 -41 -30.5 -67.5t-73.5 -26.5h-531v190h135h289v162h-289h-135v191h135h289v162h-289h-135v190h531v0z" />
<glyph unicode="4" horiz-adv-x="817" d="M520 895h211v-895h-211v299h2h-2h-424v596h209v-406h215v406v0z" />
<glyph unicode="5" horiz-adv-x="815" d="M309 709v-160h314q43 0 73.5 -26.5t30.5 -67.5v-359q0 -41 -30.5 -68.5t-73.5 -27.5h-527v190h420v168h-420v541h631v-190h-418z" />
<glyph unicode="6" horiz-adv-x="815" d="M727 895v-190h-422v-162h316q45 0 75.5 -28t30.5 -69v-352q0 -41 -30.5 -67.5t-75.5 -26.5h-420q-43 0 -74 26.5t-31 67.5v707q0 39 31 66.5t74 27.5h526zM305 352v-162h211v162h-211z" />
<glyph unicode="7" horiz-adv-x="800" d="M80 899h680l-395 -897v0h-211v0v0l297 707h-371v190v0z" />
<glyph unicode="8" horiz-adv-x="817" d="M625 897q43 0 73.5 -27.5t30.5 -68.5v-705q0 -41 -30.5 -68.5t-73.5 -27.5h-422q-43 0 -74 27.5t-31 68.5v705q0 41 31 68.5t74 27.5h422zM518 352h-209v-162h209v162zM309 545h209v162h-209v-162z" />
<glyph unicode="9" horiz-adv-x="800" d="M604 899q43 0 74 -27.5t31 -68.5v-705q0 -41 -31 -68.5t-74 -27.5l-524 -2v193h420v161h-316q-43 0 -73.5 28t-30.5 69v352q0 41 30.5 68.5t73.5 27.5h420zM500 709h-211v-164h211v164z" />
<glyph unicode=":" horiz-adv-x="366" d="M98 612h174v-190h-174v190v0zM98 283h174v-191h-174v191z" />
<glyph unicode=";" horiz-adv-x="382" d="M115 612h174v-190h-174v190zM289 94v189h-174v-283h67q45 0 76 26.5t31 67.5z" />
<glyph unicode="&#x3c;" horiz-adv-x="880" d="M705 600h-3l-282 -151l285 -152v-221l-572 305v135l572 305v-221v0z" />
<glyph unicode="=" horiz-adv-x="847" d="M176 528v170h498v-170h-498v0zM176 201v170h498v-170h-498v0z" />
<glyph unicode="&#x3e;" horiz-adv-x="944" d="M213 600v221l571 -305v-135l-571 -305v221l285 152l-283 151h-2v0z" />
<glyph unicode="?" horiz-adv-x="608" d="M96 193h213v-193h-213v193zM309 356v-69h-213v166q0 39 31 66.5t76 27.5h200v160h-307v190h414q43 0 73.5 -27.5t30.5 -68.5v-348q0 -41 -30.5 -69t-73.5 -28h-201z" />
<glyph unicode="@" horiz-adv-x="1024" d="M238 -2q-41 0 -68 24.5t-27 59.5v289q0 35 27 59.5t68 24.5h372v-289h95v373h-562v168h664q35 0 59.5 -28t24.5 -67v-528q0 -35 -26.5 -59.5t-65.5 -24.5h-553zM330 166h94v121h-94v-121z" />
<glyph unicode="A" d="M702 0l-69 211h-332l-72 -211h-217l293 893h322l293 -893h-218zM467 705l-102 -302h202z" />
<glyph unicode="B" horiz-adv-x="847" d="M684 895q41 0 72.5 -27.5t31.5 -68.5v-705q0 -41 -31.5 -67.5t-72.5 -26.5h-606v895h606zM287 702v-159h293v159h-293zM580 188v162h-293v-162h293z" />
<glyph unicode="C" horiz-adv-x="798" d="M530 590v112h-256v-514h256v113h211v-207q0 -41 -30.5 -67.5t-75.5 -26.5h-465q-45 0 -74.5 26.5t-29.5 67.5v705q0 41 29.5 68.5t74.5 27.5h465q45 0 75.5 -27.5t30.5 -68.5v-209h-211z" />
<glyph unicode="D" horiz-adv-x="864" d="M686 895q43 0 74 -27.5t31 -68.5v-705q0 -41 -31 -67.5t-74 -26.5h-604v895h604zM580 702h-289v-514h289v514z" />
<glyph unicode="E" horiz-adv-x="833" d="M770 702h-465v-163h256v-189h-256v-162h465v-188h-672v895h672v-193v0z" />
<glyph unicode="F" horiz-adv-x="817" d="M768 702h-465v-163h256v-189h-256v-350h-207v895h672v-193v0z" />
<glyph unicode="G" horiz-adv-x="833" d="M575 592v115h-301v-517h301v113h-129v191h338v-191v-207q0 -41 -30.5 -68.5t-73.5 -27.5h-510q-43 0 -73.5 27.5t-30.5 68.5v705q0 41 30.5 68.5t73.5 27.5h510q43 0 73.5 -27.5t30.5 -68.5v-209h-209z" />
<glyph unicode="H" horiz-adv-x="831" d="M565 895h207v-895h-207v301h-291v-301h-211v895h211v-403h291v403v0z" />
<glyph unicode="I" horiz-adv-x="448" d="M342 0h-211v895h211v-895z" />
<glyph unicode="J" horiz-adv-x="815" d="M743 895v-799q0 -41 -30.5 -68.5t-73.5 -27.5h-469q-43 0 -73.5 27.5t-30.5 68.5v207v191h210v-304h254v705h213z" />
<glyph unicode="K" horiz-adv-x="993" d="M911 0h-278l-178 256l-179 -256h-178v895h211v-430l287 430h303l-301 -430h6l307 -465v0z" />
<glyph unicode="L" horiz-adv-x="751" d="M295 895v-705h393v-190h-606v895h213v0z" />
<glyph unicode="M" horiz-adv-x="1103" d="M711 895h325v-895h-209v700l-200 -374h-135l-201 374l2 -700h-211v895h326l151 -231l152 231v0z" />
<glyph unicode="N" horiz-adv-x="944" d="M879 895v-895h-185l-401 606v-606h-209v895h301l283 -430v430h211v0z" />
<glyph unicode="O" horiz-adv-x="944" d="M733 0h-512q-43 0 -73.5 26.5t-30.5 67.5v707q0 39 30.5 66.5t73.5 27.5h512q43 0 74 -27.5t31 -66.5v-707q0 -41 -31 -67.5t-74 -26.5zM328 190h299v515h-299v-515z" />
<glyph unicode="P" horiz-adv-x="894" d="M711 895q43 0 73.5 -27.5t30.5 -66.5v-398q0 -41 -30.5 -68.5t-73.5 -27.5h-400v-307h-213v895h613zM604 705h-293v-207h293v207z" />
<glyph unicode="Q" d="M580 -137l-91 137h-286q-45 0 -76 26.5t-31 67.5v707q0 39 31 66.5t76 27.5h512q45 0 75.5 -27.5t30.5 -66.5v-707q0 -35 -24.5 -61.5t-61.5 -32.5l92 -137h-247zM610 190v515h-303v-515h303z" />
<glyph unicode="R" d="M668 0l-205 307h-152v-307h-211v895h609q45 0 75.5 -27.5t30.5 -66.5v-398q0 -41 -30.5 -68.5t-75.5 -27.5l204 -307h-245zM311 498h293v207h-293v-207z" />
<glyph unicode="S" horiz-adv-x="798" d="M625 0h-527v190h420v168h-313q-43 0 -75 28t-32 69v350q0 39 32 66.5t75 27.5h524v-190h-418v-158h314q43 0 73.5 -27.5t30.5 -68.5v-359q0 -41 -30.5 -68.5t-73.5 -27.5z" />
<glyph unicode="T" horiz-adv-x="751" d="M690 895v-188h-207v-707h-211v707h-206v188h624v0z" />
<glyph unicode="U" horiz-adv-x="927" d="M721 0h-514q-45 0 -76 26.5t-31 67.5v803h213v-707h301v707h213v-803q0 -41 -30.5 -67.5t-75.5 -26.5z" />
<glyph unicode="V" d="M676 895h215l-266 -895h-324l-268 895h215l215 -700l213 700v0z" />
<glyph unicode="W" horiz-adv-x="1136" d="M422 0h-326v895h209v-700l201 374h135l201 -374v700h209v-895h-326l-152 233l-151 -233v0z" />
<glyph unicode="X" horiz-adv-x="1024" d="M961 895l-310 -446l310 -449h-277l-170 246l-172 -246h-276l309 449l-309 446h276l172 -246l170 246h277v0z" />
<glyph unicode="Y" horiz-adv-x="991" d="M950 895l-336 -485v-410h-211v410l-335 485h288l154 -219l152 219h288v0z" />
<glyph unicode="Z" horiz-adv-x="784" d="M66 895h643v-166l-371 -539h371v-190h-643v197l360 508h-360v190v0z" />
<glyph unicode="[" horiz-adv-x="704" d="M403 895v-897h138v-191h-346v1278h346v-190h-138z" />
<glyph unicode="\" horiz-adv-x="800" d="M383 897l268 -897h-223l-266 897h221v0z" />
<glyph unicode="]" horiz-adv-x="739" d="M199 895v190h346v-1278h-346v191h137v897h-137z" />
<glyph unicode="^" horiz-adv-x="962" d="M541 1012l305 -467h-221l-152 233l-151 -233h-222l306 467h135v0z" />
<glyph unicode="_" horiz-adv-x="847" d="M113 0h635v-172h-635v172v0z" />
<glyph unicode="`" horiz-adv-x="432" d="M236 1012l67 -305l2 -2h-137l-70 307h138v0z" />
<glyph unicode="a" d="M702 0l-69 211h-332l-72 -211h-217l293 893h322l293 -893h-218zM467 705l-102 -302h202z" />
<glyph unicode="b" horiz-adv-x="847" d="M684 895q41 0 72.5 -27.5t31.5 -68.5v-705q0 -41 -31.5 -67.5t-72.5 -26.5h-606v895h606zM287 702v-159h293v159h-293zM580 188v162h-293v-162h293z" />
<glyph unicode="c" horiz-adv-x="798" d="M530 590v112h-256v-514h256v113h211v-207q0 -41 -30.5 -67.5t-75.5 -26.5h-465q-45 0 -74.5 26.5t-29.5 67.5v705q0 41 29.5 68.5t74.5 27.5h465q45 0 75.5 -27.5t30.5 -68.5v-209h-211z" />
<glyph unicode="d" horiz-adv-x="864" d="M686 895q43 0 74 -27.5t31 -68.5v-705q0 -41 -31 -67.5t-74 -26.5h-604v895h604zM580 702h-289v-514h289v514z" />
<glyph unicode="e" horiz-adv-x="833" d="M770 702h-465v-163h256v-189h-256v-162h465v-188h-672v895h672v-193v0z" />
<glyph unicode="f" horiz-adv-x="817" d="M768 702h-465v-163h256v-189h-256v-350h-207v895h672v-193v0z" />
<glyph unicode="g" horiz-adv-x="833" d="M575 592v115h-301v-517h301v113h-129v191h338v-191v-207q0 -41 -30.5 -68.5t-73.5 -27.5h-510q-43 0 -73.5 27.5t-30.5 68.5v705q0 41 30.5 68.5t73.5 27.5h510q43 0 73.5 -27.5t30.5 -68.5v-209h-209z" />
<glyph unicode="h" horiz-adv-x="831" d="M565 895h207v-895h-207v301h-291v-301h-211v895h211v-403h291v403v0z" />
<glyph unicode="i" horiz-adv-x="448" d="M342 0h-211v895h211v-895z" />
<glyph unicode="j" horiz-adv-x="815" d="M743 895v-799q0 -41 -30.5 -68.5t-73.5 -27.5h-469q-43 0 -73.5 27.5t-30.5 68.5v207v191h210v-304h254v705h213z" />
<glyph unicode="k" horiz-adv-x="993" d="M911 0h-278l-178 256l-179 -256h-178v895h211v-430l287 430h303l-301 -430h6l307 -465v0z" />
<glyph unicode="l" horiz-adv-x="751" d="M295 895v-705h393v-190h-606v895h213v0z" />
<glyph unicode="m" horiz-adv-x="1103" d="M711 895h325v-895h-209v700l-200 -374h-135l-201 374l2 -700h-211v895h326l151 -231l152 231v0z" />
<glyph unicode="n" horiz-adv-x="944" d="M879 895v-895h-185l-401 606v-606h-209v895h301l283 -430v430h211v0z" />
<glyph unicode="o" horiz-adv-x="944" d="M733 0h-512q-43 0 -73.5 26.5t-30.5 67.5v707q0 39 30.5 66.5t73.5 27.5h512q43 0 74 -27.5t31 -66.5v-707q0 -41 -31 -67.5t-74 -26.5zM328 190h299v515h-299v-515z" />
<glyph unicode="p" horiz-adv-x="894" d="M711 895q43 0 73.5 -27.5t30.5 -66.5v-398q0 -41 -30.5 -68.5t-73.5 -27.5h-400v-307h-213v895h613zM604 705h-293v-207h293v207z" />
<glyph unicode="q" d="M580 -137l-91 137h-286q-45 0 -76 26.5t-31 67.5v707q0 39 31 66.5t76 27.5h512q45 0 75.5 -27.5t30.5 -66.5v-707q0 -35 -24.5 -61.5t-61.5 -32.5l92 -137h-247zM610 190v515h-303v-515h303z" />
<glyph unicode="r" d="M668 0l-205 307h-152v-307h-211v895h609q45 0 75.5 -27.5t30.5 -66.5v-398q0 -41 -30.5 -68.5t-75.5 -27.5l204 -307h-245zM311 498h293v207h-293v-207z" />
<glyph unicode="s" horiz-adv-x="798" d="M625 0h-527v190h420v168h-313q-43 0 -75 28t-32 69v350q0 39 32 66.5t75 27.5h524v-190h-418v-158h314q43 0 73.5 -27.5t30.5 -68.5v-359q0 -41 -30.5 -68.5t-73.5 -27.5z" />
<glyph unicode="t" horiz-adv-x="751" d="M690 895v-188h-207v-707h-211v707h-206v188h624v0z" />
<glyph unicode="u" horiz-adv-x="927" d="M721 0h-514q-45 0 -76 26.5t-31 67.5v803h213v-707h301v707h213v-803q0 -41 -30.5 -67.5t-75.5 -26.5z" />
<glyph unicode="v" d="M676 895h215l-266 -895h-324l-268 895h215l215 -700l213 700v0z" />
<glyph unicode="w" horiz-adv-x="1136" d="M422 0h-326v895h209v-700l201 374h135l201 -374v700h209v-895h-326l-152 233l-151 -233v0z" />
<glyph unicode="x" horiz-adv-x="1024" d="M961 895l-310 -446l310 -449h-277l-170 246l-172 -246h-276l309 449l-309 446h276l172 -246l170 246h277v0z" />
<glyph unicode="y" horiz-adv-x="991" d="M950 895l-336 -485v-410h-211v410l-335 485h288l154 -219l152 219h288v0z" />
<glyph unicode="z" horiz-adv-x="784" d="M66 895h643v-166l-371 -539h371v-190h-643v197l360 508h-360v190v0z" />
<glyph unicode="{" horiz-adv-x="927" d="M616 897v-897h168v-190h-272q-45 0 -75.5 27.5t-30.5 68.5v428h-209v231h209v428q0 39 30.5 66.5t75.5 27.5h272v-190h-168z" />
<glyph unicode="|" horiz-adv-x="479" d="M350 -190h-211v1275h211v-1275v0z" />
<glyph unicode="}" horiz-adv-x="880" d="M145 897v190h273q45 0 75.5 -27.5t30.5 -66.5v-428h209v-231h-209v-428q0 -41 -30.5 -68.5t-75.5 -27.5h-273v190h168v897h-168z" />
<glyph unicode="~" horiz-adv-x="790" d="M647 1008l2 -25v-186l-176 -95l-176 93l-174 -93v211l174 95l176 -95l174 95v0z" />
<glyph unicode="&#xa1;" horiz-adv-x="446" d="M0 707v190h211v-190h-211zM211 610v-610h-211v610h211z" />
<glyph unicode="&#xa2;" horiz-adv-x="751" d="M512 565v92h-209v-419h209v92h172v-170q0 -33 -25.5 -55.5t-60.5 -22.5h-104v-152h-172v152h-105q-35 0 -60.5 22.5t-25.5 55.5v575q0 33 25.5 55.5t60.5 22.5h105v160h172v-160h104q35 0 60.5 -22.5t25.5 -55.5v-170h-172z" />
<glyph unicode="&#xa3;" horiz-adv-x="612" d="M498 236v-154h-492h-2v260h-102v154h102v323q0 33 25.5 55.5t60.5 22.5h246q35 0 59.5 -22.5t24.5 -55.5v-168h-170v92h-74v-247h158v-154h-158v-106h322z" />
<glyph unicode="&#xa5;" horiz-adv-x="974" d="M840 813l-275 -397h131v-154h-131v-180h-172v180h-131v154h131l-274 397h198v0l162 -233l162 233h199v0z" />
<glyph unicode="&#xa8;" horiz-adv-x="528" d="M0 1012v155h154v-155h-154zM250 1012v155h156v-155h-156z" />
<glyph unicode="&#xa9;" horiz-adv-x="376" d="M285 633h-265q-20 0 -20 20v303q0 18 20 19h265q20 0 20 -19v-303q0 -20 -20 -20zM41 672h223v266h-223v-266zM221 834v43q0 18 -20 18h-95q-23 0 -22 -18v-144q0 -18 22 -18h95q20 0 20 18v43h-43v-22h-51v102h51v-22h43z" />
<glyph unicode="&#xad;" horiz-adv-x="751" d="M178 535h385v-173h-385v173v0z" />
<glyph unicode="&#xae;" horiz-adv-x="436" d="M248 715l-41 61q20 0 20 21v80q0 18 -20 18h-123v-180h43v61h31l41 -61h49zM127 856h57v-41h-57v41zM291 633h-271q-23 0 -22 20v303q0 18 22 19h271q23 0 22 -19v-303q1 -20 -22 -20zM41 672h229v266h-229v-266z" />
<glyph unicode="&#xb0;" horiz-adv-x="247" d="M176 711h-153q-23 0 -23 18v150q0 20 23 20h153q20 0 21 -20v-150q-1 -18 -21 -18zM43 750h111v110h-111v-110z" />
<glyph unicode="&#xb1;" horiz-adv-x="716" d="M598 653v-172h-162v-162h-172v162h-164v172h164v164h172v-164h162zM100 80v172h498v-172h-498v0z" />
<glyph unicode="&#xb2;" d="M213 350v-162h467v-188h-678v444q0 41 31 69t76 28h360v161h-467v191h574q43 0 73.5 -27.5t30.5 -66.5v-449h-467z" />
<glyph unicode="&#xb3;" d="M533 895q43 0 73.5 -27.5t30.5 -66.5v-707q0 -41 -30.5 -67.5t-73.5 -26.5h-531v190h135h289v162h-289h-135v191h135h289v162h-289h-135v190h531v0z" />
<glyph unicode="&#xb4;" horiz-adv-x="407" d="M162 1012h137l-70 -307h-137l2 2l68 305v0z" />
<glyph unicode="&#xb7;" horiz-adv-x="288" d="M0 543h172v-191h-172v191v0z" />
<glyph unicode="&#xb9;" horiz-adv-x="743" d="M79 895h431v-895h-211v705h-220v190v0z" />
<glyph unicode="&#xba;" horiz-adv-x="1011" d="M760 0h-512q-43 0 -74 26.5t-31 67.5v707q0 39 31 66.5t74 27.5h512q43 0 73.5 -27.5t30.5 -66.5v-707q0 -41 -30.5 -67.5t-73.5 -26.5zM354 190h299v515h-299v-515z" />
<glyph unicode="&#xbf;" horiz-adv-x="735" d="M129 897h213v-192h-213v192zM543 541q43 0 73.5 -28t30.5 -69v-348q0 -41 -30.5 -68.5t-73.5 -27.5h-414v190h307v160h-200q-45 0 -76 28t-31 66v166h213v-69h201z" />
<glyph unicode="&#xc0;" horiz-adv-x="1024" d="M356 213h332l70 -213h219l-293 895h-324l-294 -895h219l71 213v0zM623 403h-201l100 302l101 -302v0zM684 1165v-155l-324 67v156l324 -68v0z" />
<glyph unicode="&#xc1;" horiz-adv-x="1024" d="M758 0l-70 213h-334l-69 -213h-219l294 895h322l295 -895h-219zM522 705l-102 -302h203zM360 1165l322 68v-156l-322 -67v155z" />
<glyph unicode="&#xc2;" horiz-adv-x="991" d="M739 0l-69 213h-334l-70 -213h-219l295 895h322l294 -895h-219zM502 705l-101 -302h203zM502 1077l-191 -67v155l191 68l192 -68v-155z" />
<glyph unicode="&#xc3;" horiz-adv-x="1007" d="M741 0l-69 213h-332l-72 -213h-219l295 895h324l293 -895h-220zM506 705l-103 -302h203zM698 1233v-154l-129 -69l-129 69l-127 -69v155l127 68l129 -68z" />
<glyph unicode="&#xc4;" horiz-adv-x="1159" d="M289 213l-70 -213h-219l293 895h323l295 -895h-219l-69 213h-334zM557 403l-102 302l-101 -302h203zM252 1014v155h156v-155h-156zM504 1014v155h153v-155h-153z" />
<glyph unicode="&#xc6;" horiz-adv-x="1296" d="M1178 705h-465v-164h256v-191h-256v-160h465v-190h-674v213h-166l-72 -213h-219l295 895h162h674v-190zM504 403v302l-101 -302h101z" />
<glyph unicode="&#xc7;" horiz-adv-x="913" d="M569 592v113h-256v-515h256v113h211v-209q0 -39 -30.5 -66.5t-73.5 -27.5h-234v-29h35q16 0 26.5 -9t10.5 -23v-97q0 -14 -10 -23t-27 -9h-35h-2h-73v65h73v31h-34q-16 0 -27.5 9t-11.5 24v61h-54h-106q-43 0 -74 27.5t-31 66.5v707q0 39 31 66.5t74 27.5h469 q43 0 73.5 -27.5t30.5 -66.5v-209h-211z" />
<glyph unicode="&#xc8;" horiz-adv-x="894" d="M627 1167v-155l-322 67v156l322 -68v0zM803 707v190h-674v-897h674v190h-465v162h256v191h-256v164h465v0z" />
<glyph unicode="&#xc9;" horiz-adv-x="880" d="M289 1167l321 68v-156l-321 -67v155zM786 707h-464v-164h256v-191h-256v-162h464v-190h-673v897h673v-190z" />
<glyph unicode="&#xca;" horiz-adv-x="864" d="M770 707h-465v-164h256v-191h-256v-162h465v-190h-674v897h674v-190zM434 1079l-192 -67v153l192 70l191 -70v-153z" />
<glyph unicode="&#xcb;" horiz-adv-x="894" d="M786 707h-464v-164h256v-191h-256v-162h464v-190h-673v897h673v-190zM268 1012v155h156v-155h-156zM518 1012v155h156v-155h-156z" />
<glyph unicode="&#xcc;" horiz-adv-x="495" d="M406 1165v-155l-324 69v156l324 -70v0zM350 897v-897h-211v897h211v0z" />
<glyph unicode="&#xcd;" horiz-adv-x="495" d="M72 1165l323 70v-156l-323 -69v155zM127 897h211v-897h-211v897z" />
<glyph unicode="&#xce;" horiz-adv-x="497" d="M145 897h211v-897h-211v897zM252 1079l-193 -69v155l193 70l190 -70v-155z" />
<glyph unicode="&#xcf;" horiz-adv-x="591" d="M102 1012v155h154v-155h-154zM352 1012v155h156v-155h-156zM193 897h208v-897h-208v897z" />
<glyph unicode="&#xd0;" horiz-adv-x="1007" d="M766 897q43 0 73.5 -27.5t30.5 -68.5v-705q0 -41 -30.5 -68.5t-73.5 -27.5h-606v324h-129v190h129v383h606zM659 707h-288v-193h2h194v-190h-194h-2v-134h288v517z" />
<glyph unicode="&#xd1;" horiz-adv-x="1087" d="M940 897v-897h-184l-402 608v-608h-209v897h301l285 -430v430h209zM735 1235v-18v-138l-129 -67l-127 67l-129 -67v155l129 68l127 -68z" />
<glyph unicode="&#xd2;" horiz-adv-x="976" d="M137 94v707q0 39 31 66.5t76 27.5h512q43 0 73.5 -27.5t30.5 -66.5v-707q0 -39 -30.5 -66.5t-73.5 -27.5h-512q-45 0 -76 27.5t-31 66.5zM649 705h-301v-515h301v515zM662 1165v-155l-324 69v154z" />
<glyph unicode="&#xd3;" horiz-adv-x="974" d="M745 0h-512q-43 0 -73.5 27.5t-30.5 66.5v707q0 39 30.5 66.5t73.5 27.5h512q43 0 74 -27.5t31 -66.5v-707q0 -39 -31 -66.5t-74 -27.5zM340 190h299v515h-299v-515zM651 1233v-154l-323 -69v155z" />
<glyph unicode="&#xd4;" horiz-adv-x="1007" d="M762 0h-512q-43 0 -74 27.5t-31 68.5v705q0 41 31 68.5t74 27.5h512q43 0 73.5 -27.5t30.5 -68.5v-705q0 -41 -30.5 -68.5t-73.5 -27.5zM356 190h299v517h-299v-517zM313 1012v153l193 70l192 -70v-153l-192 67z" />
<glyph unicode="&#xd5;" horiz-adv-x="1040" d="M686 1217v-138l-129 -67l-127 67l-129 -67v153l129 70l127 -70l129 70v-18zM764 0h-512q-45 0 -76 27.5t-31 68.5v705q0 41 31 68.5t76 27.5h512q43 0 73.5 -27.5t30.5 -68.5v-705q0 -41 -30.5 -68.5t-73.5 -27.5zM356 190h301v517h-301v-517z" />
<glyph unicode="&#xd6;" horiz-adv-x="976" d="M303 1167h156v-155h-156v155zM553 1167h156v-155h-156v155zM762 0h-512q-43 0 -74 27.5t-31 66.5v707q0 39 31 66.5t74 27.5h512q43 0 73.5 -27.5t30.5 -66.5v-707q0 -39 -30.5 -66.5t-73.5 -27.5zM356 190h299v515h-299v-515z" />
<glyph unicode="&#xd7;" horiz-adv-x="659" d="M584 332l-121 -121l-117 115l-115 -115l-120 121l114 117l-114 114l120 121l115 -115l117 115l121 -121l-115 -114l115 -117v0z" />
<glyph unicode="&#xd8;" horiz-adv-x="1040" d="M778 895q45 0 76 -27.5t31 -66.5v-707q0 -39 -31 -66.5t-76 -27.5h-321l-37 -117h-156l37 117h-35q-43 0 -73.5 27.5t-30.5 66.5v707q0 39 30.5 66.5t73.5 27.5h322l37 117h155l-37 -117h35zM373 221l153 484h-153v-484zM674 190v486l-156 -486h156z" />
<glyph unicode="&#xd9;" horiz-adv-x="1024" d="M764 0h-514q-43 0 -74 27.5t-31 66.5v805h211v-709h301v709h213v-805q0 -39 -30.5 -66.5t-75.5 -27.5zM670 1169v-155l-324 67v156z" />
<glyph unicode="&#xda;" horiz-adv-x="1007" d="M748 0h-515q-43 0 -73.5 27.5t-30.5 66.5v805h211v-709h301v709h213v-805q0 -39 -30.5 -66.5t-75.5 -27.5zM653 1237v-156l-323 -67v155z" />
<glyph unicode="&#xdb;" horiz-adv-x="1007" d="M766 0h-514q-45 0 -76 27.5t-31 66.5v805h213v-709h301v709h213v-805q0 -39 -31.5 -66.5t-74.5 -27.5zM317 1014v153l191 70l192 -70v-153l-192 67z" />
<glyph unicode="&#xdc;" horiz-adv-x="960" d="M750 0h-514q-43 0 -75 27.5t-32 66.5v805h213v-709h301v709h213v-805q0 -39 -30.5 -66.5t-75.5 -27.5zM291 1169h153v-155h-153v155zM541 1169h155v-155h-155v155z" />
<glyph unicode="&#xdd;" horiz-adv-x="1071" d="M391 1165l324 70v-156l-324 -69v155zM995 895l-336 -485v-410h-210v410l-336 485h288l152 -219l152 219h290z" />
<glyph unicode="&#xe0;" horiz-adv-x="993" d="M340 213h332l69 -213h220l-293 895h-324l-295 -895h219l72 213v0zM606 403h-200l100 302l100 -302v0zM668 1165v-155l-324 67v156l324 -68v0z" />
<glyph unicode="&#xe1;" horiz-adv-x="1007" d="M741 0l-69 213h-334l-70 -213h-219l295 895h322l295 -895h-220zM506 705l-103 -302h203zM344 1165l322 68v-156l-322 -67v155z" />
<glyph unicode="&#xe2;" horiz-adv-x="1007" d="M739 0l-69 213h-334l-70 -213h-219l295 895h322l294 -895h-219zM502 705l-101 -302h203zM502 1077l-191 -67v155l191 68l192 -68v-155z" />
<glyph unicode="&#xe3;" horiz-adv-x="1007" d="M739 0l-69 213h-332l-72 -213h-219l295 895h324l292 -895h-219zM504 705l-103 -302h203zM696 1233v-154l-129 -69l-129 69l-127 -69v155l127 68l129 -68z" />
<glyph unicode="&#xe4;" horiz-adv-x="991" d="M319 213l-69 -213h-219l293 895h323l295 -895h-219l-70 213h-334zM588 403l-103 302l-100 -302h203zM283 1014v155h155v-155h-155zM535 1014v155h153v-155h-153z" />
<glyph unicode="&#xe6;" horiz-adv-x="1312" d="M1227 705h-465v-164h256v-191h-256v-160h465v-190h-674v213h-166l-72 -213h-219l295 895h162h674v-190zM553 403v302l-100 -302h100z" />
<glyph unicode="&#xe7;" horiz-adv-x="894" d="M588 592v113h-256v-515h256v113h211v-209q0 -39 -31 -66.5t-74 -27.5h-233v-29h35q16 0 26 -9t10 -23v-97q0 -14 -10 -23t-26 -9h-35h-2h-74v65h74v31h-35q-16 0 -27.5 9t-11.5 24v61h-53h-107q-43 0 -73.5 27.5t-30.5 66.5v707q0 39 30.5 66.5t73.5 27.5h469 q43 0 74 -27.5t31 -66.5v-209h-211z" />
<glyph unicode="&#xe8;" horiz-adv-x="913" d="M627 1167v-155l-322 67v156l322 -68v0zM803 707v190h-674v-897h674v190h-465v162h256v191h-256v164h465v0z" />
<glyph unicode="&#xe9;" horiz-adv-x="894" d="M289 1167l321 68v-156l-321 -67v155zM786 707h-464v-164h256v-191h-256v-162h464v-190h-673v897h673v-190z" />
<glyph unicode="&#xea;" horiz-adv-x="913" d="M803 707h-465v-164h256v-191h-256v-162h465v-190h-674v897h674v-190zM467 1079l-193 -67v153l193 70l190 -70v-153z" />
<glyph unicode="&#xeb;" horiz-adv-x="831" d="M754 707h-465v-164h256v-191h-256v-162h465v-190h-674v897h674v-190zM236 1012v155h155v-155h-155zM485 1012v155h156v-155h-156z" />
<glyph unicode="&#xec;" horiz-adv-x="542" d="M442 1165v-155l-323 69v156l323 -70v0zM387 897v-897h-211v897h211v0z" />
<glyph unicode="&#xed;" horiz-adv-x="497" d="M72 1165l323 70v-156l-323 -69v155zM127 897h211v-897h-211v897z" />
<glyph unicode="&#xee;" horiz-adv-x="446" d="M129 897h211v-897h-211v897zM236 1079l-193 -69v155l193 70l190 -70v-155z" />
<glyph unicode="&#xef;" horiz-adv-x="561" d="M86 1012v155h154v-155h-154zM336 1012v155h156v-155h-156zM176 897h209v-897h-209v897z" />
<glyph unicode="&#xf1;" horiz-adv-x="1087" d="M940 897v-897h-184l-402 608v-608h-209v897h301l285 -430v430h209zM735 1235v-18v-138l-129 -67l-127 67l-129 -67v155l129 68l127 -68z" />
<glyph unicode="&#xf2;" horiz-adv-x="868" d="M-8 94v707q0 39 30.5 66.5t75.5 27.5h512q43 0 74 -27.5t31 -66.5v-707q0 -39 -31 -66.5t-74 -27.5h-512q-45 0 -75.5 27.5t-30.5 66.5zM504 705h-301v-515h301v515zM516 1165v-155l-323 69v154z" />
<glyph unicode="&#xf3;" horiz-adv-x="868" d="M616 0h-512q-43 0 -73.5 27.5t-30.5 66.5v707q0 39 30.5 66.5t73.5 27.5h512q43 0 74 -27.5t31 -66.5v-707q0 -39 -31 -66.5t-74 -27.5zM211 190h299v515h-299v-515zM522 1233v-154l-323 -69v155z" />
<glyph unicode="&#xf4;" horiz-adv-x="868" d="M616 0h-512q-43 0 -73.5 27.5t-30.5 68.5v705q0 41 30.5 68.5t73.5 27.5h512q43 0 74 -27.5t31 -68.5v-705q0 -41 -31 -68.5t-74 -27.5zM211 190h299v517h-299v-517zM168 1012v153l192 70l193 -70v-153l-193 67z" />
<glyph unicode="&#xf5;" horiz-adv-x="868" d="M541 1217v-138l-129 -67l-127 67l-129 -67v153l129 70l127 -70l129 70v-18zM618 0h-512q-45 0 -75.5 27.5t-30.5 68.5v705q0 41 30.5 68.5t75.5 27.5h512q43 0 74 -27.5t31 -68.5v-705q0 -41 -31 -68.5t-74 -27.5zM211 190h301v517h-301v-517z" />
<glyph unicode="&#xf6;" horiz-adv-x="868" d="M158 1167h155v-155h-155v155zM408 1167h155v-155h-155v155zM616 0h-512q-43 0 -73.5 27.5t-30.5 66.5v707q0 39 30.5 66.5t73.5 27.5h512q43 0 74 -27.5t31 -66.5v-707q0 -39 -31 -66.5t-74 -27.5zM211 190h299v515h-299v-515z" />
<glyph unicode="&#xf7;" horiz-adv-x="733" d="M309 807h156v-156h-156v156zM141 362v173h498v-173h-498zM309 246h156v-156h-156v156z" />
<glyph unicode="&#xf8;" horiz-adv-x="868" d="M616 895q45 0 76 -27.5t31 -66.5v-707q0 -39 -30.5 -66.5t-76.5 -27.5h-321l-37 -117h-156l37 117h-35q-43 0 -73.5 27.5t-30.5 66.5v707q0 39 30.5 66.5t73.5 27.5h322l37 117h155l-36 -117h34zM211 221l154 484h-154v-484zM512 190v486l-156 -486h156z" />
<glyph unicode="&#xf9;" horiz-adv-x="905" d="M618 0h-514q-43 0 -73.5 27.5t-30.5 66.5v805h211v-709h301v709h213v-805q0 -39 -31 -66.5t-76 -27.5zM524 1169v-155l-323 67v156z" />
<glyph unicode="&#xfa;" horiz-adv-x="905" d="M618 0h-514q-43 0 -73.5 27.5t-30.5 66.5v805h211v-709h301v709h213v-805q0 -39 -31 -66.5t-76 -27.5zM524 1237v-156l-323 -67v155z" />
<glyph unicode="&#xfb;" horiz-adv-x="905" d="M621 0h-515q-45 0 -75.5 27.5t-30.5 66.5v805h213v-709h301v709h213v-805q0 -39 -31.5 -66.5t-74.5 -27.5zM172 1014v153l190 70l193 -70v-153l-193 67z" />
<glyph unicode="&#xfc;" horiz-adv-x="905" d="M621 0h-515q-43 0 -74.5 27.5t-31.5 66.5v805h213v-709h301v709h213v-805q0 -39 -30.5 -66.5t-75.5 -27.5zM162 1169h153v-155h-153v155zM412 1169h155v-155h-155v155z" />
<glyph unicode="&#xfd;" horiz-adv-x="1101" d="M279 1165l323 70v-156l-323 -69v155zM883 895l-336 -485v-410h-211v410l-336 485h289l151 -219l152 219h291z" />
<glyph unicode="&#xff;" horiz-adv-x="1101" d="M240 1012v155h153v-155h-153zM489 1012v155h156v-155h-156zM883 895l-336 -485v-410h-211v410l-336 485h289l153 -219l152 219h289z" />
<glyph unicode="&#x152;" horiz-adv-x="1570" d="M723 707v-164h254v-191h-254v-162h463v-190h-1080q-45 0 -75.5 27.5t-30.5 68.5v705q0 41 30.5 68.5t75.5 27.5h1080v-190h-463zM512 190v517h-301v-517h301z" />
<glyph unicode="&#x153;" horiz-adv-x="1570" d="M723 707v-164h254v-191h-254v-162h463v-190h-1080q-45 0 -75.5 27.5t-30.5 68.5v705q0 41 30.5 68.5t75.5 27.5h1080v-190h-463zM512 190v517h-301v-517h301z" />
<glyph unicode="&#x178;" horiz-adv-x="1101" d="M240 1012v155h153v-155h-153zM489 1012v155h156v-155h-156zM883 895l-336 -485v-410h-211v410l-336 485h289l153 -219l152 219h289z" />
<glyph unicode="&#x2c6;" horiz-adv-x="921" d="M526 1012l305 -467h-221l-151 233l-152 -233h-221l305 467h135v0z" />
<glyph unicode="&#x2dc;" horiz-adv-x="784" d="M647 1008l2 -25v-186l-176 -95l-176 93l-174 -93v211l174 95l176 -95l174 95v0z" />
<glyph unicode="&#x2000;" horiz-adv-x="682" />
<glyph unicode="&#x2001;" horiz-adv-x="1365" />
<glyph unicode="&#x2002;" horiz-adv-x="682" />
<glyph unicode="&#x2003;" horiz-adv-x="1365" />
<glyph unicode="&#x2004;" horiz-adv-x="455" />
<glyph unicode="&#x2005;" horiz-adv-x="341" />
<glyph unicode="&#x2006;" horiz-adv-x="227" />
<glyph unicode="&#x2007;" horiz-adv-x="227" />
<glyph unicode="&#x2008;" horiz-adv-x="170" />
<glyph unicode="&#x2009;" horiz-adv-x="273" />
<glyph unicode="&#x200a;" horiz-adv-x="75" />
<glyph unicode="&#x2010;" horiz-adv-x="751" d="M178 535h385v-173h-385v173v0z" />
<glyph unicode="&#x2011;" horiz-adv-x="751" d="M178 535h385v-173h-385v173v0z" />
<glyph unicode="&#x2012;" horiz-adv-x="751" d="M178 535h385v-173h-385v173v0z" />
<glyph unicode="&#x2013;" horiz-adv-x="944" d="M78 535h794v-173h-794v173v0z" />
<glyph unicode="&#x2014;" horiz-adv-x="1153" d="M96 535h955v-173h-955v173v0z" />
<glyph unicode="&#x2018;" horiz-adv-x="321" d="M100 936q0 33 23.5 54.5t58.5 21.5h56v-305h-138v229v0z" />
<glyph unicode="&#x2019;" horiz-adv-x="305" d="M217 782q0 -33 -23.5 -54t-58.5 -21h-55v305h137v-230v0z" />
<glyph unicode="&#x201c;" horiz-adv-x="528" d="M303 936q0 33 23.5 54.5t58.5 21.5h55v-305h-137v229zM96 936q0 33 24.5 54.5t59.5 21.5h53v-305h-137v229z" />
<glyph unicode="&#x201d;" horiz-adv-x="528" d="M240 782q0 -33 -23.5 -54t-58.5 -21h-56v305h138v-230zM446 782q0 -33 -24.5 -54t-59.5 -21h-53v305h137v-230z" />
<glyph unicode="&#x2026;" horiz-adv-x="1081" d="M139 190h172v-190h-172v190v0zM461 190h172v-190h-172v190zM782 190h172v-190h-172v190z" />
<glyph unicode="&#x202f;" horiz-adv-x="273" />
<glyph unicode="&#x205f;" horiz-adv-x="341" />
<glyph unicode="&#x20ac;" horiz-adv-x="798" d="M537 565v92h-211v-153h161v-156h-161v-110h211v92h172v-170q0 -33 -26 -55.5t-60 -22.5h-381q-37 0 -61.5 22.5t-24.5 55.5v188h-107v156h107v233q0 33 24.5 55.5t61.5 22.5h381q35 0 60.5 -22.5t25.5 -55.5v-172h-172z" />
<glyph unicode="&#x2122;" horiz-adv-x="446" d="M311 895h74v-180h-47v141l-47 -76h-31l-45 76v-141h-47v180h74l34 -47zM141 895v-39h-47v-141h-47v141h-47v39h141z" />
<glyph unicode="&#x25fc;" horiz-adv-x="890" d="M0 891h891v-891h-891v891z" />
<glyph unicode="&#xfb01;" horiz-adv-x="1071" d="M145 897h783v-897h-211v707h-363v-164h258v-191h-258v-352h-209v897v0z" />
<glyph unicode="&#xfb02;" horiz-adv-x="1392" d="M911 193h396v-193h-609v707h-362v-164h258v-191h-258v-352h-209v897h784v-704v0z" />
</font>
</defs>
</svg>
