<?xml version="1.0" standalone="no"?>
<!DOCTYPE svg PUBLIC "-//W3C//DTD SVG 1.1//EN" "http://www.w3.org/Graphics/SVG/1.1/DTD/svg11.dtd" >
<svg xmlns="http://www.w3.org/2000/svg">
<metadata></metadata>
<defs>
<font id="subtlesansregularregular" horiz-adv-x="675" >
<font-face units-per-em="2048" ascent="1638" descent="-410" />
<missing-glyph horiz-adv-x="655" />
<glyph horiz-adv-x="2048" />
<glyph horiz-adv-x="2048" />
<glyph unicode="&#xd;" horiz-adv-x="681" />
<glyph unicode=" "  horiz-adv-x="655" />
<glyph unicode="&#x09;" horiz-adv-x="655" />
<glyph unicode="&#xa0;" horiz-adv-x="655" />
<glyph unicode="&#x26;" horiz-adv-x="1085" d="M176 737h-2q-156 -133 -133 -350q12 -174 149 -289q119 -100 273 -100q27 0 39 2q176 16 291 150q8 12 12 16l110 -137l132 106l-162 201q12 61 6 125l-100 -8l-277 344l102 84q61 47 97 118q33 72 26 158q-10 127 -108.5 208t-227.5 73t-211.5 -107.5t-70.5 -228.5 q8 -96 78 -180l80 -101zM328 1028v2q-35 41 -41 86q-4 59 33.5 105.5t97.5 50.5h12q55 0 96 -37t45 -92q10 -80 -57 -129l-104 -86zM385 690l309 -385q-14 -27 -30 -47q-68 -80 -177 -90q-106 -10 -188 58.5t-92 174.5q-12 133 76 205z" />
<glyph unicode="'" horiz-adv-x="327" d="M12 1221h191l123 362h-193z" />
<glyph unicode="(" horiz-adv-x="491" d="M481 1536h-207q-92 -141 -149 -307q-84 -246 -84 -514.5t84 -515.5q59 -180 141 -301h215q-129 156 -200.5 368.5t-71.5 448t71.5 450.5t200.5 371z" />
<glyph unicode=")" horiz-adv-x="450" d="M-41 -102h215q82 121 141 301q84 248 84 516t-84 514q-57 166 -149 307h-207q129 -156 200.5 -371t71.5 -450.5t-71.5 -448t-200.5 -368.5z" />
<glyph unicode="+" d="M414 823h202v-168h-202v-202h-168v202h-201v168h201v201h168v-201z" />
<glyph unicode="-" d="M43 657h571v168h-571v-168z" />
<glyph unicode="." horiz-adv-x="81" d="M96 49q0 20 -14 34.5t-35 14.5q-23 0 -38 -14t-15 -35q0 -23 15.5 -39t37.5 -16q20 0 34.5 16t14.5 39z" />
<glyph unicode="0" horiz-adv-x="1003" d="M512 0q94 0 180 70q74 61 125 159q104 203 105 494q0 281 -105 483q-51 98 -125 160q-82 68 -180 68t-180 -68q-74 -61 -125 -160q-104 -203 -105 -483q0 -291 105 -494q51 -98 125 -159q86 -70 180 -70zM512 1266q86 0 156 -138q86 -162 86 -405q0 -254 -86 -416 q-72 -139 -156 -139t-156 139q-86 162 -86 416q0 244 86 405q70 138 156 138z" />
<glyph unicode="1" horiz-adv-x="552" d="M236 0h167v1434h-92l-272 -277l121 -119l76 78v-1116z" />
<glyph unicode="2" horiz-adv-x="1085" d="M-61 0h962v168h-500q139 133 234 250q123 152 201 317q84 180 67 295q0 168 -121 285q-123 119 -288.5 119t-284.5 -119t-119 -291h168q0 100 68.5 171t167.5 71q100 0 171.5 -71t71.5 -169v-10q0 -23 -1 -43.5t-31.5 -113.5t-87 -184t-185.5 -235.5t-309 -289.5z" />
<glyph unicode="3" horiz-adv-x="1044" d="M299 401h-168q0 -170 117 -282q115 -119 280 -119q164 0 287 119q119 115 119 282q8 43 -25 131q-37 92 -108 177q59 63 92 145t37 117t4 61q0 170 -119 285q-121 117 -287 117t-280 -115q-117 -117 -117 -283h168q0 96 66.5 164t162.5 68q98 0 168 -70t70 -166 q0 -43 -18 -90q-33 -100 -123 -168l-88 -65l88 -72q59 -49 95 -108.5t42 -86t6 -39.5q0 -96 -69.5 -164.5t-168.5 -68.5q-96 0 -163.5 66.5t-67.5 164.5z" />
<glyph unicode="4" horiz-adv-x="1085" d="M915 391h-86v-391h-167v391h-601l463 801v-338l-172 -295h310v875h167v-875h86v-168z" />
<glyph unicode="5" horiz-adv-x="1064" d="M281 399h-168q0 -168 114 -282q117 -117 283 -117q168 0 285 117q121 117 120 280q0 74 -18 135q-47 150 -178 250h-2q-4 4 -19.5 13.5t-51.5 25t-75 23.5q-102 25 -206 0l43 422h348v168h-500l-88 -871l139 78q78 43 155 44t109.5 -12.5t46.5 -25.5q59 -45 91 -104.5 t36.5 -91t2.5 -43.5v-7q0 -96 -70 -164.5t-168 -68.5q-96 0 -162.5 66.5t-66.5 164.5z" />
<glyph unicode="6" horiz-adv-x="1021" d="M844 1434h-242q-152 -154 -264 -314q-121 -178 -188 -358q-68 -188 -68 -350q0 -170 121 -291q117 -121 291 -121q170 0 294 121q121 119 125 293q0 244 -204 397l-101 -133q137 -104 137 -256v-6q0 -102 -73.5 -175t-177.5 -73q-102 0 -173 71.5t-71 174.5v6 q0 131 61 295q144 375 533 719z" />
<glyph unicode="7" horiz-adv-x="1126" d="M1071 1434l-387 -658h90v-168h-188l-359 -608h-196l358 608h-104v168h202l289 490h-608v168h903z" />
<glyph unicode="8" horiz-adv-x="1187" d="M551 0h29q178 0 313 119q133 121 133 295q8 53 -20 141q-31 102 -117 190q145 137 137 275q0 174 -133 295q-135 119 -313 119h-29q-182 0 -313.5 -119t-135.5 -295q-8 -139 138 -279q-82 -84 -115 -188q-23 -63 -23 -141q4 -174 135.5 -293t313.5 -119zM270 416v6 q0 147 150 252l98 69l-98 70q-98 68 -133 141q-16 31 -17 54v8q0 102 82 176t199 74h29q115 0 197.5 -74t82.5 -176v-6q0 -20 -16 -54q-37 -72 -135 -139l-99 -69l99 -70q152 -104 151 -256v-6q0 -102 -83 -175t-197 -73h-29q-117 0 -199 73t-82 175z" />
<glyph unicode="9" horiz-adv-x="1064" d="M561 793v-168q-199 0 -309 116q-74 76 -98 193q-10 49 -11 98q0 166 119 285q113 117 285 117q168 0 289 -117q121 -121 120 -287q12 -166 -90 -393q-90 -197 -248 -369q-125 -137 -311 -268h-315q512 254 717 696q82 176 82 326l-3 4v2q0 98 -70.5 168t-170.5 70 q-98 0 -167 -68t-69 -168v-4q0 -104 64 -170q63 -63 186 -63z" />
<glyph unicode="a" horiz-adv-x="1071" d="M811 0l-96 377h-348l-99 -377h-178l383 1434h133l379 -1434h-174zM410 545h262l-131 508z" />
<glyph unicode="b" horiz-adv-x="1003" d="M82 0h410q168 0 284.5 116.5t116.5 284.5q0 162 -117 279q-12 12 -37 33q14 8 39 32q115 115 115 283t-117 285q-117 121 -284 121h-410v-1434zM492 168h-242v1098h242q96 0 165.5 -70t69.5 -168q0 -94 -63.5 -160.5t-155.5 -70.5h-199l103 -168h94q94 -6 156.5 -70.5 t62.5 -157.5q0 -96 -68.5 -164.5t-164.5 -68.5z" />
<glyph unicode="c" horiz-adv-x="1024" d="M500 0h75q133 0 246 76q111 78 158 194l-156 64q-31 -76 -98.5 -121t-149.5 -45h-75q-113 0 -193 79t-80 191v559q0 111 80 190t193 79h75q84 0 152 -46t98 -124l156 63q-47 121 -158 197q-113 78 -248 78h-75q-182 0 -311.5 -128t-129.5 -309v-559q0 -180 129.5 -309 t311.5 -129z" />
<glyph unicode="d" horiz-adv-x="1024" d="M123 1434h399q166 0 283 -117t117 -283v-635q0 -166 -117 -282.5t-283 -116.5h-399v1434zM754 399v635q0 96 -68 164t-164 68h-231v-1098h231q96 0 164 67.5t68 163.5z" />
<glyph unicode="e" horiz-adv-x="962" d="M881 1266h-611v-469h389v-168h-389v-461h611v-168h-779v1434h779v-168z" />
<glyph unicode="f" horiz-adv-x="962" d="M881 1266h-617v-469h389v-168h-389v-629h-168v1434h785v-168z" />
<glyph unicode="g" horiz-adv-x="1085" d="M498 0h75q180 0 310 129q127 127 127 309v359h-402v-168h234v-191q0 -113 -79 -191.5t-190 -78.5h-75q-111 0 -190 79t-79 191v559q0 111 79 190t190 79h75q111 0 190 -79t79 -190v-36h168v36q0 180 -127 308q-129 129 -310 129h-75q-180 0 -310 -129 q-127 -127 -127 -308v-559q0 -182 127 -309q130 -129 310 -129z" />
<glyph unicode="h" horiz-adv-x="1144" d="M840 1434h168v-1434h-168v629h-529v-629h-168v1434h168v-637h529v637z" />
<glyph unicode="i" horiz-adv-x="409" d="M100 0h168v1434h-168v-1434z" />
<glyph unicode="j" horiz-adv-x="1105" d="M229 449h-168q0 -186 131.5 -317.5t317.5 -131.5q184 0 315 131t131 318v985h-168v-985q0 -117 -81.5 -199t-196.5 -82q-117 0 -199 83t-82 198z" />
<glyph unicode="k" horiz-adv-x="1146" d="M1024 1434l-598 -600l571 -834h-202l-490 713l-35 -35v-678h-168v1434h168v-519l518 519h236z" />
<glyph unicode="l" horiz-adv-x="819" d="M143 0h564v168h-396v1266h-168v-1434z" />
<glyph unicode="m" horiz-adv-x="1269" d="M985 0h168v1434h-111l-415 -676l-422 676h-113v-1434h168v1024l367 -586l358 586v-1024z" />
<glyph unicode="n" horiz-adv-x="1146" d="M860 0h131v1434h-168v-1028l-581 1028h-119v-1434h168v1006z" />
<glyph unicode="o" horiz-adv-x="1064" d="M496 0h75q180 0 307.5 127t127.5 307v565q0 180 -127 307.5t-308 127.5h-75q-180 0 -307.5 -127t-127.5 -308v-565q0 -180 127.5 -307t307.5 -127zM229 434v565q0 111 78 189t189 78h75q111 0 189 -78t78 -189v-565q0 -111 -78 -188.5t-189 -77.5h-75q-111 0 -189 77.5 t-78 188.5z" />
<glyph unicode="p" horiz-adv-x="983" d="M82 0h168v1266h260q111 0 181.5 -62.5t70.5 -161.5q0 -102 -73 -173.5t-177 -71.5h-201l90 -168h111q172 0 295 118.5t123 294.5q0 172 -127 287q-117 104 -293 105h-428v-1434z" />
<glyph unicode="q" horiz-adv-x="1105" d="M1096 0h-238l-57 57q-98 -57 -215 -57h-76q-180 0 -307 127t-127 307v565q0 180 127 307.5t307 127.5h76q180 0 307 -127t127 -308v-565q0 -147 -92 -266zM510 168h76q41 0 90 14l-160 160h238l55 -55q43 70 43 147v565q0 111 -78 189t-188 78h-76q-111 0 -188.5 -78 t-77.5 -189v-565q0 -111 77.5 -188.5t188.5 -77.5z" />
<glyph unicode="r" horiz-adv-x="1064" d="M328 793l438 -793h192l-348 629q145 16 242 119q109 119 109 292q0 178 -130 289q-121 104 -296 105h-433v-1434h168v1266h265q104 0 181 -58.5t77 -167.5q0 -111 -63.5 -179t-166.5 -68h-235z" />
<glyph unicode="s" horiz-adv-x="1013" d="M231 406h-168q0 -170 132 -291q127 -115 309 -115t311 117q68 59 98 129q37 74 37 155q6 92 -43 181q-47 78 -135 133q-104 63 -260 92q-184 35 -250 137q-31 47 -31 96v4q0 100 82 170t199 70q113 0 191.5 -68.5t78.5 -168.5h168q0 170 -131 290q-127 115 -307 115 q-184 0 -313 -117q-61 -55 -98.5 -128.5t-37.5 -159.5q0 -94 50 -179q47 -80 129 -135q96 -66 239 -90q209 -37 277 -139q27 -41 26 -84l-2 -4v-8q0 -100 -82 -170t-196.5 -70t-193.5 69t-79 169z" />
<glyph unicode="t" horiz-adv-x="888" d="M868 1434v-168h-342v-1266h-168v1266h-342v168h852z" />
<glyph unicode="u" horiz-adv-x="1085" d="M80 1434v-981q0 -190 133 -320q129 -133 319 -133q188 0 318 133q133 129 133 320v981h-168v-981q0 -119 -83 -202t-200 -83q-119 0 -201.5 83t-82.5 202v981h-168z" />
<glyph unicode="v" horiz-adv-x="880" d="M381 0h70l362 1434h-174l-223 -877l-217 877h-174z" />
<glyph unicode="w" horiz-adv-x="1228" d="M743 0h74l357 1434h-179l-215 -873l-112 463h-140l-112 -463l-213 873h-174l348 -1434h76l145 600z" />
<glyph unicode="x" horiz-adv-x="1126" d="M856 1434h197l-408 -689l442 -745h-196l-342 582l-342 -582h-197l441 745l-406 689h199l305 -523z" />
<glyph unicode="y" horiz-adv-x="1105" d="M872 1434h197l-442 -738v-696h-168v696l-436 738h194l324 -549z" />
<glyph unicode="z" horiz-adv-x="983" d="M82 0h819v168h-559l576 1266h-820v-168h559z" />
<glyph unicode="&#xad;" d="M43 657h571v168h-571v-168z" />
<glyph unicode="&#xb4;" horiz-adv-x="245" d="M-29 1221h191l123 362h-193z" />
<glyph unicode="&#xe5;" horiz-adv-x="1132" d="M536.5 1477q-71.5 0 -123 51t-51.5 122.5t51.5 123t123 51.5t123 -51.5t51.5 -123t-51.5 -122.5t-123 -51zM536.5 1698q-20.5 0 -34 -13.5t-13.5 -34t13.5 -33.5t34 -13t34 13t13.5 33.5t-13.5 34t-34 13.5zM809 0l-96 377h-348l-99 -377h-178l383 1434h133l379 -1434 h-174zM408 545h262l-131 508z" />
<glyph unicode="&#xe6;" horiz-adv-x="1310" d="M1147 1266h-207v-664h207v-168h-207v-266h207v-168h-375v434h-356l-256 -434h-197l846 1434h338v-168zM514 602h258v438z" />
<glyph unicode="&#xf8;" horiz-adv-x="1064" d="M1077 1434l-135 -228q53 -94 53 -207v-565q0 -180 -127 -307t-307 -127h-74q-123 0 -225 63l-37 -63h-196l106 178q-84 113 -84 256v565q0 180 128 307.5t308 127.5h74q145 0 266 -91l54 91h196zM219 999v-565q0 -41 14 -88l506 850q-76 70 -178 70h-74 q-111 0 -189.5 -78t-78.5 -189zM827 434v565v13l-479 -805q66 -39 139 -39h74q111 0 188.5 77.5t77.5 188.5z" />
<glyph unicode="&#x2000;" horiz-adv-x="912" />
<glyph unicode="&#x2001;" horiz-adv-x="1825" />
<glyph unicode="&#x2002;" horiz-adv-x="912" />
<glyph unicode="&#x2003;" horiz-adv-x="1825" />
<glyph unicode="&#x2004;" horiz-adv-x="608" />
<glyph unicode="&#x2005;" horiz-adv-x="456" />
<glyph unicode="&#x2006;" horiz-adv-x="304" />
<glyph unicode="&#x2007;" horiz-adv-x="304" />
<glyph unicode="&#x2008;" horiz-adv-x="228" />
<glyph unicode="&#x2009;" horiz-adv-x="365" />
<glyph unicode="&#x200a;" horiz-adv-x="101" />
<glyph unicode="&#x2010;" d="M43 657h571v168h-571v-168z" />
<glyph unicode="&#x2011;" d="M43 657h571v168h-571v-168z" />
<glyph unicode="&#x2012;" d="M43 657h571v168h-571v-168z" />
<glyph unicode="&#x2013;" horiz-adv-x="1128" d="M43 657h1024v168h-1024v-168z" />
<glyph unicode="&#x2014;" horiz-adv-x="2152" d="M43 657h2048v168h-2048v-168z" />
<glyph unicode="&#x202f;" horiz-adv-x="365" />
<glyph unicode="&#x205f;" horiz-adv-x="456" />
<glyph unicode="&#x25fc;" horiz-adv-x="1433" d="M0 1434h1434v-1434h-1434v1434z" />
</font>
</defs>
</svg>
