<?xml version="1.0" standalone="no"?>
<!DOCTYPE svg PUBLIC "-//W3C//DTD SVG 1.1//EN" "http://www.w3.org/Graphics/SVG/1.1/DTD/svg11.dtd" >
<svg xmlns="http://www.w3.org/2000/svg">
<metadata></metadata>
<defs>
<font id="ventilla_scriptregular" horiz-adv-x="927" >
<font-face units-per-em="2048" ascent="1536" descent="-512" />
<missing-glyph horiz-adv-x="204" />
<glyph horiz-adv-x="2048" />
<glyph horiz-adv-x="2048" />
<glyph unicode="&#xd;" horiz-adv-x="2048" />
<glyph unicode=" "  horiz-adv-x="204" />
<glyph unicode="&#x09;" horiz-adv-x="204" />
<glyph unicode="&#xa0;" horiz-adv-x="204" />
<glyph unicode="!" horiz-adv-x="786" d="M121 -41q-6 2 -6 6q0 8 40 74.5t101 162t135 207t139.5 210t115.5 170t67 88.5l2 2q6 6 14 6q20 0 30.5 -14.5t10.5 -30.5l-2 -4q-47 -72 -111.5 -166.5t-135 -191.5t-139.5 -190t-124 -167t-89 -118l-34 -44l-2 -2h-4q-4 0 -8 2zM12 -152q2 16 17.5 32t33.5 26 q23 12 48 24l10 -6q8 -4 6 -4q0 -2 2 -2q0 -4 -8 -20.5t-18.5 -35t-19.5 -33.5t-13 -17q-2 0 -11.5 5t-19.5 11t-18.5 12t-8.5 8z" />
<glyph unicode="&#x26;" horiz-adv-x="421" d="M53 -215q12 47 35 114.5t45 127.5q-41 10 -75.5 41.5t-34.5 76.5q0 41 28.5 64.5t46.5 32.5q-8 4 -16 17t-8 30q0 35 24.5 52t55 25.5t59.5 9.5t39 1q16 47 31.5 95t30 86t25.5 62.5t19 24.5q8 -4 9 -10v-2q-8 -27 -19.5 -59.5t-26 -66.5t-27.5 -67.5t-26 -62.5h19 q12 0 29.5 -2t34 -9.5t27.5 -20.5t11 -36q0 -27 -11 -40t-18 -17h-2q-2 -2 -6 -2q-12 0 -22 22q-10 23 -33 28t-52.5 6t-48 0t-34 -3t-26.5 -6t-11 -10t7 -14.5t18 -14.5q49 12 84.5 14t50.5 2q16 0 16 -32q0 -27 -12 -35h-2q-18 -4 -51 -8t-65 -11.5t-55.5 -17.5t-23.5 -25 q0 -16 17.5 -36.5t44.5 -28.5q12 39 16 48t8 9l2 -2q0 -2 2 -2q-4 -12 -16 -55q2 -2 10 -2q55 0 95 15t69 42q18 18 26.5 30.5t10.5 21t3 12.5t7 4q10 0 14 -4l2 -2q0 -10 -11 -38t-37.5 -58.5t-69.5 -54.5t-107 -24q-18 0 -28 3q-14 -47 -26.5 -92.5t-24 -80t-19.5 -57 t-14 -22.5q-12 0 -13 12v2z" />
<glyph unicode="+" horiz-adv-x="454" d="M188 25q-2 4 -2 17v32q0 29 1 64.5t3 74.5q-104 14 -139 22.5t-35 18.5q0 12 48.5 14t128.5 4q2 86 4 129t30 43q16 0 28.5 -2t14.5 -6v-2q0 -10 1 -18t1 -19q0 -29 -3 -60.5t-9 -64.5q39 0 76 1t59 1q25 0 34 -6t9 -30q0 -27 -8 -35h-2q-14 -2 -30.5 -3t-32.5 -1 q-27 0 -56.5 2t-58.5 6q-18 -102 -30.5 -143t-16.5 -41h-13q-2 0 -2 2z" />
<glyph unicode="," horiz-adv-x="147" d="M98 16l4 2q2 0 2 -2v-6q-25 -59 -70.5 -109.5t-88.5 -95.5l-6 7l17 30q17 31 36.5 67t38 70.5t18.5 38.5h-2h29q22 0 22 -2z" />
<glyph unicode="-" horiz-adv-x="464" d="M430 270q8 -2 8 -32q0 -27 -12 -34t-29 -7q-53 0 -117.5 7t-123 15t-97.5 15.5t-39 9.5l-2 -2v12q0 6 30 10t76 6t101.5 2h108.5h60.5t35.5 -2z" />
<glyph unicode="." horiz-adv-x="387" d="M231 6q-4 -16 -16 -27.5t-27 -15.5q-16 -8 -36 -8l-11 6l-8 8q0 4 6 16.5t13.5 26t14.5 24.5t11 13q2 0 10.5 -5t17.5 -12t17 -14.5t8 -9.5v-2z" />
<glyph unicode="/" horiz-adv-x="686" d="M20 -41q-6 2 -6 6q0 8 40 74.5t101.5 162t135.5 207t139.5 210t115.5 170t66 88.5l2 2q6 6 15 6q20 0 30.5 -14.5t10.5 -30.5l-2 -4q-47 -72 -111.5 -166.5t-135.5 -191.5t-139.5 -190t-124 -167t-89.5 -118l-33 -44l-2 -2h-4q-5 0 -9 2z" />
<glyph unicode="0" horiz-adv-x="520" d="M174 -178q-53 6 -80.5 43t-42 86t-16.5 103.5t-2 95.5q0 98 16.5 206.5t51 199.5t89 151.5t127.5 60.5q27 0 55.5 -18.5t53.5 -56.5t40 -95t15 -133q0 -84 -25.5 -194.5t-67.5 -211t-97 -169t-115 -68.5h-2zM119 401q-12 -102 -13 -206q0 -84 7.5 -142.5t18.5 -93.5 t24.5 -50t25.5 -15l2 -3v-2q6 0 23.5 14.5t34.5 43.5q39 59 72.5 128.5t60 143.5t42 149.5t15.5 149.5q0 20 -1 44t-5 46.5t-10 42t-17 29.5q0 -4 -4 -4h-2q-4 0 -10 8t-17.5 19.5t-25.5 19.5t-35 8q-35 0 -64.5 -30.5t-54 -79t-42 -107t-25.5 -113.5z" />
<glyph unicode="1" horiz-adv-x="258" d="M246 745q-2 -10 -6 -18l-9 -18q-14 -92 -33.5 -194.5t-41 -203t-41 -191.5t-36 -162t-26.5 -112l-10 -41q-12 0 -12 13q0 29 9 112.5t23.5 193t33 227.5t34.5 214q-29 -29 -54.5 -41t-35.5 -12q-4 0 -4 12q0 8 20.5 36t46 63.5t46 71.5t20.5 61l2 2q0 4 6 10q2 4 6 6v2h2 l10 -3q11 -3 21 -7t19.5 -9t9.5 -9v-3v0z" />
<glyph unicode="2" horiz-adv-x="501" d="M461 670q14 -51 14 -86q0 -59 -13 -106.5t-44 -94.5q-45 -70 -104.5 -133.5t-113 -122.5t-90 -115.5t-36.5 -109.5q23 39 62.5 69.5t92.5 30.5q41 0 68 -20q31 -29 48 -57.5t26.5 -51.5t12.5 -36l3 -13q0 2 -2 -4t-12 -6q-2 0 -13.5 19.5t-30 44t-42 44t-47.5 19.5 q-25 0 -52.5 -20.5t-44.5 -45.5q-16 -23 -20 -37t-9 -21t-15.5 -10.5t-41.5 -3.5q-16 0 -16 86q0 63 26.5 124t66.5 118t87 113.5t87 111t66.5 107.5t26.5 106q0 59 -20.5 94t-73.5 35q-35 0 -76 -20q-49 -25 -69.5 -52.5t-27.5 -50t-9 -37t-14 -14.5q-12 2 -13 8v7 q0 14 9.5 50t34 73.5t67.5 68.5t108 35q18 0 40 -7t43.5 -19.5t38 -31t22.5 -38.5z" />
<glyph unicode="3" horiz-adv-x="518" d="M82 -162q-23 18 -34 35.5t-15 32t-5 22.5l-1 9q0 2 1 5t11 3q6 0 10 -13.5t13.5 -31t28 -30.5t50.5 -13q41 0 85 27.5t81 70.5t60.5 95t23.5 104q0 68 -27.5 105.5t-65.5 56t-79 22.5t-67 4h-2q-18 4 -23 33q0 31 18 35l5 2q14 0 30.5 1t34.5 1q14 6 40 21.5t50.5 38 t43 52t18.5 66.5q0 55 -19.5 76.5t-44.5 21.5t-51.5 -12t-50 -25.5t-40 -25t-20.5 -11.5h-2q6 -2 1 -1t-15 6.5t-19.5 14.5t-9.5 23q0 6 4 11l2 2q14 12 35 27.5t45.5 30.5t53 25.5t59.5 10.5q35 0 60.5 -14.5t41 -37t22.5 -49t7 -53.5q0 -45 -16.5 -79.5t-40 -59t-49 -41 t-44.5 -24.5q37 -14 70 -35t58.5 -50.5t41 -67.5t15.5 -89q0 -72 -31 -135.5t-77 -110.5t-100 -74.5t-103 -27.5q-41 0 -68 20z" />
<glyph unicode="4" horiz-adv-x="534" d="M281 -188q0 4 -1 7t-1 7q0 33 8 102.5t20 159.5q-37 -4 -74.5 -7t-71.5 -5t-60.5 -3t-41.5 -1q-14 0 -30.5 11t-14.5 21h-2l2 5q33 76 91.5 173t120 189t114.5 168t78 109q0 2 1 4t1 4v2q4 14 24 14q16 0 28.5 -8t14.5 -19v-2q-10 -59 -23 -131.5t-28.5 -152.5t-33 -161 t-33.5 -155q49 -2 76.5 -4t42 -4t18.5 -5t4 -9q0 -14 -40 -17.5t-112 -9.5q-31 -152 -44 -220.5t-23 -68.5q-6 0 -8 2q-2 3 -2 5zM117 150h99t99 -3q8 68 19.5 137.5t22 137t20.5 127t20 106.5q-29 -53 -66.5 -120.5t-76.5 -138t-74.5 -135t-62.5 -111.5z" />
<glyph unicode="5" horiz-adv-x="505" d="M457 244q6 -35 6 -70q0 -55 -17.5 -119.5t-51.5 -119t-84 -91.5t-115 -37q-47 0 -78 19.5t-49.5 48.5t-26.5 64.5t-8 66.5q0 104 21.5 158.5t23.5 54.5h2l4 2q8 0 11 -5t3 -7q0 -4 -15 -46t-15 -112q0 -29 3 -61.5t14 -60t32.5 -47t56.5 -21.5q47 0 87 25.5t68.5 68.5 t45 98.5t16.5 114.5q0 37 -5 71.5t-16.5 62.5t-28.5 44t-42 16q-31 0 -53.5 -10t-39 -22.5t-26.5 -24.5t-16 -18v-2q-6 -10 -23 -11q-16 0 -27.5 9.5t-11.5 23.5q0 41 9.5 99.5t22.5 119t26.5 111.5t21.5 80q-4 6 -4 13v11q0 10 2 13h2q23 10 54.5 13t66.5 3q98 0 125 -6 t27 -23q0 -4 -30 -11t-70 -15t-81 -16.5t-65 -10.5q-4 -51 -9 -133t-12 -152q47 33 121 33q37 0 63.5 -19.5t44 -48t27 -62t13.5 -62.5z" />
<glyph unicode="6" horiz-adv-x="489" d="M397 750q-14 -8 -42.5 -37t-64.5 -78t-74 -116.5t-69 -156.5q20 16 52 33t73 17q53 0 87 -31t53.5 -74t26.5 -88t7 -72q0 -88 -31.5 -151.5t-75.5 -103t-90 -59t-73 -19.5q-49 0 -77.5 24.5t-44 58t-19.5 70.5t-6 64q0 168 50 305t112.5 232.5t120 147.5t71.5 52 q-4 0 6 0t10 -12q0 -2 -2 -4v-2zM166 334q-25 -18 -38 -50t-19.5 -69t-8.5 -75t-2 -68q0 -35 4 -69t13.5 -59.5t25 -41t35.5 -15.5q31 0 67 22.5t66.5 60.5t50 87t19.5 101q0 35 -6 71.5t-19.5 67.5t-37 50.5t-58.5 19.5q-29 0 -52.5 -9.5t-39.5 -23.5z" />
<glyph unicode="7" horiz-adv-x="493" d="M469 770q4 -20 4 -27q0 -6 -2 -6l-2 -2q-18 -59 -44 -131t-55.5 -148.5t-60 -155.5t-61.5 -150q119 -4 163 -11.5t44 -23.5q0 -4 -21.5 -7.5t-55.5 -8.5t-76 -9t-81 -8q-59 -141 -82.5 -202.5t-27.5 -61.5q-10 0 -11.5 3t-1.5 5q0 20 20.5 89t49.5 163q-18 -2 -34.5 -3 t-29.5 -1q-29 0 -37 4t-8 33q4 33 9 34h2q25 4 56.5 5.5t66.5 1.5q25 74 50 152.5t50.5 152t48.5 137t39 106.5q-55 -18 -116.5 -31.5t-114 -23.5t-86.5 -15l-35 -5q-4 0 -5 7t-1 11q0 2 28.5 13.5t72.5 28.5t96 35.5t99.5 36t82 29t44.5 13.5h3q10 0 20 -29z" />
<glyph unicode="8" horiz-adv-x="509" d="M385 365q51 -31 70.5 -93.5t19.5 -124.5q0 -68 -11 -137t-46 -125q-16 -27 -38 -42t-46.5 -22t-48 -9t-41.5 -2q-61 0 -101.5 29.5t-64 72.5t-32.5 93t-9 91q0 74 13 124t36 84t53.5 53.5t65.5 31.5q-59 8 -94 53t-35 107q0 43 10 83t30.5 72.5t53.5 52t80 19.5 q51 0 86 -16.5t56.5 -42t30.5 -58t9 -65.5q0 -47 -11 -83t-29.5 -61.5t-41 -39t-43.5 -13.5q37 -5 78 -32zM137 512q2 -41 21.5 -60.5t42 -28.5t41 -10t18.5 -3q10 4 29.5 12t38 23.5t33 42t14.5 69.5q0 78 -30 111.5t-71 33.5q-33 0 -50 -4t-19 -8h-2q-4 0 -4 2 q-31 -20 -46.5 -73.5t-15.5 -106.5zM326 -102q20 14 36.5 44.5t27.5 69.5t17.5 82t6.5 84q0 61 -17.5 99t-43 59.5t-54.5 30t-49 8.5q-23 -8 -50.5 -21.5t-50 -38t-38 -64.5t-15.5 -99q0 -123 39 -196t113 -73h16t12 4h3q2 -2 6 -2q29 5 41 13z" />
<glyph unicode="9" horiz-adv-x="487" d="M412 733q29 -59 35 -128.5t6 -135.5q0 -59 -6.5 -134t-20.5 -152t-41 -150.5t-66 -130.5q-20 -29 -48.5 -58.5t-69.5 -29.5q-47 0 -78 29.5t-48.5 69.5t-24.5 79t-7 57q0 61 17.5 92t15.5 29l2 2l4 2q8 0 10 -4t2 -6q0 -4 -10 -27.5t-10 -64.5q0 -23 8 -59t23.5 -69.5 t38 -58t51.5 -24.5q20 0 36 16q39 39 65 94.5t41 120t24.5 133t13.5 129.5q-10 -14 -25.5 -31.5t-37 -34t-48 -27.5t-57.5 -11q-53 0 -85 28.5t-48.5 66.5t-21.5 77t-5 61q0 76 25.5 132.5t63.5 95.5t83 58t82 19q18 0 25 -2h2q0 -2 2 -2q25 0 48.5 -15.5t33.5 -35.5z M379 412q0 88 -7 164.5t-24 119.5q-8 18 -20.5 17.5t-30.5 3.5h-4q-33 -4 -65.5 -23.5t-58.5 -52.5t-41 -77t-15 -97q0 -63 24.5 -115.5t77.5 -52.5q33 0 59.5 13.5t48 31.5t36 38t20.5 30z" />
<glyph unicode="=" horiz-adv-x="634" d="M504 270q8 -4 8 -32q0 -27 -12.5 -34t-28.5 -7q-53 0 -117.5 7t-123 15t-97.5 15.5t-39 9.5q-2 -2 -2 0v10q0 6 30 10t76 6t101 2h109h60.5t35.5 -2zM504 76q8 -4 8 -33q0 -27 -12.5 -34t-28.5 -7q-53 0 -117.5 7t-123 15.5t-97.5 15.5t-39 9q-2 -2 -2 0v10q0 6 30 10.5 t76 6.5t101 2h109h60.5t35.5 -2z" />
<glyph unicode="?" horiz-adv-x="708" d="M23 -152q4 29 36.5 48.5t61.5 33.5h2q16 -4 16 -12q0 -4 -7 -20.5t-17.5 -35t-20.5 -33.5t-14 -17zM115 451q-23 6 -30 23.5t-7 29.5q0 49 32.5 94t82 83t104.5 67.5t100 50.5q51 23 108.5 45t117.5 22q33 0 52 -25.5t19 -54.5q-4 -25 -27.5 -68.5t-59.5 -98t-79 -115 t-84 -117.5q-82 -115 -140 -195.5t-95 -131t-54.5 -73t-13.5 -22.5q-12 0 -12 12t42 81t109.5 173.5t152.5 233.5t171 262q10 16 14.5 30.5t8.5 28.5q0 12 -4 13q-23 0 -59 -12.5t-66 -24.5q-61 -25 -118.5 -54.5t-104 -61.5t-78 -64.5t-43.5 -63.5q14 0 26.5 3t22.5 5l2 2 q14 0 29.5 -6t15.5 -18t-8.5 -24.5t-18.5 -16.5l-6 -2q-14 -4 -32.5 -10.5t-39.5 -6.5q-12 1 -30 7z" />
<glyph unicode="@" horiz-adv-x="1130" d="M868 211q33 -14 42.5 -42t9.5 -54q0 -55 -35 -105.5t-88.5 -88.5t-121 -60.5t-130.5 -22.5q-59 0 -115.5 17.5t-101.5 55.5t-72 96.5t-27 139.5q0 92 37 170t97.5 134.5t135 88t150.5 31.5q86 0 137.5 -31.5t80 -75.5t37.5 -90t9 -75v-2q-4 -18 -13 -31.5t-21 -13.5 q-16 0 -28.5 12t-12.5 33v2q0 31 -10.5 62.5t-31 58t-54 44t-78.5 17.5q-47 0 -97 -6q-51 -12 -98 -44t-83 -77t-57.5 -98t-21.5 -106q0 -123 66.5 -186.5t183.5 -63.5q57 0 114.5 19.5t103.5 50t75 70.5t29 81q0 16 -9.5 34.5t-27.5 18.5q-20 0 -25.5 -3t-13.5 -13.5 t-26.5 -31t-65.5 -52.5q-6 -4 -17.5 -13.5t-26 -18.5t-27.5 -16.5t-24 -7.5q-16 0 -26 9.5t-14.5 19.5t-5.5 21l-1 10q4 4 4 8v2q-12 -20 -40.5 -33.5t-79.5 -36.5q-35 23 -48.5 41.5t-13.5 57.5q0 41 23.5 92t62.5 95t87 74t95 30q23 0 43.5 -8.5t34.5 -26.5 q20 0 35.5 -12.5t15.5 -22.5q-14 -27 -38.5 -60.5t-50 -68.5t-46 -72t-28.5 -69l2 2q2 0 2 1t2 1q-2 0 -2 -2q4 0 32.5 13t75.5 64q12 12 39 40t68 28q18 0 24 -4zM569 125q6 6 12.5 8t12.5 6q23 53 49.5 96.5t48.5 75.5q0 2 1 4t1 4q0 23 -35 23q-29 0 -66.5 -22.5 t-71.5 -58.5t-58.5 -79t-24.5 -84q0 -10 4 -23.5t13 -13.5q29 0 62.5 23t51.5 41zM616 63v3v-3z" />
<glyph unicode="A" d="M680 123q-78 -55 -182.5 -129t-229.5 -139q-49 -27 -99 -52.5t-124 -35.5q-41 4 -62.5 31.5t-21.5 66.5q0 45 18.5 94t47 96t62.5 91t65 79q80 92 168 179.5t181 161t190.5 131t197.5 91.5q25 8 67 9q70 0 102 -39t32 -90t-25 -98.5t-55.5 -85.5t-59 -63.5t-37.5 -33.5 l-2 -2q29 -23 29 -43q0 -2 -1 -3t-1 -3h-2q-23 -23 -57.5 -55.5t-67.5 -68.5t-55.5 -73t-22.5 -67q0 -12 6.5 -29.5t22.5 -17.5q20 0 49 18q70 37 94.5 66.5t28.5 29.5t10 -4t6 -8q0 -2 -15 -25.5t-43 -52.5t-63.5 -52.5t-74.5 -23.5q-27 0 -42.5 13.5t-24.5 33t-12 42 t-3 38.5q4 17 6 23zM106 -168q92 37 179.5 83t165 93t141 90t108.5 76q37 72 87.5 118t74.5 70q-23 0 -22 21q0 18 22 47l8 6q23 23 48.5 51.5t48 59.5t37 62.5t14.5 60.5q0 23 -12.5 38t-42.5 15q-29 0 -61 -9t-62 -24q-104 -47 -224 -129t-233 -185.5t-207 -221 t-147 -236.5q-12 -31 -13 -57q0 -23 10.5 -33t24.5 -10q12 0 25.5 5t29.5 9z" />
<glyph unicode="B" horiz-adv-x="940" d="M43 -225q-16 0 -37.5 1t-43 8t-36 21.5t-14.5 40.5q0 29 15.5 51.5t29.5 39.5q41 45 84 77.5t78 53t56.5 31t21.5 14.5l2 2q2 0 4 2q4 0 8 -6q43 59 101.5 142t119 166t112.5 156.5t83 114.5q-29 -14 -46.5 -25.5t-25.5 -17.5h-2q-2 -2 -6 -2q-10 0 -25.5 12.5 t-15.5 28.5q2 0 2 5t2 7l2 2q55 47 141 83t185 36q86 0 144 -42t58 -120q0 -47 -15 -82.5t-38.5 -60.5t-52.5 -39t-55 -16q20 -20 31.5 -50t11.5 -59q0 -43 -15 -71q-43 -92 -141 -182.5t-221 -162t-256 -115.5t-246 -44zM-20 -100q-25 -35 -25 -52q0 -12 24.5 -18t53.5 -6 q61 0 146 24.5t175 66.5t179.5 96.5t159 112.5t112.5 116.5t43 107.5q0 25 -10.5 43.5t-23.5 31.5t-27.5 22.5t-22.5 13.5l-2 2q-8 4 -14.5 13t-6.5 20q0 14 10.5 22t22.5 8q14 0 17 -2l6 -4q12 -6 24.5 -12t24.5 -17q51 4 95 42t44 108q0 66 -40 87.5t-93 21.5 q-41 0 -81 -8.5t-71 -18.5q-2 -2 -6 -2q14 -12 15 -33v-2q-49 -78 -114 -164t-136.5 -175t-147 -176t-147.5 -167l-4 -2q-12 0 -13 12q0 4 13.5 24.5t34.5 49.5q-29 -20 -91.5 -65t-123.5 -121z" />
<glyph unicode="C" horiz-adv-x="770" d="M12 -176q-10 20 -13 40.5t-3 39.5q0 53 23.5 101t50.5 89q104 160 251.5 293t296.5 244q39 29 83 57.5t89.5 52t89.5 38t85 14.5q27 0 50 -21.5t23 -54.5q0 -16 -6 -31.5t-10 -26.5q-66 -98 -136.5 -153t-127.5 -103q-57 -47 -101.5 -73.5t-66.5 -38.5l-6 -4 q-23 -12 -43 -13q-29 0 -29 17q0 14 7 26.5t28 26.5l8 6q47 29 111.5 74t126 97t109.5 104.5t63 93.5q-29 -2 -85.5 -23.5t-103.5 -52.5q-96 -61 -196.5 -135t-194.5 -157t-175 -175t-138 -190q-10 -18 -16.5 -42t-6.5 -44q0 -31 14.5 -56.5t42.5 -25.5q43 0 108 35.5 t133.5 84t131 97.5t101.5 78q100 76 154 116.5t81 61t33 24.5t10 4q10 0 10 -8q0 -6 -30.5 -33.5t-86 -72.5t-134 -105.5t-173.5 -132.5q-41 -31 -85 -62.5t-93 -62.5q-35 -23 -78 -48t-86 -25q-29 0 -51.5 16t-38.5 39z" />
<glyph unicode="D" horiz-adv-x="960" d="M-78 -106q16 33 40 58t46 46q92 80 154.5 116t62.5 40h2q2 0 2 1t4 1q6 0 9 -2q41 57 92 128.5t101 142.5t96.5 134.5t76.5 106.5q-4 4 -8 6t-4 12q0 20 27 41l8 4q51 31 113.5 48.5t132.5 17.5l26 -2q39 -10 67.5 -35t45 -55.5t25 -64.5t8.5 -65q0 -57 -18.5 -113.5 t-43.5 -103.5q-80 -129 -198.5 -234.5t-250.5 -180t-265.5 -115.5t-241.5 -41q-8 0 -27.5 1t-40 8t-36 21.5t-15.5 39.5q0 23 10 39zM119 49q-16 -12 -44 -34.5t-55.5 -48t-48 -54.5t-20.5 -53q0 -14 22.5 -21.5t55.5 -7.5q53 0 145 26.5t196.5 75t212 116t194.5 149.5 t142.5 177t55.5 197q0 63 -30 106.5t-87 43.5q-20 0 -42.5 -2t-43 -7t-38 -11.5t-25.5 -14.5h2l-2 -2q-49 -78 -113 -166t-135.5 -179t-148 -178t-150.5 -161q-8 0 -9 4t-6 8q0 8 23 39t51 72q-16 -10 -41.5 -29.5t-60.5 -44.5z" />
<glyph unicode="E" horiz-adv-x="792" d="M264 256q43 31 73 51.5t51.5 34.5t38.5 22.5t36 14.5q-10 6 -21.5 19.5t-11.5 25.5q0 45 36 91t93 87t126 77t135.5 62.5t121.5 41t84 14.5q6 0 18.5 -3t23.5 -10.5t20.5 -20.5t9.5 -34q-6 -49 -57.5 -98t-115 -88t-125 -64.5t-87.5 -27.5h-4q-33 0 -33 28q0 27 18 37h4 q68 20 153 69.5t157 114.5q18 25 18 27q-37 0 -90 -12.5t-111.5 -35t-118 -51t-109.5 -62.5t-85 -69.5t-45 -70.5q0 -14 13.5 -17t25.5 -3t23.5 2t21.5 4q66 20 115 24t71 6h4q16 0 27.5 -10t11.5 -20q0 -33 -35 -37h-6q-119 -12 -238.5 -62.5t-248.5 -160.5 q-29 -25 -64.5 -58t-67.5 -68.5t-53.5 -72.5t-21.5 -68q0 -23 20.5 -34t51.5 -11q63 0 121 33q129 78 238.5 153.5t191.5 135t128 95.5t46 34l2 2q2 0 3 1t3 1q10 0 10 -10q0 -4 -40 -40t-109.5 -92.5t-160.5 -127t-196 -146.5q-49 -35 -113.5 -67.5t-131.5 -32.5 q-18 0 -41 6t-41.5 20.5t-30.5 36t-12 52.5q0 45 17 84.5t53 81.5t88 89.5t122 106.5z" />
<glyph unicode="F" horiz-adv-x="450" d="M-31 -221q-4 4 -4 10q0 4 22.5 39t61.5 88t88 120.5t103.5 141.5t108.5 146.5t102 136.5q-51 4 -83 7t-50.5 6t-25.5 7t-7 11q0 14 63.5 19t151.5 13q41 59 74.5 103.5t54.5 68.5q-104 4 -174 7.5t-112 6.5t-60.5 6t-18.5 9q0 10 6 10q20 2 100.5 5t189 7.5t232 8.5 t234.5 8t191.5 7t105.5 5h2q10 0 16.5 -11t6.5 -26q0 -20 -17 -30h-4q-78 -10 -178 -14.5t-211 -4.5q-59 0 -117.5 1t-115.5 3q0 -10 -3 -12l-2 -2q-23 -35 -48 -71t-54 -77q20 2 34.5 2.5t20.5 0.5q10 -6 11 -46q0 -18 -5 -22h-2q-23 -6 -53.5 -8t-62.5 -2 q-150 -193 -292.5 -363t-264.5 -317l-7 -2q-4 0 -8 4z" />
<glyph unicode="G" horiz-adv-x="890" d="M162 164q147 193 316 343t343 245q25 14 55.5 24t65.5 10q39 0 56.5 -25.5t17.5 -47.5q0 -59 -29 -108.5t-65.5 -87.5t-70.5 -61.5t-42 -29.5l-6 -2q-18 -12 -39 -12q-29 0 -29 20q0 25 29 47l6 4q29 20 59.5 48t55 59t41 62.5t16.5 60.5q-49 0 -131 -48.5t-174 -121 t-184.5 -158.5t-159.5 -162q-35 -37 -74 -84t-70.5 -98t-53 -103.5t-21.5 -97.5q0 -37 28 -41q25 0 56.5 13.5t65.5 33t68 42t60 40.5q141 98 249 181.5t167 138.5q-49 0 -81 1t-48 4t-22.5 8t-6.5 15q0 2 35 11.5t79 18.5t86 16.5t58 7.5q4 0 10.5 -18.5t6.5 -39.5 q0 -2 -1 -3t-1 -3l-2 -2q-27 -12 -72 -16q-49 -43 -127 -114t-182 -150q-74 -57 -157 -119t-193 -109q-16 -10 -48 -10q-23 0 -39 10.5t-25 24.5t-13.5 30.5t-4.5 30.5q0 39 13.5 81t33 84t45 82t50.5 75z" />
<glyph unicode="H" horiz-adv-x="911" d="M412 625h-2q-6 0 -7 10v2q8 8 43 29.5t74 44t71 40t34 17.5q16 0 27.5 -11.5t11.5 -25.5q0 -6 -2 -8l-3 -4q-41 -63 -92 -133t-112 -148q14 2 27.5 2h29.5q129 0 196.5 -12t67.5 -20q0 -4 -1 -6.5t-1 -4.5v-2q-10 -4 -62.5 -9t-114.5 -10t-117.5 -9.5t-69.5 -4.5h-2 q-4 0 -5 9q-143 -180 -265 -326.5t-226 -269.5l-6 -2q-14 0 -15 10q0 4 36 56t93.5 132t129 177.5t143.5 193.5t136.5 183l107.5 145q-39 -18 -73 -29.5t-52 -15.5zM477 -225q-4 4 -4 10q10 18 62.5 91t126 174.5t158.5 216t161 217t132 178t73 98.5l2 2q6 6 16 6 q16 0 28.5 -12.5t12.5 -24.5q0 -4 -1 -5t-1 -3l-2 -4q-70 -106 -160 -224t-188 -240t-201.5 -244t-199.5 -236l-7 -2q-6 0 -8 2z" />
<glyph unicode="I" horiz-adv-x="337" d="M432 494q-6 2 -6 6v2q4 8 31.5 49t59.5 87t61.5 87t37.5 49h2q2 0 11.5 -4t18.5 -10t16.5 -12.5t7.5 -12.5q-37 -66 -102.5 -132t-127.5 -116zM-102 -225q-4 4 -4 8q0 6 34.5 57t89 125t118 161t120.5 163t99 131t53 67l2 2q4 4 10 5q20 0 31.5 -16.5t11.5 -26.5h2l-2 -5 q-49 -78 -113.5 -161.5t-137.5 -171.5t-150.5 -174t-151.5 -166h-8q-2 0 -4 2z" />
<glyph unicode="J" horiz-adv-x="872" d="M0 -156q6 37 27 74q49 94 103 167t101 122q53 57 109 100l2 2q2 0 3 1t5 1q10 0 10 -8q0 -10 -22.5 -31.5t-58 -58.5t-77.5 -89t-81 -122q-25 -43 -51.5 -91t-24.5 -89q0 -18 14 -19q4 0 8.5 1t14.5 3q78 23 154.5 69t154.5 99q127 86 238.5 187.5t202 200t156 185.5 t102.5 144q-86 -4 -187.5 -10t-188.5 -25.5t-144.5 -57.5t-57.5 -103q0 -18 7 -29.5t16.5 -18t17.5 -8.5t8 -4q0 -10 -4 -12t-6 -2q-23 4 -45.5 17.5t-22.5 60.5q0 29 12.5 56.5t30.5 49.5q45 57 125 89t168 46.5t174 18.5t148 8q16 16 33 16q12 0 20 -14q45 4 75.5 4 t43.5 2h2q8 0 14 -9t8 -22q0 -31 -16 -34l-4 -2q-59 -10 -141 -13q-68 -115 -171.5 -242.5t-229.5 -248.5t-270.5 -227.5t-297.5 -180.5q-35 -12 -65.5 -26.5t-69.5 -14.5q-43 0 -58.5 18.5t-15.5 47.5q0 20 2 22z" />
<glyph unicode="K" horiz-adv-x="1112" d="M614 295q6 -27 29 -51.5t43 -24.5q76 29 150.5 93.5t140.5 127.5q164 160 231.5 236t69.5 76q12 0 12 -11q0 -6 -29.5 -48t-81 -104.5t-117 -137t-136.5 -146.5q-25 -25 -53.5 -52.5t-60.5 -51t-64.5 -39t-65.5 -15.5q-49 0 -75.5 23t-37.5 49q-16 -80 -35.5 -167 t-19.5 -173q0 -27 5 -45t22 -18q35 0 81 30.5t83 61.5q86 72 158.5 139.5t125.5 120.5q61 61 113 117h2q2 0 4 2q12 0 12 -11q-2 -6 -47 -62t-123 -138q-68 -72 -152.5 -159t-205.5 -153q-10 -4 -23.5 -8t-29.5 -4q-35 0 -53.5 14.5t-27.5 35t-11.5 42t-2.5 37.5q0 43 7 86 q10 88 23 168t25.5 143.5t22.5 107.5t15 63v2q6 25 32 24q14 0 23.5 -9t11.5 -22l-2 -6q0 -4 2 -6t2 -6v-2q-6 -25 -6 -51q-2 -18 1 -39t13 -39zM453 625h-2q-6 0 -7 10v2q6 4 32 20.5t58.5 36t64.5 39t48 27.5v2q6 6 17 6q16 0 28.5 -12.5t12.5 -24.5q0 -6 -3 -8l-2 -4 q-72 -106 -160.5 -224t-187 -240t-201 -244t-200.5 -236l-6 -2q-12 0 -13 10q0 4 36 56t93.5 132t129 177.5t143.5 193.5t136.5 183l107.5 145q-86 -39 -125 -45z" />
<glyph unicode="L" horiz-adv-x="829" d="M45 -74q27 86 63.5 161t78.5 142.5t85 128t82 115.5q41 57 79 104.5t67 81.5q-20 -8 -38 -14t-32 -10l-33 -10q-6 0 -6 10v2q6 6 26.5 19.5t50.5 31t64.5 37.5t69.5 41q37 0 37 -33q0 -16 -8 -24l-4 -4q-72 -92 -159 -203t-173 -240q-29 -43 -63.5 -95t-63.5 -103.5 t-48.5 -100.5t-19.5 -86q0 -53 45 -53q23 0 52 12q135 57 248.5 117.5t198.5 111t134 82t53 31.5h3q2 0 4 2q10 0 10 -10q0 -4 -42 -37t-113.5 -83t-170 -109.5t-211.5 -114.5q-35 -16 -79 -37.5t-91 -21.5q-45 0 -73.5 31.5t-28.5 78.5q0 26 6 49z" />
<glyph unicode="M" horiz-adv-x="968" d="M-72 -240q-6 2 -6 9q0 4 29 46t76 108.5t108.5 150.5t127 172t129 175t117.5 157.5t91 118.5t49 63h2q8 8 21 8q16 0 26.5 -11.5t10.5 -25.5q0 -6 -2 -8l-2 -4q-8 -14 -9 -84q0 -18 2 -39t9 -41q8 0 20 6q84 29 168 62.5t153.5 63.5t120 53.5t68.5 33.5h6q10 0 22.5 -13 t12.5 -32q0 -8 -4 -12l-2 -2q-74 -106 -164 -224t-189.5 -241t-203 -247t-203.5 -243l-6 -2q-14 0 -14 11q0 6 33.5 54t88 122.5t123 168t138 186.5t135 181t112.5 152q-47 -20 -106.5 -43t-119.5 -42.5t-111.5 -31.5t-79.5 -12q-16 0 -26.5 9t-15 23.5t-5.5 29t-1 26.5 q0 55 9 70q-78 -111 -167 -225.5t-182.5 -229.5t-188.5 -227.5t-185 -219.5l-6 -2q-7 0 -9 2z" />
<glyph unicode="N" horiz-adv-x="958" d="M672 756q37 6 78 6q37 0 89 -9.5t100 -32t82 -59t34 -94.5q0 -49 -17.5 -99t-43 -98t-58.5 -92.5t-64 -78.5q-111 -127 -183.5 -208t-114.5 -128t-58 -65.5t-16 -20.5q-6 0 -6 8q0 4 40.5 54t103 130t139.5 182.5t149 210.5q25 49 43 102.5t18 98.5q0 37 -26.5 59.5 t-63.5 35t-74 16.5t-57 4q-53 0 -89 -10.5t-50 -14.5l-2 -2q-4 0 -4 8q2 2 5 6.5t3 10.5q0 4 -1 6t-1 6q-4 0 -5 -9t-1 -11q0 2 -1.5 3t-1.5 5q-76 -113 -161.5 -230.5t-176 -234.5t-180.5 -230.5t-174 -220.5l-6 -2q-14 0 -14 11q0 6 33.5 58t89 132t124 179.5t138 198.5 t134 190t110.5 155q-41 -16 -73 -27.5t-56 -19.5q-6 0 -7 10q0 2 23.5 18.5t56.5 37t66 40t51 29.5q6 8 11 15.5t9 11.5l2 2q8 8 19 8q12 0 25.5 -10.5t13.5 -24.5q0 -8 -2 -10l-2 -4v-2z" />
<glyph unicode="O" horiz-adv-x="837" d="M115 -211q-23 8 -36 23.5t-19.5 33t-7.5 35t-1 31.5q0 35 6 65.5t13 59.5q39 174 130 313t199.5 235.5t217 147.5t180.5 51q31 0 61 -10q20 6 37.5 15.5t40.5 9.5q29 0 37 -19.5t8 -42.5q0 -12 -1 -22t-3 -21q27 0 46 1t38 1q18 0 18 -4q0 -2 -2 -7t-2 -15 q2 -23 10.5 -29t8.5 -8q0 -6 -11 -6h-2q-49 4 -120 6q-12 -55 -40 -134t-77 -170t-122 -186.5t-173 -181.5q-37 -31 -81 -62.5t-92 -57t-99.5 -42t-102.5 -16.5q-28 0 -59 6zM924 766q-16 -6 -34 -16.5t-38 -24.5q6 -29 13 -33t24 -4q29 0 49 6t20 41q-4 18 -5 26.5t-11 8.5 q-4 -4 -18 -4zM827 702q-2 -2 -6 -5t-8 -7h45l-14 12q-4 4 -10 7zM121 -63q0 -10 -1 -17.5t-1 -15.5q0 -29 7 -42.5t48 -13.5q59 0 116.5 11.5t110.5 44.5q129 86 224.5 186t161 198.5t103.5 188.5t54 156q-4 0 -16.5 -1t-30.5 -1q-23 0 -47.5 1t-47 6t-36.5 12t-14 20 q0 16 10 27.5t18 19.5q-16 0 -35.5 -4t-37.5 -11q-98 -31 -197.5 -104.5t-180.5 -176t-137.5 -227t-70.5 -257.5z" />
<glyph unicode="P" horiz-adv-x="899" d="M373 299q0 6 -1 11t-1 12q0 23 5 42t11 33q-141 -193 -262 -346t-225 -282l-6 -2q-14 0 -15 10q0 4 34 55t88 131t121.5 178.5t136.5 196.5t132.5 189t108.5 157q-43 -12 -95.5 -26.5t-97.5 -33t-74.5 -43t-29.5 -57.5t17.5 -52t21.5 -19q0 -14 -13 -15q2 0 -7 4 t-20.5 15.5t-20.5 28t-9 40.5q0 45 37 82t92 65.5t123 49t129 33.5q8 10 14 20t15 21l2 2q8 8 18 8q12 0 25.5 -10.5t13.5 -24.5q45 6 88 10t84 4q119 0 190.5 -35.5t71.5 -93.5l-2 -4q0 -2 2 -4l-2 -4q-14 -68 -47 -136.5t-78 -136t-99 -133t-112 -126.5q-18 -18 -38.5 -41 t-44 -43.5t-50 -33.5t-55.5 -13q-35 0 -58.5 18t-40 43t-26.5 51.5t-16 42.5q-16 43 -23.5 85t-11.5 77zM406 358q-2 -2 -3 -22q0 -8 8.5 -55.5t25 -101.5t44 -98t64.5 -44q23 0 47 20.5t53 55.5q80 78 144.5 162.5t111.5 160.5t73.5 134.5t31.5 82.5q0 14 -17.5 24.5 t-46.5 19t-64.5 12.5t-72.5 4q-100 0 -205 -13q-39 -59 -85 -124.5t-97 -137.5l10 -12q-4 -6 -11 -22.5t-11 -45.5z" />
<glyph unicode="Q" horiz-adv-x="854" d="M1008 711q0 -57 -16.5 -110.5t-37.5 -102.5q-49 -121 -105 -217.5t-124 -176t-145.5 -147.5t-165.5 -127q33 -27 71 -27q23 0 28 10.5t5 20.5q0 16 -6 25.5t-6 13.5v-2q0 14 16 14q-2 0 12.5 -14t14.5 -47q0 -23 -18.5 -41.5t-49.5 -18.5q-29 0 -58.5 9.5t-55.5 31.5 q-29 -14 -60 -24t-65 -10q-51 0 -86 19.5t-56.5 49t-31 66.5t-9.5 71q0 98 45.5 186.5t98.5 168.5q55 82 126.5 166t158.5 151.5t189.5 110.5t219.5 43q37 0 58.5 -8.5t33.5 -22.5t15.5 -30.5t3.5 -30.5zM928 637q4 23 7 38t3 25q0 23 -4 30t-25 7q-76 0 -165 -33.5 t-178 -91t-171 -134.5t-145.5 -163t-101 -177t-37.5 -177q0 -55 33.5 -100t86.5 -45q43 0 105 22q-2 2 -2 3t-2 3q-6 0 -12.5 -1t-12.5 -1q-10 0 -33.5 2t-46 12.5t-40 29t-17.5 53.5q0 41 26.5 61t53.5 20t46 -11t32.5 -26.5t20.5 -33t11 -29.5q82 16 165 89t153 165 q74 98 142.5 216t107.5 247zM295 -84q-2 14 -21 25l-20 8q-12 0 -12 -8q0 -10 18.5 -16.5t34.5 -8.5z" />
<glyph unicode="R" horiz-adv-x="923" d="M676 780q47 8 92 12.5t88 4.5q113 0 184.5 -35t71.5 -90v-2q2 -8 2 -16.5v-16.5q0 -78 -47 -144.5t-106 -121.5q-35 -33 -81 -68t-95.5 -63.5t-99.5 -47t-93 -18.5q-41 0 -69.5 16.5t-47 39t-29 49t-16.5 49.5q-12 -70 -18 -151t-6 -167q0 -47 7 -88t38 -41 q29 0 72.5 24.5t72.5 47.5q203 160 296 253t91 93q12 0 12 -12q0 -4 -45 -57.5t-116 -127.5q-35 -33 -71 -70.5t-77 -75.5t-91 -73t-112 -61l-16 -4t-18 -2q-41 0 -65 22.5t-34 54t-12 64.5t-2 55q0 78 1 152t13 127q-117 -154 -208 -269.5t-162 -207.5q-2 0 -5 -2 q-14 0 -14 10q0 4 32 54t82 127t114.5 171t129 189.5t124 181.5t102.5 147q-45 -10 -99.5 -25.5t-102.5 -36t-80 -47t-32 -59.5q0 -41 18.5 -54t18.5 -17q0 -14 -10 -15q-2 0 -4 2t-11.5 7.5t-18.5 15.5t-16 26.5t-7 38.5q0 47 37.5 84t94 66t124 49.5t129.5 36.5 q10 0 20 14.5t12 18.5l3 2q8 8 18 8q27 0 37 -27zM1044 668q0 12 -18 22t-46 17.5t-63.5 11.5t-68.5 4q-49 0 -100.5 -3t-104.5 -11q-37 -59 -83 -125t-97 -135q-4 -10 -7 -19.5t-3 -21.5q0 -18 7 -49t20.5 -61t36 -51.5t52.5 -21.5q37 0 81 20.5t85 43.5q80 45 137.5 98 t96.5 105.5t57 97.5t18 69v7l-2 -2z" />
<glyph unicode="S" horiz-adv-x="804" d="M1276 635q2 -2 4 -19q-2 -35 -30.5 -55t-63.5 -30.5t-64.5 -14.5t-31.5 -4h-5q-8 0 -8 12q0 8 13.5 11.5t35 8.5t48 17t51.5 39q8 8 8 16q0 23 -42 40.5t-99.5 28.5t-117 17.5t-91.5 6.5q-68 0 -90.5 -41t-27.5 -111t-10 -163t-40 -197q63 -45 78.5 -57.5t17.5 -12.5 q0 -4 3 -6t3 -6q0 -8 -8 -9q-6 0 -11 1.5t-15.5 7.5t-28 18t-49.5 35q-23 -61 -61 -132t-91 -131.5t-122 -99t-155 -38.5q-55 0 -99 21.5t-74.5 56t-47 78.5t-16.5 91q0 78 28.5 138.5t74.5 101.5t102.5 61.5t111.5 20.5q88 0 164 -31t129 -65q16 45 23.5 97t10.5 100t3 89 t2 64q2 37 12.5 71.5t31 60.5t54 41t84.5 15q20 0 80 -6t125.5 -21.5t124 -43t76.5 -72.5zM596 102q12 27 22.5 53.5t20.5 51.5q-53 29 -121.5 55.5t-146.5 26.5q-55 0 -105.5 -19.5t-87.5 -54.5t-58.5 -84t-21.5 -108q0 -94 51.5 -140.5t124.5 -46.5q57 0 107.5 25.5 t90.5 65.5t70.5 86t53.5 89z" />
<glyph unicode="T" horiz-adv-x="606" d="M1235 756q0 -12 -5 -22.5t-16 -12.5l-4 -2q-68 -10 -147.5 -12t-171.5 -2q-141 -223 -313 -448.5t-347 -442.5l-6 -2q-14 0 -14 10q0 6 32.5 57t85 130t118 175.5t131 192.5t125 182t100.5 146q-96 -4 -213 -6.5t-218.5 -19.5t-170 -57t-68.5 -116q0 -16 7 -26.5 t15.5 -16.5t14.5 -8l6 -2q2 0 4 2q2 0 2 -6q0 -12 -5 -14.5t-7 -2.5t-12.5 4t-22.5 13.5t-21.5 26t-9.5 40.5q12 98 97.5 150.5t201 76t238.5 26.5t213 7q6 8 9 13.5t5 7.5l2 2q8 8 19 8q10 0 22.5 -8t16.5 -21q104 4 179 5t97 5h2q25 -3 29 -32z" />
<glyph unicode="U" horiz-adv-x="911" d="M1225 760q-63 -106 -146.5 -224t-175.5 -239t-187 -244t-186 -239l-6 -2q-14 0 -14 10q0 4 22.5 39t59.5 91t85 127t99 146q-72 -59 -183.5 -146t-246.5 -185q-23 -16 -51.5 -37t-59 -38.5t-60.5 -29.5t-54 -12q-33 0 -54.5 14t-34 34.5t-17.5 44.5t-5 40q-6 57 44 160.5 t126 194.5t143.5 168t129 139.5t102.5 105.5q-37 -16 -69.5 -27.5t-49.5 -15.5l-4 4q-2 2 -2 6q0 2 31 22.5t68.5 44t71.5 43t40 21.5q41 0 41 -31q0 -14 -6 -26l-4 -6q-76 -109 -185.5 -220.5t-214.5 -238.5q-31 -37 -65.5 -82t-64 -92t-49 -92t-19.5 -82q0 -27 11 -47.5 t34 -20.5t51.5 14.5t52.5 26.5q106 66 202.5 131.5t174.5 121.5t136.5 100t90.5 69q57 84 113.5 166t103 149.5t79 115.5t44.5 65l2 2q8 8 19 8q12 0 25.5 -10.5t13.5 -24.5q0 -8 -2 -10h2z" />
<glyph unicode="V" horiz-adv-x="1214" d="M1554 768q14 -14 15 -29q0 -8 -2 -10l-2 -4q-57 -78 -138 -174t-169.5 -195.5t-175.5 -194.5t-155.5 -171t-111.5 -125t-43 -58v-11t-6 -7q-2 0 -23.5 11.5t-47 39t-47 72.5t-21.5 115q0 72 21.5 146.5t52 141t63.5 117.5t55 76q-16 16 -63 26.5t-101 10.5 q-72 0 -174 -13.5t-196.5 -39t-161 -65.5t-66.5 -93q0 -41 18.5 -56.5t18.5 -17.5q0 -14 -12 -14l-4 2q-2 2 -11.5 8t-18.5 17.5t-16 27.5t-7 39q0 43 32.5 81t86 69.5t122 55t139 40t138 24.5t121.5 8q111 0 171 -37.5t60 -84.5l-2 -4q0 -4 -1 -4.5t-1 -2.5v-4 q-31 -37 -68 -94t-69.5 -123.5t-55 -136.5t-22.5 -127q0 -66 23.5 -110t50.5 -66q2 16 16 31q25 33 84 108.5t136 170.5t162 198.5t159.5 194.5t130 157t73.5 84l2 2q8 8 17 8q8 0 24 -10z" />
<glyph unicode="W" horiz-adv-x="1689" d="M1341 -2q51 63 113 141t124 159t123.5 159t112 142.5t87 109.5t51.5 59l2 2q8 8 18 8q14 0 25.5 -12t11.5 -25q0 -10 -2 -12l-2 -4q-57 -78 -137 -174t-165 -195.5t-170 -194.5t-151.5 -171t-107.5 -125t-41 -58v-2q0 -2 1 -3t1 -3t-2 -6t-6 -4h2q0 2 -21.5 11.5t-48 34 t-48 70.5t-21.5 120q0 98 32 184q-68 -74 -133 -142.5t-115.5 -124t-82 -91t-31.5 -44.5q0 -2 1 -3t1 -5q0 -2 -3 -6t-7 -4q-2 0 -23.5 11.5t-47.5 39t-46.5 73.5t-20.5 114q0 72 21.5 146.5t52.5 141t63.5 117.5t55.5 76q-16 16 -63.5 26.5t-100.5 10.5q-45 0 -106.5 -6.5 t-128 -17.5t-132 -28.5t-116.5 -41t-83 -53t-32 -64.5q0 -41 18.5 -56.5t18.5 -17.5q0 -14 -12 -14l-4 2q-2 2 -10.5 8t-17.5 17.5t-17.5 27.5t-8.5 39q0 43 33 81t86 68.5t122 55t139.5 41t138 24.5t120.5 8q111 0 171.5 -37.5t60.5 -84.5v-4q-4 -4 -4 -7v-4 q-31 -35 -68 -93t-69.5 -125.5t-54 -136.5t-21.5 -126q0 -68 23.5 -114t49.5 -62q0 4 39 56t100.5 130t134 169t140.5 174t121 147.5t76 85.5v2q4 4 12 4q16 0 29.5 -13.5t13.5 -25.5q0 -2 -1 -3t-1 -3l-2 -4q-25 -39 -69 -98.5t-87 -132t-74.5 -152.5t-31.5 -160 q0 -70 23.5 -112t49.5 -64q4 18 40 60t89 114z" />
<glyph unicode="X" horiz-adv-x="1286" d="M504 35q-55 -47 -117.5 -89t-127 -75t-130.5 -51.5t-129 -18.5q-90 0 -141.5 34t-76 73t-30.5 70.5t-6 29.5v-2q0 8 10 8q8 0 15.5 -26.5t29 -58t63.5 -58.5t118 -27q100 0 203.5 50.5t199.5 126t181 165.5t151.5 171t108.5 140.5t53 73.5l2 2q14 14 17 23.5t3 24.5 q2 16 -10 22t-53 6q-88 0 -156 -39t-113 -90t-68.5 -102t-23.5 -78q0 -12 -8 -24.5t-33 -12.5q-23 0 -26 16v5q-2 8 -2 15v13q0 68 37.5 131.5t97 113.5t132.5 81t144 31q20 0 45 -3.5t45.5 -11.5t33.5 -24.5t13 -40.5q0 -4 -1 -7.5t-1 -7.5q31 31 67 65t72.5 62.5t72.5 47 t67 18.5q23 0 37 -8t22 -20.5t11.5 -25t3.5 -18.5q0 -63 -36 -115.5t-80 -91.5t-84 -62.5t-48 -27.5l-6 -2q-14 -8 -31 -8q-35 0 -35 21q0 29 33 47h-2l8 4q29 16 64.5 43.5t66.5 60.5t52.5 67t21.5 62q-16 0 -47 -20.5t-56 -40.5q-117 -92 -209 -198.5t-194 -223.5 q-29 -33 -64.5 -79t-67.5 -97t-53.5 -101.5t-21.5 -91.5q0 -18 8.5 -34.5t26.5 -16.5q27 0 66.5 15.5t82.5 38t86 47t76 42.5q199 113 305.5 186.5t141.5 103.5t52 48.5t26 18.5q8 0 8 -8q0 -6 -28 -33t-78 -68t-120.5 -93t-156.5 -110q-80 -53 -164 -107t-188 -101 q-27 -12 -51.5 -21.5t-59.5 -9.5q-63 2 -77.5 36.5t-14.5 67.5q-2 23 8 68t37 84z" />
<glyph unicode="Y" horiz-adv-x="925" d="M752 -313q-53 0 -127 -4.5t-146 -8.5q-59 -82 -100 -136t-69.5 -90t-46 -56.5t-27.5 -32.5q-4 0 -7.5 4t-3.5 6q0 6 16.5 32t44 65.5t63.5 92t75 111.5q-47 -2 -83 -4t-58 -2q-18 0 -22.5 1t-4.5 5t40 6t144 19q78 117 170 251t185 269q-74 -59 -179.5 -143t-234.5 -176 q-23 -16 -51.5 -37t-59 -39.5t-61.5 -30.5t-57 -12q-31 0 -52.5 13t-34 32.5t-18.5 43t-6 44.5q0 45 14.5 82t32.5 71q55 102 118.5 193.5t126 169.5t117 140.5t91.5 107.5q-39 -18 -65.5 -26.5t-43.5 -12.5q-2 0 -4 4t-2 6t29.5 21.5t67.5 42t72 43t42 24.5q16 -4 27.5 -7 t11.5 -24q0 -14 -6 -26l-4 -6q-78 -104 -178.5 -218t-198.5 -249q-27 -37 -59.5 -82t-60.5 -91t-46.5 -89t-18.5 -80q0 -25 12.5 -45.5t35.5 -20.5t53.5 16.5t54.5 28.5q102 63 194.5 126t168 116t134 97t93.5 71q61 90 116.5 171t100.5 146.5t78 111.5t47 64l2 2 q12 16 29 17q14 0 22 -10.5t8 -22.5q-2 -2 -2 -4q0 -4 -1 -7t-1 -7h2l-4 -6q-68 -106 -160 -239.5t-193 -274t-202.5 -277.5t-189.5 -254q78 10 147.5 19.5t91.5 9.5q10 0 13.5 -10.5t4.5 -21.5t-7 -13z" />
<glyph unicode="Z" horiz-adv-x="997" d="M236 -12q43 66 88 132t92 128q-37 4 -57.5 5t-30 3t-11.5 6t-2 14q0 6 42 11.5t96 9.5q98 131 175 231.5t124 161.5q-16 -2 -33 -2h-33q-53 0 -107.5 2t-109.5 2q-90 0 -170 -12q-41 -6 -72.5 -25.5t-53 -44t-34 -52.5t-12.5 -48q0 -35 13.5 -43t13.5 -14q0 -14 -9 -15 q-47 18 -47 68q0 86 45 137t113 78t147.5 35t151.5 8t123 -1t92 -1q18 0 28.5 2t17.5 4t12.5 4t13.5 2q25 0 24 -26q0 -16 -8 -31l-4 -6q-63 -92 -140 -192.5t-163 -211.5q47 4 85 6t48 2q6 -2 8 -16t2 -31q0 -23 -29.5 -26.5t-60.5 -3.5h-54.5t-49.5 2q-29 -35 -80 -98.5 t-100.5 -135.5t-86 -140.5t-36.5 -111.5q0 -35 14 -49t31 -22q12 2 33.5 9t39.5 17q150 88 275 175t217 157t145.5 113t59.5 43l2 2q2 0 3 1t5 1q10 0 10 -11q0 -2 -45 -44t-124 -108.5t-185.5 -149.5t-231.5 -164q-18 -12 -42.5 -30t-50 -33t-53.5 -25.5t-54 -10.5 q-29 0 -49.5 12.5t-33.5 32t-20.5 42t-7.5 42.5q0 39 10.5 72t25.5 60.5t33 52t32 49.5z" />
<glyph unicode="`" horiz-adv-x="356" d="M82 526q-2 0 14 13q8 6 17 14v2v-2q2 -6 28.5 -17.5t57 -23.5t56.5 -22l26 -11l-2 -6l-21 2q-22 2 -53 7t-65 14.5t-58 25.5l-2 2q0 2 2 2z" />
<glyph unicode="a" horiz-adv-x="399" d="M424 365q-16 -31 -44 -69t-56.5 -80t-53 -83t-34.5 -78q12 -6 31.5 2.5t48 27.5t49 35.5t29.5 24t11.5 9.5t10.5 -2.5t8 -10.5q-2 0 -20.5 -21.5t-46 -47t-61.5 -48t-67 -24.5q-18 0 -28.5 7t-14.5 16.5t-5 17.5t-1 12v25q-4 -4 -16 -16.5t-30.5 -25.5t-42 -23.5 t-48.5 -10.5q-23 0 -36 11.5t-21.5 27.5t-11.5 34.5t-3 35.5q0 51 29 109.5t74 108.5t99 83.5t103 33.5q59 0 95 -40q2 0 3 1t3 1q14 0 31.5 -15.5t17.5 -25.5zM227 53h2h-2zM315 334q2 2 2 10q0 27 -38 27q-29 0 -71 -24.5t-82 -63.5t-68.5 -88.5t-28.5 -98.5q0 -45 18 -45 t42 11.5t47.5 26.5t41 29.5t23.5 22.5q29 57 59 107.5t55 85.5z" />
<glyph unicode="b" horiz-adv-x="344" d="M489 365q0 -4 -9 -16.5t-27.5 -26t-45 -23.5t-61.5 -10q-20 0 -27 2q-4 -23 -19 -71t-45 -98t-77 -88t-115 -38q-27 0 -42 10t-25 32.5t-10 68t28 92.5q57 98 118 189t115 164t93 120t53 57l2 2q2 0 3 1t3 1q16 0 32 -17.5t16 -25.5l-3 -2q-41 -61 -101 -139t-126 -164 q-29 -37 -59.5 -77t-56 -80t-42 -79.5t-16.5 -74.5q0 -25 16 -25q53 0 94.5 32t71 74t46 83t20.5 61q-18 6 -32.5 21.5t-14.5 37.5q0 37 37 37q18 0 28.5 -12t10.5 -31q0 -6 -1.5 -12t-1.5 -10q0 -10 7.5 -16.5t31.5 -6.5q37 0 62.5 9.5t40 19.5t17.5 14zM297 322 q0 16 -2 32.5t-14 16.5q-10 0 -11 -11q0 -26 27 -38z" />
<glyph unicode="c" horiz-adv-x="356" d="M356 209q-2 0 7.5 -2t9.5 -10q0 -6 -41 -43t-109 -80q-35 -23 -81 -49.5t-105 -26.5q-29 4 -40 29.5t-11 50.5q0 53 30.5 116.5t76.5 119t102.5 92t107.5 36.5q12 0 35.5 -10t23.5 -35q0 -27 -9 -52.5t-21.5 -45.5t-22.5 -34.5t-12 -16.5l-2 -2q-6 -6 -16 -6 q-16 0 -31 10t-15 20q0 2 1.5 3t1.5 3l2 5q8 16 18 37.5t20 37.5q-4 0 -6 -2q-41 -18 -80.5 -48t-71.5 -66.5t-49.5 -79.5t-23.5 -88v-17.5t2 -3.5q6 0 15.5 1t19.5 3q57 14 106.5 40t85 51.5t57 44t25.5 18.5z" />
<glyph unicode="d" horiz-adv-x="464" d="M727 721q10 -10 12 -18.5t2 -18.5l-2 -4q-37 -51 -86 -112.5t-102 -128t-108.5 -134t-104.5 -131.5q-25 -33 -45.5 -67.5t-20.5 -57.5q4 -4 15 -4q18 0 43.5 13.5t42.5 23.5q61 39 78.5 53.5t19.5 14.5t8 -3.5t6 -9.5q0 -2 -38.5 -41t-116.5 -82q-10 -4 -20.5 -8 t-28.5 -4q-16 0 -35 14.5t-19 46.5q6 33 19 62q-20 -23 -53 -50.5t-75 -49t-87 -29.5q-37 8 -44 32.5t-7 34.5q0 70 46 137.5t109.5 120t129 84t102.5 31.5q18 0 37.5 -5t35.5 -19q43 57 83 109t72 93t55.5 69t35.5 40l2 2q4 4 14 4q17 0 25 -8zM393 348q-6 16 -26.5 15 t-22.5 -3q-16 -4 -66.5 -31.5t-104.5 -69.5t-97 -94t-43 -106q0 -10 10 -10q6 0 27.5 4t58.5 24.5t66.5 42t52 41t33.5 25.5q25 41 52 83t60 79z" />
<glyph unicode="e" horiz-adv-x="339" d="M371 195q8 0 13 -5.5t5 -7.5q0 -8 -27.5 -37.5t-72.5 -62.5t-101.5 -58.5t-113.5 -25.5q-47 0 -67.5 35t-20.5 78q0 35 9 63.5t23 52.5q-14 8 -15 11.5t-5 3.5q0 2 4 10t8 8q10 0 25 -8q33 47 74 81t77.5 56.5t65.5 33.5t53.5 11t36.5 -7t21.5 -20.5t9.5 -37.5 q0 -47 -28 -80t-65.5 -53.5t-77.5 -30.5t-63 -10q-31 0 -55 6q-16 -23 -26.5 -47.5t-10.5 -57.5q0 -25 5 -35t22 -10q12 0 45 5t76 22.5t90 46.5t88 70h-2zM119 242q53 4 102 34.5t76 83.5q-41 -14 -86 -43.5t-84 -66.5z" />
<glyph unicode="f" horiz-adv-x="165" d="M696 569q0 -2 -31.5 -5t-80.5 -6t-111.5 -6t-124.5 -5q-154 -223 -316.5 -448.5t-316.5 -430.5l-6 -2q-8 0 -10 5t-2 7q8 14 39 64.5t77 122.5t102 160t115.5 179t118 179t107.5 160q-23 0 -40 -1t-30 -1q-10 0 -14 3t-4 17q0 16 8 19h2q23 2 49.5 3t57.5 1 q10 14 18 27.5t16 25.5q-86 -2 -171 -4t-159.5 -3t-139 -2t-109.5 -1h-45.5t-28.5 2h-4q-25 0 -24 22q0 18 22 23h6q16 4 34.5 4h39.5h53h557q10 14 18.5 24.5t14.5 16.5v2q8 8 20 8q16 0 26.5 -13.5t10.5 -23.5q0 -8 -2 -10l-2 -4q276 -4 399 -8t123 -13q0 -4 -44 -7 t-118.5 -4t-174 -3t-209.5 -4q-10 -14 -18.5 -26.5t-18.5 -28.5q154 0 237.5 -3.5t83.5 -11.5z" />
<glyph unicode="g" horiz-adv-x="438" d="M471 438q23 -12 23 -30v-2q-31 -59 -77 -131t-99.5 -144t-107.5 -140.5t-97 -120.5t-72 -84l-29 -32q-8 0 -9 4t-5 9q0 6 20.5 38.5t53 82t72.5 108.5t79 119q-131 -78 -194 -78q-18 0 -27.5 10t-13.5 25.5t-4 31v27.5q6 51 38.5 110.5t81 108.5t103.5 82t102 33 q20 0 39 -12.5t19 -42.5q-4 -37 -20.5 -65t-33 -45t-30 -26.5t-11.5 -9.5q-16 0 -29.5 10.5t-13.5 24.5q0 6 2 8l2 4q8 14 18.5 31.5t20.5 34.5q-43 -23 -85 -51.5t-75.5 -64.5t-54 -79t-20.5 -92h6q27 0 67 14.5t74 32.5q41 20 86 47q74 117 120 188.5t56 71.5q13 0 25 -6z " />
<glyph unicode="h" horiz-adv-x="378" d="M451 434q14 -14 14 -28q0 -2 -1 -3.5t-1 -3.5h2l-2 -2q-29 -35 -69 -73.5t-84 -82.5t-85 -89.5t-67 -88.5h2q86 53 145.5 82t61.5 33h-2q16 0 16 -14q0 -4 -33 -27.5t-80 -58.5q-12 -8 -28.5 -21.5t-35 -26t-36.5 -21.5t-33 -9q-23 0 -32 10t-9 27q0 33 21.5 73 t53.5 79.5t66.5 76.5t61.5 66q-47 -23 -92 -41.5t-78 -30.5q-72 -88 -127 -149.5t-94 -108.5l-4 -2q-2 0 -8.5 3t-6.5 7t34 55.5t86 126t114.5 161.5t119 166t98.5 135.5t54 70.5h2q4 4 11 4q16 0 30.5 -15.5t14.5 -27.5l-2 -2q-47 -78 -124 -177t-155 -196q33 18 74 43 t77.5 45.5t64.5 35t34 14.5h2q15 -1 29 -15z" />
<glyph unicode="i" horiz-adv-x="180" d="M334 518q-8 -29 -42 -48t-71 -34l-18 15q0 2 10 19t24.5 36.5t26.5 36t17 18.5q2 0 10 -5t17 -12t17.5 -14.5t8.5 -9.5v-2zM199 131q0 -4 1 -5t1 -3v-2q-2 -2 -31 -21.5t-58.5 -38t-65.5 -41t-64 -22.5q-29 0 -41.5 19.5t-12.5 27.5q-4 12 8.5 47t47 94.5t70.5 108.5 t67 84t37 41h2q2 2 6 2q12 0 27.5 -17.5t15.5 -27.5l-2 -4q-20 -29 -52 -69t-65 -84t-60.5 -87t-41.5 -80q14 -4 52 13.5t93 46t60 28.5l2 -2q2 0 2 -2q0 -4 2 -6z" />
<glyph unicode="j" horiz-adv-x="270" d="M408 539q-4 -31 -35 -57.5t-64 -43.5l-10 4q-10 0 -10 4l2 3q0 4 7 22t17.5 39.5t19.5 39t13 21.5q2 0 11.5 -5t19.5 -11t18.5 -11t10.5 -5zM291 420q20 -14 20 -33v-2q-33 -66 -86 -144.5t-113.5 -158.5t-122 -154.5t-110.5 -133t-81 -94.5l-31 -36q-6 0 -10.5 6t-4.5 8 q0 6 23.5 42t61.5 91.5t85 124t95.5 138t93.5 134t75 111.5q-55 -37 -106 -60t-90 -46h-2q-6 0 -6 10q0 2 38.5 32t88 64.5t93.5 66.5t56 38v2q10 0 16.5 -1t16.5 -5z" />
<glyph unicode="k" horiz-adv-x="417" d="M487 434q10 -14 12.5 -21t2.5 -14l-2 -2q-16 -23 -42 -59.5t-57.5 -75.5t-70.5 -70.5t-78 -46.5q-2 -18 -3 -35.5t-1 -33.5q0 -27 4 -33q12 -4 25.5 6t26.5 21.5t24.5 22.5t17.5 18q27 25 43.5 39t24.5 20t11 8l3 2q12 0 12 -12q-16 -20 -40.5 -50t-71.5 -77 q-14 -16 -29.5 -28.5t-52.5 -12.5q-39 4 -45 29.5t-6 52.5q0 16 1 29.5t1 25.5q-18 -2 -39 13.5t-21 44.5q0 27 17.5 43t40.5 16q31 0 49 -33q41 27 72.5 64t54.5 63q-57 -29 -116.5 -52.5t-96.5 -39.5q-78 -90 -133.5 -155.5t-96.5 -106.5q-6 0 -10 7t-4 9q12 20 55 81 t101.5 140.5t123 167.5t120 161t92 121t38.5 48q16 0 29.5 -15.5t13.5 -27.5l-2 -2q-25 -39 -57.5 -85t-70.5 -95t-78.5 -99.5t-79.5 -97.5q74 41 142.5 76t121.5 63q14 0 24 -12z" />
<glyph unicode="l" horiz-adv-x="188" d="M188 150h-2l9 -5q10 -6 10 -8q0 -6 -40 -45t-112 -80q-10 -4 -19 -8t-26 -4q-31 0 -43 19.5t-16 37.5q-4 35 11 68t34.5 64.5t42 61.5t43.5 54q55 70 108.5 138.5t97.5 127t75.5 99.5t46.5 55q4 4 14 4q16 0 28.5 -12t12.5 -25q0 -6 -2 -8l-2 -4q-37 -51 -86 -112.5 t-102.5 -127t-110 -134t-91 -115t-54 -76t-19.5 -54.5q0 -20 18 -20q20 0 57.5 16.5t88.5 63.5q12 12 18 18.5t10 10.5z" />
<glyph unicode="m" horiz-adv-x="579" d="M643 434q14 -18 14 -26q0 -6 -2 -9h2l-2 -2q-31 -35 -72.5 -74.5t-84.5 -82.5t-82 -88.5t-64 -88.5l25 11q45 23 85 41t69.5 32.5t47 22.5t17.5 10h-2q4 0 8 -2q8 -4 8 -12q0 -2 -21.5 -18.5t-57 -41t-84 -52t-99.5 -50.5l-6 -2q0 -2 -8 -2q-23 0 -34 15.5t-11 33.5 q0 33 25.5 76t60.5 84t70.5 78t58.5 59q-35 -14 -69 -25.5t-62 -21.5q-47 -59 -99.5 -114.5t-95.5 -97.5t-70.5 -67.5t-25.5 -25.5q-4 0 -11.5 4t-7.5 8q0 2 26 38t62.5 85t79.5 105.5t78 101.5q-82 -39 -147 -66q-37 -47 -81 -95t-82 -87t-65 -64l-26 -24h-2q-2 0 -6 4 q-8 4 -9 6q-2 2 0 2q4 8 28 43t55.5 80t66.5 94.5t63 87.5q-23 -4 -36 -6t-11 -2q-8 0 -8 10q0 2 15.5 12.5t35 24t38 24.5t24.5 13h2l4 2q10 0 29.5 -15t19.5 -24v-2v-2q-8 -16 -14 -24q29 18 61.5 36.5t60 35t45.5 27.5l19 11h2l4 2q10 0 29.5 -15t19.5 -26 q0 -6 -13 -23.5t-17 -23.5q33 16 67.5 33.5t63 31t49 23t24.5 9.5q11 -1 25 -15z" />
<glyph unicode="n" horiz-adv-x="380" d="M457 434q14 -18 14 -28q0 -2 -1 -3.5t-1 -3.5h2l-2 -2q-29 -35 -69 -73.5t-83 -81.5t-83.5 -88t-67.5 -88h2q88 37 146.5 73.5t60.5 40.5h-2q4 0 8 -2q8 -4 8 -12q0 -4 -39 -36t-97 -71t-76.5 -48t-33.5 -9q-29 0 -33 14.5t-8 22.5q0 33 21.5 73t52.5 78.5t65.5 75.5 t61.5 66q-39 -18 -76 -33.5t-67 -28.5q-39 -53 -82 -100t-79 -84t-59.5 -60.5t-23.5 -25.5h-2q-2 0 -6 4q-8 4 -8 6q-2 2 0 2q4 8 26.5 42t52 80t78.5 121t58.5 88t19.5 24.5t19.5 17.5t15.5 0h2q10 2 27.5 -11.5t13.5 -19.5v-2q-4 -6 -8 -13t-8 -15q37 20 76.5 42.5 t73.5 41t56.5 30t26.5 11.5q9 -1 27 -15z" />
<glyph unicode="o" horiz-adv-x="372" d="M344 317q0 -27 -5 -48t-15 -44q-12 -29 -36 -71.5t-57.5 -79.5t-79 -59.5t-96.5 -22.5q-29 0 -47 13t-27.5 31.5t-12.5 38t-3 34.5q0 70 30 126t68.5 96t72.5 62.5t44 26.5h2q31 8 35 -39q0 -10 -28.5 -37t-64.5 -59.5t-62.5 -80.5t-26.5 -93q0 -55 24 -56q53 0 97.5 29 t76 72t51 91t23.5 89q-20 0 -39.5 13t-19.5 40q0 25 11 41t36 21q16 0 26.5 -9.5t15.5 -21.5t6 -25.5t1 -21.5v-8q43 4 76 15t49 21q8 0 8 -6q0 -12 -19.5 -20t-44 -16.5t-46 -18t-23.5 -23.5zM303 367h2q0 18 -4 33.5t-8 15.5t-7 -9.5t-3 -15.5q0 -22 20 -24z" />
<glyph unicode="p" horiz-adv-x="452" d="M471 420q16 -8 21 -35q0 -16 -3 -20q-37 -92 -156.5 -227.5t-178.5 -137.5q-33 20 -40.5 85t-6 77t-31.5 -31t-103.5 -134t-131 -165t-98.5 -120l-38 -46q-2 0 -4 -2q-6 0 -10 6t-4 8q6 12 43 68.5t89 134.5t112.5 167t113.5 169t92 138.5t49 76.5v2q4 4 15 4 q14 0 29.5 -10t15.5 -20q39 10 83 17t89 7q10 0 23.5 -2t29.5 -10zM406 348q2 2 6 10q-94 0 -143.5 -13t-72 -41t-34.5 -46t-29 -41v-27.5t3 -48t10.5 -50t19.5 -40.5q27 14 61.5 49t67.5 78t63 88t48 82z" />
<glyph unicode="q" horiz-adv-x="389" d="M369 424q2 0 4 2q10 0 16 -23.5t6 -62.5q0 -53 -26.5 -125t-98.5 -137q16 -57 28.5 -100.5t16.5 -77.5q0 -6 -10 -6q-4 0 -24.5 48t-47.5 107q-33 -23 -73.5 -39t-81.5 -16q-35 0 -52.5 15.5t-26.5 36t-10 42t-1 33.5q0 78 27.5 138t63.5 101t70.5 63.5t49.5 27.5h2 q33 0 32 -39q0 -20 -8 -23l-4 -2q-25 -12 -52.5 -40t-52 -64.5t-41 -79.5t-16.5 -86q0 -41 5.5 -50.5t21.5 -9.5q31 0 62.5 13.5t64.5 29.5q-16 35 -26.5 58.5t-10.5 25.5q0 4 14.5 12.5t20.5 8.5l6 -2q10 -16 18.5 -33.5t16.5 -38.5q63 55 90 123t27 111q0 16 -2 30.5 t-7 18.5v4q1 4 9 6z" />
<glyph unicode="r" horiz-adv-x="339" d="M403 424q10 -10 12.5 -19.5t2.5 -15.5l-2 -2q-27 -33 -66 -72t-81 -79.5t-80.5 -85t-63.5 -84.5q2 2 4 2q78 39 140.5 73.5t62.5 38.5h-2q16 0 16 -14q0 -6 -30.5 -27.5t-64.5 -48.5t-74 -56.5t-77 -33.5q-14 0 -24 8l-10 15q-4 10 -5.5 16t-1.5 12q0 39 35 91.5 t80 103.5t89 93t65 60q-18 -10 -46 -18t-57 -19l-18 -6q-27 -43 -61.5 -85t-67.5 -75.5t-59.5 -55t-36.5 -25.5q-4 0 -13 18q-2 2 -2 4v2q23 10 72 59.5t104 143.5q-12 4 -22 15.5t-10 27.5q0 6 7 23.5t19.5 35t30.5 30.5t41 13q16 0 26.5 -13t10.5 -32q0 -12 -6.5 -22 t-10.5 -21q51 12 85 20.5t63 18.5q10 0 26 -14zM156 383q4 4 8 11t8 16q-10 -14 -14 -21q-2 -4 -4 -6h2z" />
<glyph unicode="s" horiz-adv-x="456" d="M455 182q2 0 5 -4t3 -6t-38 -36t-77 -77t-59 -43q-8 0 -17 9l-14 32q-35 -31 -78 -50t-88 -19q-57 0 -92 27.5t-35 68.5q0 37 16.5 62.5t39 44t48 27.5t44.5 11q8 0 23.5 18.5t32.5 43t34.5 50.5t27.5 40q-10 10 -19 17.5t-13 11.5l-2 2q-6 2 -7 16q0 20 12.5 30.5 t28.5 10.5l5 -2q20 -12 41.5 -31.5t40 -44t30.5 -56.5t12 -71q0 -29 -6 -57.5t-18 -50.5q-10 -18 -20.5 -32.5t-10.5 -41.5q23 16 47.5 34.5t46 33t36 23.5t18.5 9h2zM129 57q33 12 62.5 35t51 50.5t34 58t12.5 59.5q0 23 -7.5 44.5t-17.5 37.5q-25 -33 -57.5 -64.5 t-54.5 -50.5q37 -6 56 -16t19 -8q0 -2 2 -2q0 -2 1 -2t1 -2q0 -6 -6 -13q-2 -2 -4 -2q-6 0 -29.5 7.5t-52.5 7.5q-43 0 -83 -32t-40 -75t62 -43q24 0 51 10z" />
<glyph unicode="t" horiz-adv-x="190" d="M979 543q8 0 8 -6q0 -4 -56.5 -7.5t-147.5 -5.5t-208.5 -4t-240.5 -4q-43 -55 -97.5 -117.5t-102.5 -124t-82 -119t-46 -110.5q49 4 86 26.5t55.5 39t28.5 24.5t13.5 11.5t5.5 3.5q12 0 12 -13l-2 2q-4 0 -18.5 -20.5t-39 -45t-60.5 -46t-81 -25.5q-14 0 -18 2l-8 4 q-6 4 -16.5 20.5t-0.5 55.5t41 98.5t71 116.5t84 111.5t81 103.5q-141 -4 -263 -6t-200 -2h-50.5t-31.5 2h-2q-27 0 -27 22q0 18 25 23h4q25 4 51.5 4h54.5h78h395q49 66 85 110t51 56v2q4 4 14 4q16 0 28.5 -12t12.5 -25q0 -6 -2 -8h2l-2 -4q-20 -29 -44 -58.5t-50 -64.5 q121 -2 231.5 -4t194.5 -3t134 -3t50 -4z" />
<glyph unicode="u" horiz-adv-x="413" d="M483 434q14 -14 15 -28q0 -2 -1 -3.5t-1 -3.5l-2 -2q-29 -35 -69 -73.5t-83 -81.5t-83 -88t-66 -88q98 43 149 78.5t59 35.5q-2 0 5.5 -3t7.5 -13q0 -4 -32 -27.5t-79 -56.5q-12 -8 -29.5 -21.5t-36 -26t-37 -21.5t-32.5 -9q-25 0 -32 12.5t-7 24.5q0 35 8 49l-17 -12 q-18 -13 -41.5 -27t-49 -26.5t-43.5 -12.5q-23 0 -35 20.5t-12 30.5q-6 31 40 111t83.5 128t69.5 81t38 39q16 2 32.5 -13.5t16.5 -31.5v-2q-20 -29 -50 -66t-60.5 -78t-59.5 -82t-47 -77q2 2 3 2t3 2q45 16 98.5 37.5t75.5 52.5q35 45 78 94t82 87t66.5 64.5t37.5 36.5h3 q2 2 6 3q14 -1 28 -15z" />
<glyph unicode="v" horiz-adv-x="339" d="M397 285q0 -2 1 -3t1 -6q0 -14 -20.5 -16t-73.5 -2q-37 -45 -72.5 -88t-64.5 -78t-50.5 -59.5t-29.5 -32.5h-2q-2 -2 -6 -2h2q-16 2 -33.5 8t-33 20.5t-25.5 39t-10 61.5q0 57 30.5 114.5t68.5 103.5t71.5 78t39.5 38h3q12 0 28.5 -18.5t16.5 -28.5v-2q-25 -29 -61 -65 t-70.5 -77t-59 -84t-24.5 -82q0 -33 16 -55q37 53 87 109.5t110 115.5q-10 6 -14.5 18.5t-4.5 22.5q0 33 35 52.5t57 21.5q23 2 36 -8t13 -33t-10 -36t-18 -21q16 -2 27.5 -3t21.5 -1h18v-2zM264 307q10 8 17.5 15.5t13.5 11.5q-10 -4 -21.5 -9.5t-11.5 -11.5t2 -6z" />
<glyph unicode="w" horiz-adv-x="532" d="M596 285q0 -2 1 -3t1 -6q0 -14 -20.5 -16t-73.5 -2q-37 -45 -72 -88t-64.5 -78t-51 -59.5t-29.5 -32.5h-2q-2 -2 -6 -2h2q-29 4 -52 16q-20 10 -35.5 28.5t-19.5 51.5q-29 -37 -55.5 -67.5t-30.5 -30.5h4q-33 4 -57 18q-23 12 -39 39t-16 74q0 55 29.5 109.5t66.5 100.5 t69.5 75.5t38.5 36.5h2q6 0 14.5 -6.5t16.5 -14.5t13.5 -16.5t2.5 -10.5l-2 -2q-23 -29 -57.5 -63.5t-68 -73.5t-58 -79t-24.5 -77q0 -16 6 -33.5t14 -23.5q23 35 61.5 74t77.5 72q20 59 50 96t32 37q4 0 13.5 -5.5t17.5 -12.5t14 -14t6 -9v-2q-10 -18 -26.5 -41 t-31.5 -47.5t-26.5 -49t-11.5 -47.5q0 -16 6 -28.5t13 -22.5q35 51 85 105.5t109 119.5q-10 6 -13 17.5t-3 23.5q0 16 10 30.5t23.5 24t29 14.5t27.5 5q23 2 37 -9t14 -30q0 -23 -10 -37t-19 -22q16 -2 26.5 -3t20.5 -1h19zM463 307q8 8 15 15.5t16 11.5q-10 -4 -22.5 -9.5 t-12.5 -13.5q0 -4 4 -4z" />
<glyph unicode="x" horiz-adv-x="311" d="M358 434q16 -23 17 -33l-2 -2q-35 -41 -84 -90t-103 -102q16 -68 28.5 -123t16.5 -94q0 -10 -16 -10q-6 0 -27.5 53t-50.5 125q-78 -74 -134 -133.5t-56 -83.5q0 -4 4 -9q0 2 -2 -5t-12 -7q-6 0 -7.5 7t-1.5 12q0 25 15.5 56.5t41 69t58.5 78.5t68 82q-23 53 -37.5 97.5 t-18.5 56.5q0 8 20.5 17.5t35.5 9.5q6 0 6 -3h2q12 -27 24.5 -55.5t22.5 -62.5q29 31 57.5 60.5t51 53t37 37t18.5 13.5q14 -1 28 -15z" />
<glyph unicode="y" horiz-adv-x="407" d="M395 180q6 0 9.5 -6t3.5 -10t-32 -27.5t-79 -56.5q-12 -8 -29.5 -21.5t-36 -26t-37 -21.5t-32.5 -9q-8 0 -10 2q-117 -162 -170.5 -251t-51.5 -89q-18 0 -18 10q0 8 17.5 47t48 96.5t69.5 127t82 137.5q-4 -4 -21.5 -19.5t-41 -33t-51 -30.5t-52.5 -13q-29 0 -36 17 t-7 30q-2 20 8.5 44.5t31 60.5t53 87t62 91t53.5 68t34 36h2q2 2 6 2q16 0 29.5 -15.5t13.5 -27.5l-2 -6q-23 -29 -55.5 -70t-66.5 -86t-62.5 -90t-42.5 -82q61 27 114.5 56.5t71.5 52.5q45 57 87 107t78 89t62.5 64.5t42.5 34.5q4 2 11 2q12 0 28.5 -19.5t7.5 -34.5 q-27 -35 -61.5 -70.5t-73.5 -76.5t-77.5 -85t-73.5 -93q37 25 72.5 43t63.5 32.5t44 21.5t14 11z" />
<glyph unicode="z" horiz-adv-x="380" d="M383 393q14 -20 14 -31q-18 -23 -45.5 -48t-57.5 -51.5t-58.5 -55.5t-49.5 -57q-10 -10 -10 -19q0 -6 10 -10q33 27 59.5 40t39.5 13h2q10 0 18 -16.5t8 -34.5q0 -4 -2 -6t-2 -6h-2q-43 -14 -86 -52.5t-83 -86.5t-74.5 -100t-60.5 -97t-41 -76t-15 -35l-4 -2q-10 0 -13 2 l-4 4q0 10 15.5 59.5t43 114t68.5 131t94 113.5q-20 20 -20 41q0 33 16.5 64.5t39 60.5t48 52.5t43.5 39.5q-12 -6 -36.5 -19.5t-40.5 -13.5q-39 -47 -89.5 -91t-96.5 -79t-79.5 -56.5t-37.5 -21.5q-8 0 -9 11q0 2 26 24.5t62.5 56t78.5 73.5t75 79q-20 8 -21 37 q0 18 15.5 40t37 40t43 30.5t34.5 12.5q25 0 29.5 -17.5t4.5 -23.5q0 -23 -17 -40t-24 -28q27 8 50.5 15.5t42.5 11.5q10 10 19 18.5t13 8.5q6 -1 29 -19z" />
<glyph unicode="&#xa8;" horiz-adv-x="249" d="M66 584q37 -31 36 -54q0 -16 -15 -25t-30 -9q-29 0 -28 22q0 16 30 27q-6 25 -8 33t-2 14q0 4 2 4zM158 584q37 -31 37 -54q0 -16 -15.5 -25t-29.5 -9q-29 0 -29 22q0 16 31 27q-6 25 -8.5 33t-2.5 14q0 4 2 4z" />
<glyph unicode="&#xad;" horiz-adv-x="464" d="M430 270q8 -2 8 -32q0 -27 -12 -34t-29 -7q-53 0 -117.5 7t-123 15t-97.5 15.5t-39 9.5l-2 -2v12q0 6 30 10t76 6t101.5 2h108.5h60.5t35.5 -2z" />
<glyph unicode="&#xb4;" horiz-adv-x="364" d="M295 524l-2 -2q-18 -14 -47 -23.5t-57.5 -15.5t-53 -9t-37.5 -3q-8 0 -8 4q0 2 23.5 12.5t54.5 22.5t60.5 24.5t41.5 18.5q25 0 25 -29z" />
<glyph unicode="&#xb8;" horiz-adv-x="299" d="M-43 -147q-23 2 -46.5 9t-23.5 29q0 23 14.5 30t30.5 7q51 -4 59.5 -12t8.5 -6q-2 -2 -2 -4h-2q-4 0 -22.5 4t-36.5 4q-12 0 -23.5 -4t-11.5 -14t19.5 -15.5t47.5 -5.5q29 0 60.5 7t54.5 14q-10 2 -29.5 6t-40 13t-36 23.5t-15.5 34.5q0 27 14.5 42.5t14.5 19.5 q-2 0 9 -6t19 -6q6 0 9.5 4t5.5 4q0 -2 2 -4q0 -2 -1 -3t-1 -4l-2 -4q-10 -16 -18.5 -27.5t-8.5 -17.5t18.5 -12t41 -15.5t41 -20.5t18.5 -25q0 -16 -15.5 -25.5t-38 -14.5t-47 -6.5t-42.5 -1.5q-6 0 -12.5 1.5t-12.5 1.5z" />
<glyph unicode="&#xbf;" horiz-adv-x="708" d="M694.001 829.99q-3.99902 -28.998 -36.4971 -48.4961q-32.498 -19.499 -61.4961 -33.498h-2q-15.999 3.99902 -15.999 11.999q0 4 6.99902 20.499q7 16.499 17.499 34.9971q10.499 18.499 20.499 33.498q9.99902 14.999 13.999 16.999zM602.007 227.027 q22.999 -5.99902 29.998 -23.498q7 -17.499 7 -29.498q0 -48.9971 -32.498 -93.9951q-32.498 -44.9971 -81.9951 -82.9941q-49.4971 -37.998 -104.493 -67.4961q-54.9971 -29.498 -99.9941 -50.4971q-50.9971 -22.999 -108.493 -44.9971q-57.4971 -21.999 -117.493 -21.999 q-32.998 0 -51.9971 25.499q-18.999 25.498 -18.999 54.4961q4 24.999 27.499 68.4961q23.498 43.4971 59.4961 97.9941q35.998 54.4961 78.9951 114.993q42.9971 60.4961 83.9951 117.492q81.9951 114.993 139.991 195.488t94.9941 130.992t54.4971 72.9951 q17.499 22.499 13.499 22.499q11.999 0 11.999 -11.999q0 -12 -41.9971 -80.9951q-41.998 -68.9961 -109.493 -173.49q-67.4961 -104.493 -152.491 -233.485t-170.989 -261.984q-10 -15.999 -14.499 -30.498q-4.5 -14.499 -8.5 -28.498q0 -11.999 4 -12.999 q22.999 0 58.9961 12.499q35.998 12.499 65.9961 24.499q60.9961 24.998 118.493 54.4961q57.4961 29.498 103.993 61.4961t77.9951 64.4961t43.498 63.4961q-14 0 -26.499 -2.99902q-12.499 -3 -22.498 -5l-2 -2q-13.999 0 -29.498 6q-15.499 5.99902 -15.499 17.999 q0 11.999 8.49902 24.498q8.5 12.499 18.499 16.499l6 2q13.999 4 32.498 10.499q18.498 6.5 39.4971 6.5q11.999 -1 29.998 -7z" />
<glyph unicode="&#xc0;" d="M680 123q-78 -55 -182.5 -129t-229.5 -139q-49 -27 -99 -52.5t-124 -35.5q-41 4 -62.5 31.5t-21.5 66.5q0 45 18.5 94t47 96t62.5 91t65 79q80 92 168 179.5t181 161t190.5 131t197.5 91.5q25 8 67 9q70 0 102 -39t32 -90t-25 -98.5t-55.5 -85.5t-59 -63.5t-37.5 -33.5 l-2 -2q29 -23 29 -43q0 -2 -1 -3t-1 -3h-2q-23 -23 -57.5 -55.5t-67.5 -68.5t-55.5 -73t-22.5 -67q0 -12 6.5 -29.5t22.5 -17.5q20 0 49 18q70 37 94.5 66.5t28.5 29.5t10 -4t6 -8q0 -2 -15 -25.5t-43 -52.5t-63.5 -52.5t-74.5 -23.5q-27 0 -42.5 13.5t-24.5 33t-12 42 t-3 38.5q4 17 6 23zM106 -168q92 37 179.5 83t165 93t141 90t108.5 76q37 72 87.5 118t74.5 70q-23 0 -22 21q0 18 22 47l8 6q23 23 48.5 51.5t48 59.5t37 62.5t14.5 60.5q0 23 -12.5 38t-42.5 15q-29 0 -61 -9t-62 -24q-104 -47 -224 -129t-233 -185.5t-207 -221 t-147 -236.5q-12 -31 -13 -57q0 -23 10.5 -33t24.5 -10q12 0 25.5 5t29.5 9zM926 882q-2 0 14 13q8 6 17 14v2v-2q2 -6 28.5 -17.5t57 -23.5t56.5 -22l26 -11l-2 -6l-21 2q-22 2 -53 7t-65 14.5t-58 25.5l-2 2q0 2 2 2z" />
<glyph unicode="&#xc1;" d="M680 123q-78 -55 -182.5 -129t-229.5 -139q-49 -27 -99 -52.5t-124 -35.5q-41 4 -62.5 31.5t-21.5 66.5q0 45 18.5 94t47 96t62.5 91t65 79q80 92 168 179.5t181 161t190.5 131t197.5 91.5q25 8 67 9q70 0 102 -39t32 -90t-25 -98.5t-55.5 -85.5t-59 -63.5t-37.5 -33.5 l-2 -2q29 -23 29 -43q0 -2 -1 -3t-1 -3h-2q-23 -23 -57.5 -55.5t-67.5 -68.5t-55.5 -73t-22.5 -67q0 -12 6.5 -29.5t22.5 -17.5q20 0 49 18q70 37 94.5 66.5t28.5 29.5t10 -4t6 -8q0 -2 -15 -25.5t-43 -52.5t-63.5 -52.5t-74.5 -23.5q-27 0 -42.5 13.5t-24.5 33t-12 42 t-3 38.5q4 17 6 23zM106 -168q92 37 179.5 83t165 93t141 90t108.5 76q37 72 87.5 118t74.5 70q-23 0 -22 21q0 18 22 47l8 6q23 23 48.5 51.5t48 59.5t37 62.5t14.5 60.5q0 23 -12.5 38t-42.5 15q-29 0 -61 -9t-62 -24q-104 -47 -224 -129t-233 -185.5t-207 -221 t-147 -236.5q-12 -31 -13 -57q0 -23 10.5 -33t24.5 -10q12 0 25.5 5t29.5 9zM1120 882l-2 -2q-18 -14 -47 -23.5t-57.5 -15.5t-53 -9t-37.5 -3q-8 0 -8 4q0 2 23.5 12.5t54.5 22.5t60.5 24.5t41.5 18.5q25 0 25 -29z" />
<glyph unicode="&#xc2;" d="M680 123q-78 -55 -182.5 -129t-229.5 -139q-49 -27 -99 -52.5t-124 -35.5q-41 4 -62.5 31.5t-21.5 66.5q0 45 18.5 94t47 96t62.5 91t65 79q80 92 168 179.5t181 161t190.5 131t197.5 91.5q25 8 67 9q70 0 102 -39t32 -90t-25 -98.5t-55.5 -85.5t-59 -63.5t-37.5 -33.5 l-2 -2q29 -23 29 -43q0 -2 -1 -3t-1 -3h-2q-23 -23 -57.5 -55.5t-67.5 -68.5t-55.5 -73t-22.5 -67q0 -12 6.5 -29.5t22.5 -17.5q20 0 49 18q70 37 94.5 66.5t28.5 29.5t10 -4t6 -8q0 -2 -15 -25.5t-43 -52.5t-63.5 -52.5t-74.5 -23.5q-27 0 -42.5 13.5t-24.5 33t-12 42 t-3 38.5q4 17 6 23zM106 -168q92 37 179.5 83t165 93t141 90t108.5 76q37 72 87.5 118t74.5 70q-23 0 -22 21q0 18 22 47l8 6q23 23 48.5 51.5t48 59.5t37 62.5t14.5 60.5q0 23 -12.5 38t-42.5 15q-29 0 -61 -9t-62 -24q-104 -47 -224 -129t-233 -185.5t-207 -221 t-147 -236.5q-12 -31 -13 -57q0 -23 10.5 -33t24.5 -10q12 0 25.5 5t29.5 9zM1041 905q-16 0 -42 -8.5t-53.5 -18.5t-51 -18t-34.5 -8q-8 0 -8 6l22 14q23 14 53 31.5t61.5 32t50.5 14.5q16 0 29.5 -9.5t52.5 -50.5q41 -39 52 -48t13 -9v-2q0 -2 -2 -2q-8 0 -30.5 12.5 t-47 25.5t-44 25.5t-21.5 12.5z" />
<glyph unicode="&#xc3;" d="M680 123q-78 -55 -182.5 -129t-229.5 -139q-49 -27 -99 -52.5t-124 -35.5q-41 4 -62.5 31.5t-21.5 66.5q0 45 18.5 94t47 96t62.5 91t65 79q80 92 168 179.5t181 161t190.5 131t197.5 91.5q25 8 67 9q70 0 102 -39t32 -90t-25 -98.5t-55.5 -85.5t-59 -63.5t-37.5 -33.5 l-2 -2q29 -23 29 -43q0 -2 -1 -3t-1 -3h-2q-23 -23 -57.5 -55.5t-67.5 -68.5t-55.5 -73t-22.5 -67q0 -12 6.5 -29.5t22.5 -17.5q20 0 49 18q70 37 94.5 66.5t28.5 29.5t10 -4t6 -8q0 -2 -15 -25.5t-43 -52.5t-63.5 -52.5t-74.5 -23.5q-27 0 -42.5 13.5t-24.5 33t-12 42 t-3 38.5q4 17 6 23zM106 -168q92 37 179.5 83t165 93t141 90t108.5 76q37 72 87.5 118t74.5 70q-23 0 -22 21q0 18 22 47l8 6q23 23 48.5 51.5t48 59.5t37 62.5t14.5 60.5q0 23 -12.5 38t-42.5 15q-29 0 -61 -9t-62 -24q-104 -47 -224 -129t-233 -185.5t-207 -221 t-147 -236.5q-12 -31 -13 -57q0 -23 10.5 -33t24.5 -10q12 0 25.5 5t29.5 9zM1139 893q10 -14 10 -19l-2 -2q-16 -20 -51 -20q-41 0 -71.5 20.5t-53.5 20.5q-33 0 -52.5 -12.5t-21.5 -12.5l-4 2l-4 4v2l9.5 9.5t19.5 15.5t29.5 15t37.5 7q33 0 65 -13t48 -13q14 0 19.5 4 t7.5 4t14 -12z" />
<glyph unicode="&#xc4;" d="M680 123q-78 -55 -182.5 -129t-229.5 -139q-49 -27 -99 -52.5t-124 -35.5q-41 4 -62.5 31.5t-21.5 66.5q0 45 18.5 94t47 96t62.5 91t65 79q80 92 168 179.5t181 161t190.5 131t197.5 91.5q25 8 67 9q70 0 102 -39t32 -90t-25 -98.5t-55.5 -85.5t-59 -63.5t-37.5 -33.5 l-2 -2q29 -23 29 -43q0 -2 -1 -3t-1 -3h-2q-23 -23 -57.5 -55.5t-67.5 -68.5t-55.5 -73t-22.5 -67q0 -12 6.5 -29.5t22.5 -17.5q20 0 49 18q70 37 94.5 66.5t28.5 29.5t10 -4t6 -8q0 -2 -15 -25.5t-43 -52.5t-63.5 -52.5t-74.5 -23.5q-27 0 -42.5 13.5t-24.5 33t-12 42 t-3 38.5q4 17 6 23zM106 -168q92 37 179.5 83t165 93t141 90t108.5 76q37 72 87.5 118t74.5 70q-23 0 -22 21q0 18 22 47l8 6q23 23 48.5 51.5t48 59.5t37 62.5t14.5 60.5q0 23 -12.5 38t-42.5 15q-29 0 -61 -9t-62 -24q-104 -47 -224 -129t-233 -185.5t-207 -221 t-147 -236.5q-12 -31 -13 -57q0 -23 10.5 -33t24.5 -10q12 0 25.5 5t29.5 9zM967 942q37 -31 36 -54q0 -16 -15 -25t-30 -9q-29 0 -28 22q0 16 30 27q-6 25 -8 33t-2 14q0 4 2 4zM1059 942q37 -31 37 -54q0 -16 -15.5 -25t-29.5 -9q-29 0 -29 22q0 16 31 27q-6 25 -8.5 33 t-2.5 14q0 4 2 4z" />
<glyph unicode="&#xc5;" d="M1014 872q-12 -10 -17 5v4q0 16 14.5 31.5t35.5 15.5q23 0 37 -19.5t14 -38.5q0 -20 -13.5 -33.5t-31.5 -13.5q-29 0 -38 15.5t-9 19.5q-2 0 0 2q0 2 8 2q4 -2 6 -9t22 -7q10 0 19.5 6t9.5 16t-6 18.5t-14 8.5q-16 0 -20.5 -8.5t-16.5 -14.5zM680 123 q-78 -55 -182.5 -129t-229.5 -139q-49 -27 -99 -52.5t-124 -35.5q-41 4 -62.5 31.5t-21.5 66.5q0 45 18.5 94t47 96t62.5 91t65 79q80 92 168 179.5t181 161t190.5 131t197.5 91.5q25 8 67 9q70 0 102 -39t32 -90t-25 -98.5t-55.5 -85.5t-59 -63.5t-37.5 -33.5l-2 -2 q29 -23 29 -43q0 -2 -1 -3t-1 -3h-2q-23 -23 -57.5 -55.5t-67.5 -68.5t-55.5 -73t-22.5 -67q0 -12 6.5 -29.5t22.5 -17.5q20 0 49 18q70 37 94.5 66.5t28.5 29.5t10 -4t6 -8q0 -2 -15 -25.5t-43 -52.5t-63.5 -52.5t-74.5 -23.5q-27 0 -42.5 13.5t-24.5 33t-12 42t-3 38.5 q4 17 6 23zM106 -168q92 37 179.5 83t165 93t141 90t108.5 76q37 72 87.5 118t74.5 70q-23 0 -22 21q0 18 22 47l8 6q23 23 48.5 51.5t48 59.5t37 62.5t14.5 60.5q0 23 -12.5 38t-42.5 15q-29 0 -61 -9t-62 -24q-104 -47 -224 -129t-233 -185.5t-207 -221t-147 -236.5 q-12 -31 -13 -57q0 -23 10.5 -33t24.5 -10q12 0 25.5 5t29.5 9z" />
<glyph unicode="&#xc6;" horiz-adv-x="1312" d="M680 123q-78 -55 -182.5 -129t-229.5 -139q-49 -27 -99 -52.5t-124 -35.5q-41 4 -62.5 31.5t-21.5 66.5q0 45 18.5 94t47 96t62.5 91t65 79q80 92 168 179.5t181 161t190.5 131t197.5 91.5q25 8 67 9q70 0 102 -39t32 -90t-30 -94.5t-55.5 -85.5t-54 -67.5t-37.5 -33.5 l-2 -2q29 -23 29 -43q0 -2 -1 -3t-1 -3h-2q-23 -23 -57.5 -55.5t-67.5 -68.5t-86 -82t-53 -30q4 17 6 23zM106 -168q92 37 179.5 83t165 93t141 90t108.5 76q37 72 87.5 118t74.5 70q-23 0 -22 21q0 18 22 47l8 6q23 23 48.5 51.5t48 59.5t37 62.5t14.5 60.5q0 23 -12.5 38 t-42.5 15q-29 0 -61 -9t-62 -24q-104 -47 -224 -129t-233 -185.5t-207 -221t-147 -236.5q-12 -31 -13 -57q0 -23 10.5 -33t24.5 -10q12 0 25.5 5t29.5 9zM770 256q43 31 72.5 51.5t51 34.5t39 22.5t36.5 14.5q-10 6 -21.5 19.5t-11.5 25.5q0 45 36 91t93 87t126 77 t135.5 62.5t121.5 41t84 14.5q6 0 18.5 -3t23.5 -10.5t20.5 -20.5t9.5 -34q-6 -49 -57.5 -98t-115 -88t-125 -64.5t-87.5 -27.5h-5q-33 0 -32 28q0 27 18 37h4q68 20 153 69.5t156 114.5q18 25 19 27q-37 0 -90 -12.5t-111.5 -35t-118 -51t-109.5 -62.5t-85 -69.5t-45 -70.5 q0 -14 13 -17t26 -3q12 0 23.5 2t21.5 4q66 20 115 24t71 6h4q16 0 27.5 -10t11.5 -20q0 -33 -35 -37h-6q-119 -12 -238.5 -62.5t-248.5 -160.5q-29 -25 -65 -58t-67.5 -68.5t-53 -72.5t-21.5 -68q0 -23 20.5 -34t51.5 -11q63 0 120 33q129 78 239 153.5t191.5 135t128 95.5 t46.5 34l2 2q2 0 3 1t3 1q10 0 10 -10q0 -4 -40 -40t-109.5 -92.5t-160.5 -127t-196 -146.5q-49 -35 -113.5 -67.5t-132.5 -32.5q-18 0 -40.5 6t-41 20.5t-31 36t-12.5 52.5q0 45 17.5 84.5t53.5 81.5t88 89.5t122 106.5z" />
<glyph unicode="&#xc7;" horiz-adv-x="770" d="M12 -176q-10 20 -13 40.5t-3 39.5q0 53 23.5 101t50.5 89q104 160 251.5 293t296.5 244q39 29 83 57.5t89.5 52t89.5 38t85 14.5q27 0 50 -21.5t23 -54.5q0 -16 -6 -31.5t-10 -26.5q-66 -98 -136.5 -153t-127.5 -103q-57 -47 -101.5 -73.5t-66.5 -38.5l-6 -4 q-23 -12 -43 -13q-29 0 -29 17q0 14 7 26.5t28 26.5l8 6q47 29 111.5 74t126 97t109.5 104.5t63 93.5q-29 -2 -85.5 -23.5t-103.5 -52.5q-96 -61 -196.5 -135t-194.5 -157t-175 -175t-138 -190q-10 -18 -16.5 -42t-6.5 -44q0 -31 14.5 -56.5t42.5 -25.5q43 0 108 35.5 t133.5 84t131 97.5t101.5 78q100 76 154 116.5t81 61t33 24.5t10 4q10 0 10 -8q0 -6 -30.5 -33.5t-86 -72.5t-134 -105.5t-173.5 -132.5q-41 -31 -85 -62.5t-93 -62.5q-35 -23 -78 -48t-86 -25q-29 0 -51.5 16t-38.5 39zM2 -378q-23 2 -46.5 9t-23.5 29q0 23 14.5 30t30.5 7 q51 -4 59.5 -12t8.5 -6q-2 -2 -2 -4h-2q-4 0 -22.5 4t-36.5 4q-12 0 -23.5 -4t-11.5 -14t19.5 -15.5t47.5 -5.5q29 0 60.5 7t54.5 14q-10 2 -29.5 6t-40 13t-36 23.5t-15.5 34.5q0 27 14.5 42.5t14.5 19.5q-2 0 9 -6t19 -6q6 0 9.5 4t5.5 4q0 -2 2 -4q0 -2 -1 -3t-1 -4 l-2 -4q-10 -16 -18.5 -27.5t-8.5 -17.5t18.5 -12t41 -15.5t41 -20.5t18.5 -25q0 -16 -15.5 -25.5t-38 -14.5t-47 -6.5t-42.5 -1.5q-6 0 -12.5 1.5t-12.5 1.5z" />
<glyph unicode="&#xc8;" horiz-adv-x="792" d="M264 256q43 31 73 51.5t51.5 34.5t38.5 22.5t36 14.5q-10 6 -21.5 19.5t-11.5 25.5q0 45 36 91t93 87t126 77t135.5 62.5t121.5 41t84 14.5q6 0 18.5 -3t23.5 -10.5t20.5 -20.5t9.5 -34q-6 -49 -57.5 -98t-115 -88t-125 -64.5t-87.5 -27.5h-4q-33 0 -33 28q0 27 18 37h4 q68 20 153 69.5t157 114.5q18 25 18 27q-37 0 -90 -12.5t-111.5 -35t-118 -51t-109.5 -62.5t-85 -69.5t-45 -70.5q0 -14 13.5 -17t25.5 -3t23.5 2t21.5 4q66 20 115 24t71 6h4q16 0 27.5 -10t11.5 -20q0 -33 -35 -37h-6q-119 -12 -238.5 -62.5t-248.5 -160.5 q-29 -25 -64.5 -58t-67.5 -68.5t-53.5 -72.5t-21.5 -68q0 -23 20.5 -34t51.5 -11q63 0 121 33q129 78 238.5 153.5t191.5 135t128 95.5t46 34l2 2q2 0 3 1t3 1q10 0 10 -10q0 -4 -40 -40t-109.5 -92.5t-160.5 -127t-196 -146.5q-49 -35 -113.5 -67.5t-131.5 -32.5 q-18 0 -41 6t-41.5 20.5t-30.5 36t-12 52.5q0 45 17 84.5t53 81.5t88 89.5t122 106.5zM887 884q-2 0 14 13q8 6 17 14v2v-2q2 -6 28.5 -17.5t57 -23.5t56.5 -22l26 -11l-2 -6l-21 2q-22 2 -53 7t-65 14.5t-58 25.5l-2 2q0 2 2 2z" />
<glyph unicode="&#xc9;" horiz-adv-x="792" d="M264 256q43 31 73 51.5t51.5 34.5t38.5 22.5t36 14.5q-10 6 -21.5 19.5t-11.5 25.5q0 45 36 91t93 87t126 77t135.5 62.5t121.5 41t84 14.5q6 0 18.5 -3t23.5 -10.5t20.5 -20.5t9.5 -34q-6 -49 -57.5 -98t-115 -88t-125 -64.5t-87.5 -27.5h-4q-33 0 -33 28q0 27 18 37h4 q68 20 153 69.5t157 114.5q18 25 18 27q-37 0 -90 -12.5t-111.5 -35t-118 -51t-109.5 -62.5t-85 -69.5t-45 -70.5q0 -14 13.5 -17t25.5 -3t23.5 2t21.5 4q66 20 115 24t71 6h4q16 0 27.5 -10t11.5 -20q0 -33 -35 -37h-6q-119 -12 -238.5 -62.5t-248.5 -160.5 q-29 -25 -64.5 -58t-67.5 -68.5t-53.5 -72.5t-21.5 -68q0 -23 20.5 -34t51.5 -11q63 0 121 33q129 78 238.5 153.5t191.5 135t128 95.5t46 34l2 2q2 0 3 1t3 1q10 0 10 -10q0 -4 -40 -40t-109.5 -92.5t-160.5 -127t-196 -146.5q-49 -35 -113.5 -67.5t-131.5 -32.5 q-18 0 -41 6t-41.5 20.5t-30.5 36t-12 52.5q0 45 17 84.5t53 81.5t88 89.5t122 106.5zM1088 882l-2 -2q-18 -14 -47 -23.5t-57.5 -15.5t-53 -9t-37.5 -3q-8 0 -8 4q0 2 23.5 12.5t54.5 22.5t60.5 24.5t41.5 18.5q25 0 25 -29z" />
<glyph unicode="&#xca;" horiz-adv-x="792" d="M264 256q43 31 73 51.5t51.5 34.5t38.5 22.5t36 14.5q-10 6 -21.5 19.5t-11.5 25.5q0 45 36 91t93 87t126 77t135.5 62.5t121.5 41t84 14.5q6 0 18.5 -3t23.5 -10.5t20.5 -20.5t9.5 -34q-6 -49 -57.5 -98t-115 -88t-125 -64.5t-87.5 -27.5h-4q-33 0 -33 28q0 27 18 37h4 q68 20 153 69.5t157 114.5q18 25 18 27q-37 0 -90 -12.5t-111.5 -35t-118 -51t-109.5 -62.5t-85 -69.5t-45 -70.5q0 -14 13.5 -17t25.5 -3t23.5 2t21.5 4q66 20 115 24t71 6h4q16 0 27.5 -10t11.5 -20q0 -33 -35 -37h-6q-119 -12 -238.5 -62.5t-248.5 -160.5 q-29 -25 -64.5 -58t-67.5 -68.5t-53.5 -72.5t-21.5 -68q0 -23 20.5 -34t51.5 -11q63 0 121 33q129 78 238.5 153.5t191.5 135t128 95.5t46 34l2 2q2 0 3 1t3 1q10 0 10 -10q0 -4 -40 -40t-109.5 -92.5t-160.5 -127t-196 -146.5q-49 -35 -113.5 -67.5t-131.5 -32.5 q-18 0 -41 6t-41.5 20.5t-30.5 36t-12 52.5q0 45 17 84.5t53 81.5t88 89.5t122 106.5zM1010 905q-16 0 -42 -8.5t-53.5 -18.5t-51 -18t-34.5 -8q-8 0 -8 6l22 14q23 14 53 31.5t61.5 32t50.5 14.5q16 0 29.5 -9.5t52.5 -50.5q41 -39 52 -48t13 -9v-2q0 -2 -2 -2 q-8 0 -30.5 12.5t-47 25.5t-44 25.5t-21.5 12.5z" />
<glyph unicode="&#xcb;" horiz-adv-x="792" d="M264 256q43 31 73 51.5t51.5 34.5t38.5 22.5t36 14.5q-10 6 -21.5 19.5t-11.5 25.5q0 45 36 91t93 87t126 77t135.5 62.5t121.5 41t84 14.5q6 0 18.5 -3t23.5 -10.5t20.5 -20.5t9.5 -34q-6 -49 -57.5 -98t-115 -88t-125 -64.5t-87.5 -27.5h-4q-33 0 -33 28q0 27 18 37h4 q68 20 153 69.5t157 114.5q18 25 18 27q-37 0 -90 -12.5t-111.5 -35t-118 -51t-109.5 -62.5t-85 -69.5t-45 -70.5q0 -14 13.5 -17t25.5 -3t23.5 2t21.5 4q66 20 115 24t71 6h4q16 0 27.5 -10t11.5 -20q0 -33 -35 -37h-6q-119 -12 -238.5 -62.5t-248.5 -160.5 q-29 -25 -64.5 -58t-67.5 -68.5t-53.5 -72.5t-21.5 -68q0 -23 20.5 -34t51.5 -11q63 0 121 33q129 78 238.5 153.5t191.5 135t128 95.5t46 34l2 2q2 0 3 1t3 1q10 0 10 -10q0 -4 -40 -40t-109.5 -92.5t-160.5 -127t-196 -146.5q-49 -35 -113.5 -67.5t-131.5 -32.5 q-18 0 -41 6t-41.5 20.5t-30.5 36t-12 52.5q0 45 17 84.5t53 81.5t88 89.5t122 106.5zM940 942q37 -31 36 -54q0 -16 -15 -25t-30 -9q-29 0 -28 22q0 16 30 27q-6 25 -8 33t-2 14q0 4 2 4zM1032 942q37 -31 37 -54q0 -16 -15.5 -25t-29.5 -9q-29 0 -29 22q0 16 31 27 q-6 25 -8.5 33t-2.5 14q0 4 2 4z" />
<glyph unicode="&#xd1;" horiz-adv-x="958" d="M672 756q37 6 78 6q37 0 89 -9.5t100 -32t82 -59t34 -94.5q0 -49 -17.5 -99t-43 -98t-58.5 -92.5t-64 -78.5q-111 -127 -183.5 -208t-114.5 -128t-58 -65.5t-16 -20.5q-6 0 -6 8q0 4 40.5 54t103 130t139.5 182.5t149 210.5q25 49 43 102.5t18 98.5q0 37 -26.5 59.5 t-63.5 35t-74 16.5t-57 4q-53 0 -89 -10.5t-50 -14.5l-2 -2q-4 0 -4 8q2 2 5 6.5t3 10.5q0 4 -1 6t-1 6q-4 0 -5 -9t-1 -11q0 2 -1.5 3t-1.5 5q-76 -113 -161.5 -230.5t-176 -234.5t-180.5 -230.5t-174 -220.5l-6 -2q-14 0 -14 11q0 6 33.5 58t89 132t124 179.5t138 198.5 t134 190t110.5 155q-41 -16 -73 -27.5t-56 -19.5q-6 0 -7 10q0 2 23.5 18.5t56.5 37t66 40t51 29.5q6 8 11 15.5t9 11.5l2 2q8 8 19 8q12 0 25.5 -10.5t13.5 -24.5q0 -8 -2 -10l-2 -4v-2zM993 893q10 -14 10 -19l-2 -2q-16 -20 -51 -20q-41 0 -71.5 20.5t-53.5 20.5 q-33 0 -52.5 -12.5t-21.5 -12.5l-4 2l-4 4v2l9.5 9.5t19.5 15.5t29.5 15t37.5 7q33 0 65 -13t48 -13q14 0 19.5 4t7.5 4t14 -12z" />
<glyph unicode="&#xd2;" horiz-adv-x="837" d="M115 -211q-23 8 -36 23.5t-19.5 33t-7.5 35t-1 31.5q0 35 6 65.5t13 59.5q39 174 130 313t199.5 235.5t217 147.5t180.5 51q31 0 61 -10q20 6 37.5 15.5t40.5 9.5q29 0 37 -19.5t8 -42.5q0 -12 -1 -22t-3 -21q27 0 46 1t38 1q18 0 18 -4q0 -2 -2 -7t-2 -15 q2 -23 10.5 -29t8.5 -8q0 -6 -11 -6h-2q-49 4 -120 6q-12 -55 -40 -134t-77 -170t-122 -186.5t-173 -181.5q-37 -31 -81 -62.5t-92 -57t-99.5 -42t-102.5 -16.5q-28 0 -59 6zM924 766q-16 -6 -34 -16.5t-38 -24.5q6 -29 13 -33t24 -4q29 0 49 6t20 41q-4 18 -5 26.5t-11 8.5 q-4 -4 -18 -4zM827 702q-2 -2 -6 -5t-8 -7h45l-14 12q-4 4 -10 7zM121 -63q0 -10 -1 -17.5t-1 -15.5q0 -29 7 -42.5t48 -13.5q59 0 116.5 11.5t110.5 44.5q129 86 224.5 186t161 198.5t103.5 188.5t54 156q-4 0 -16.5 -1t-30.5 -1q-23 0 -47.5 1t-47 6t-36.5 12t-14 20 q0 16 10 27.5t18 19.5q-16 0 -35.5 -4t-37.5 -11q-98 -31 -197.5 -104.5t-180.5 -176t-137.5 -227t-70.5 -257.5zM807 884q-2 0 14 13q8 6 17 14v2v-2q2 -6 28.5 -17.5t57 -23.5t56.5 -22l26 -11l-2 -6l-21 2q-22 2 -53 7t-65 14.5t-58 25.5l-2 2q0 2 2 2z" />
<glyph unicode="&#xd3;" horiz-adv-x="837" d="M115 -211q-23 8 -36 23.5t-19.5 33t-7.5 35t-1 31.5q0 35 6 65.5t13 59.5q39 174 130 313t199.5 235.5t217 147.5t180.5 51q31 0 61 -10q20 6 37.5 15.5t40.5 9.5q29 0 37 -19.5t8 -42.5q0 -12 -1 -22t-3 -21q27 0 46 1t38 1q18 0 18 -4q0 -2 -2 -7t-2 -15 q2 -23 10.5 -29t8.5 -8q0 -6 -11 -6h-2q-49 4 -120 6q-12 -55 -40 -134t-77 -170t-122 -186.5t-173 -181.5q-37 -31 -81 -62.5t-92 -57t-99.5 -42t-102.5 -16.5q-28 0 -59 6zM924 766q-16 -6 -34 -16.5t-38 -24.5q6 -29 13 -33t24 -4q29 0 49 6t20 41q-4 18 -5 26.5t-11 8.5 q-4 -4 -18 -4zM827 702q-2 -2 -6 -5t-8 -7h45l-14 12q-4 4 -10 7zM121 -63q0 -10 -1 -17.5t-1 -15.5q0 -29 7 -42.5t48 -13.5q59 0 116.5 11.5t110.5 44.5q129 86 224.5 186t161 198.5t103.5 188.5t54 156q-4 0 -16.5 -1t-30.5 -1q-23 0 -47.5 1t-47 6t-36.5 12t-14 20 q0 16 10 27.5t18 19.5q-16 0 -35.5 -4t-37.5 -11q-98 -31 -197.5 -104.5t-180.5 -176t-137.5 -227t-70.5 -257.5zM1006 882l-2 -2q-18 -14 -47 -23.5t-57.5 -15.5t-53 -9t-37.5 -3q-8 0 -8 4q0 2 23.5 12.5t54.5 22.5t60.5 24.5t41.5 18.5q25 0 25 -29z" />
<glyph unicode="&#xd4;" horiz-adv-x="837" d="M115 -211q-23 8 -36 23.5t-19.5 33t-7.5 35t-1 31.5q0 35 6 65.5t13 59.5q39 174 130 313t199.5 235.5t217 147.5t180.5 51q31 0 61 -10q20 6 37.5 15.5t40.5 9.5q29 0 37 -19.5t8 -42.5q0 -12 -1 -22t-3 -21q27 0 46 1t38 1q18 0 18 -4q0 -2 -2 -7t-2 -15 q2 -23 10.5 -29t8.5 -8q0 -6 -11 -6h-2q-49 4 -120 6q-12 -55 -40 -134t-77 -170t-122 -186.5t-173 -181.5q-37 -31 -81 -62.5t-92 -57t-99.5 -42t-102.5 -16.5q-28 0 -59 6zM924 766q-16 -6 -34 -16.5t-38 -24.5q6 -29 13 -33t24 -4q29 0 49 6t20 41q-4 18 -5 26.5t-11 8.5 q-4 -4 -18 -4zM827 702q-2 -2 -6 -5t-8 -7h45l-14 12q-4 4 -10 7zM121 -63q0 -10 -1 -17.5t-1 -15.5q0 -29 7 -42.5t48 -13.5q59 0 116.5 11.5t110.5 44.5q129 86 224.5 186t161 198.5t103.5 188.5t54 156q-4 0 -16.5 -1t-30.5 -1q-23 0 -47.5 1t-47 6t-36.5 12t-14 20 q0 16 10 27.5t18 19.5q-16 0 -35.5 -4t-37.5 -11q-98 -31 -197.5 -104.5t-180.5 -176t-137.5 -227t-70.5 -257.5zM926 905q-16 0 -42 -8.5t-53.5 -18.5t-51 -18t-34.5 -8q-8 0 -8 6l22 14q23 14 53 31.5t61.5 32t50.5 14.5q16 0 29.5 -9.5t52.5 -50.5q41 -39 52 -48t13 -9 v-2q0 -2 -2 -2q-8 0 -30.5 12.5t-47 25.5t-44 25.5t-21.5 12.5z" />
<glyph unicode="&#xd5;" horiz-adv-x="837" d="M115 -211q-23 8 -36 23.5t-19.5 33t-7.5 35t-1 31.5q0 35 6 65.5t13 59.5q39 174 130 313t199.5 235.5t217 147.5t180.5 51q31 0 61 -10q20 6 37.5 15.5t40.5 9.5q29 0 37 -19.5t8 -42.5q0 -12 -1 -22t-3 -21q27 0 46 1t38 1q18 0 18 -4q0 -2 -2 -7t-2 -15 q2 -23 10.5 -29t8.5 -8q0 -6 -11 -6h-2q-49 4 -120 6q-12 -55 -40 -134t-77 -170t-122 -186.5t-173 -181.5q-37 -31 -81 -62.5t-92 -57t-99.5 -42t-102.5 -16.5q-28 0 -59 6zM924 766q-16 -6 -34 -16.5t-38 -24.5q6 -29 13 -33t24 -4q29 0 49 6t20 41q-4 18 -5 26.5t-11 8.5 q-4 -4 -18 -4zM827 702q-2 -2 -6 -5t-8 -7h45l-14 12q-4 4 -10 7zM121 -63q0 -10 -1 -17.5t-1 -15.5q0 -29 7 -42.5t48 -13.5q59 0 116.5 11.5t110.5 44.5q129 86 224.5 186t161 198.5t103.5 188.5t54 156q-4 0 -16.5 -1t-30.5 -1q-23 0 -47.5 1t-47 6t-36.5 12t-14 20 q0 16 10 27.5t18 19.5q-16 0 -35.5 -4t-37.5 -11q-98 -31 -197.5 -104.5t-180.5 -176t-137.5 -227t-70.5 -257.5zM1022 893q10 -14 10 -19l-2 -2q-16 -20 -51 -20q-41 0 -71.5 20.5t-53.5 20.5q-33 0 -52.5 -12.5t-21.5 -12.5l-4 2l-4 4v2l9.5 9.5t19.5 15.5t29.5 15t37.5 7 q33 0 65 -13t48 -13q14 0 19.5 4t7.5 4t14 -12z" />
<glyph unicode="&#xd6;" horiz-adv-x="837" d="M115 -211q-23 8 -36 23.5t-19.5 33t-7.5 35t-1 31.5q0 35 6 65.5t13 59.5q39 174 130 313t199.5 235.5t217 147.5t180.5 51q31 0 61 -10q20 6 37.5 15.5t40.5 9.5q29 0 37 -19.5t8 -42.5q0 -12 -1 -22t-3 -21q27 0 46 1t38 1q18 0 18 -4q0 -2 -2 -7t-2 -15 q2 -23 10.5 -29t8.5 -8q0 -6 -11 -6h-2q-49 4 -120 6q-12 -55 -40 -134t-77 -170t-122 -186.5t-173 -181.5q-37 -31 -81 -62.5t-92 -57t-99.5 -42t-102.5 -16.5q-28 0 -59 6zM924 766q-16 -6 -34 -16.5t-38 -24.5q6 -29 13 -33t24 -4q29 0 49 6t20 41q-4 18 -5 26.5t-11 8.5 q-4 -4 -18 -4zM827 702q-2 -2 -6 -5t-8 -7h45l-14 12q-4 4 -10 7zM121 -63q0 -10 -1 -17.5t-1 -15.5q0 -29 7 -42.5t48 -13.5q59 0 116.5 11.5t110.5 44.5q129 86 224.5 186t161 198.5t103.5 188.5t54 156q-4 0 -16.5 -1t-30.5 -1q-23 0 -47.5 1t-47 6t-36.5 12t-14 20 q0 16 10 27.5t18 19.5q-16 0 -35.5 -4t-37.5 -11q-98 -31 -197.5 -104.5t-180.5 -176t-137.5 -227t-70.5 -257.5zM852 942q37 -31 36 -54q0 -16 -15 -25t-30 -9q-29 0 -28 22q0 16 30 27q-6 25 -8 33t-2 14q0 4 2 4zM944 942q37 -31 37 -54q0 -16 -15.5 -25t-29.5 -9 q-29 0 -29 22q0 16 31 27q-6 25 -8.5 33t-2.5 14q0 4 2 4z" />
<glyph unicode="&#xd9;" horiz-adv-x="911" d="M1225 760q-63 -106 -146.5 -224t-175.5 -239t-187 -244t-186 -239l-6 -2q-14 0 -14 10q0 4 22.5 39t59.5 91t85 127t99 146q-72 -59 -183.5 -146t-246.5 -185q-23 -16 -51.5 -37t-59 -38.5t-60.5 -29.5t-54 -12q-33 0 -54.5 14t-34 34.5t-17.5 44.5t-5 40q-6 57 44 160.5 t126 194.5t143.5 168t129 139.5t102.5 105.5q-37 -16 -69.5 -27.5t-49.5 -15.5l-4 4q-2 2 -2 6q0 2 31 22.5t68.5 44t71.5 43t40 21.5q41 0 41 -31q0 -14 -6 -26l-4 -6q-76 -109 -185.5 -220.5t-214.5 -238.5q-31 -37 -65.5 -82t-64 -92t-49 -92t-19.5 -82q0 -27 11 -47.5 t34 -20.5t51.5 14.5t52.5 26.5q106 66 202.5 131.5t174.5 121.5t136.5 100t90.5 69q57 84 113.5 166t103 149.5t79 115.5t44.5 65l2 2q8 8 19 8q12 0 25.5 -10.5t13.5 -24.5q0 -8 -2 -10h2zM799 884q-2 0 14 13q8 6 17 14v2v-2q2 -6 28.5 -17.5t57 -23.5t56.5 -22l26 -11 l-2 -6l-21 2q-22 2 -53 7t-65 14.5t-58 25.5l-2 2q0 2 2 2z" />
<glyph unicode="&#xda;" horiz-adv-x="911" d="M1225 760q-63 -106 -146.5 -224t-175.5 -239t-187 -244t-186 -239l-6 -2q-14 0 -14 10q0 4 22.5 39t59.5 91t85 127t99 146q-72 -59 -183.5 -146t-246.5 -185q-23 -16 -51.5 -37t-59 -38.5t-60.5 -29.5t-54 -12q-33 0 -54.5 14t-34 34.5t-17.5 44.5t-5 40q-6 57 44 160.5 t126 194.5t143.5 168t129 139.5t102.5 105.5q-37 -16 -69.5 -27.5t-49.5 -15.5l-4 4q-2 2 -2 6q0 2 31 22.5t68.5 44t71.5 43t40 21.5q41 0 41 -31q0 -14 -6 -26l-4 -6q-76 -109 -185.5 -220.5t-214.5 -238.5q-31 -37 -65.5 -82t-64 -92t-49 -92t-19.5 -82q0 -27 11 -47.5 t34 -20.5t51.5 14.5t52.5 26.5q106 66 202.5 131.5t174.5 121.5t136.5 100t90.5 69q57 84 113.5 166t103 149.5t79 115.5t44.5 65l2 2q8 8 19 8q12 0 25.5 -10.5t13.5 -24.5q0 -8 -2 -10h2zM989 882l-2 -2q-18 -14 -47 -23.5t-57.5 -15.5t-53 -9t-37.5 -3q-8 0 -8 4 q0 2 23.5 12.5t54.5 22.5t60.5 24.5t41.5 18.5q25 0 25 -29z" />
<glyph unicode="&#xdb;" horiz-adv-x="911" d="M1225 760q-63 -106 -146.5 -224t-175.5 -239t-187 -244t-186 -239l-6 -2q-14 0 -14 10q0 4 22.5 39t59.5 91t85 127t99 146q-72 -59 -183.5 -146t-246.5 -185q-23 -16 -51.5 -37t-59 -38.5t-60.5 -29.5t-54 -12q-33 0 -54.5 14t-34 34.5t-17.5 44.5t-5 40q-6 57 44 160.5 t126 194.5t143.5 168t129 139.5t102.5 105.5q-37 -16 -69.5 -27.5t-49.5 -15.5l-4 4q-2 2 -2 6q0 2 31 22.5t68.5 44t71.5 43t40 21.5q41 0 41 -31q0 -14 -6 -26l-4 -6q-76 -109 -185.5 -220.5t-214.5 -238.5q-31 -37 -65.5 -82t-64 -92t-49 -92t-19.5 -82q0 -27 11 -47.5 t34 -20.5t51.5 14.5t52.5 26.5q106 66 202.5 131.5t174.5 121.5t136.5 100t90.5 69q57 84 113.5 166t103 149.5t79 115.5t44.5 65l2 2q8 8 19 8q12 0 25.5 -10.5t13.5 -24.5q0 -8 -2 -10h2zM918 905q-16 0 -42 -8.5t-53.5 -18.5t-51 -18t-34.5 -8q-8 0 -8 6l22 14 q23 14 53 31.5t61.5 32t50.5 14.5q16 0 29.5 -9.5t52.5 -50.5q41 -39 52 -48t13 -9v-2q0 -2 -2 -2q-8 0 -30.5 12.5t-47 25.5t-44 25.5t-21.5 12.5z" />
<glyph unicode="&#xdc;" horiz-adv-x="911" d="M1225 760q-63 -106 -146.5 -224t-175.5 -239t-187 -244t-186 -239l-6 -2q-14 0 -14 10q0 4 22.5 39t59.5 91t85 127t99 146q-72 -59 -183.5 -146t-246.5 -185q-23 -16 -51.5 -37t-59 -38.5t-60.5 -29.5t-54 -12q-33 0 -54.5 14t-34 34.5t-17.5 44.5t-5 40q-6 57 44 160.5 t126 194.5t143.5 168t129 139.5t102.5 105.5q-37 -16 -69.5 -27.5t-49.5 -15.5l-4 4q-2 2 -2 6q0 2 31 22.5t68.5 44t71.5 43t40 21.5q41 0 41 -31q0 -14 -6 -26l-4 -6q-76 -109 -185.5 -220.5t-214.5 -238.5q-31 -37 -65.5 -82t-64 -92t-49 -92t-19.5 -82q0 -27 11 -47.5 t34 -20.5t51.5 14.5t52.5 26.5q106 66 202.5 131.5t174.5 121.5t136.5 100t90.5 69q57 84 113.5 166t103 149.5t79 115.5t44.5 65l2 2q8 8 19 8q12 0 25.5 -10.5t13.5 -24.5q0 -8 -2 -10h2zM859 942q37 -31 36 -54q0 -16 -15 -25t-30 -9q-29 0 -28 22q0 16 30 27 q-6 25 -8 33t-2 14q0 4 2 4zM951 942q37 -31 37 -54q0 -16 -15.5 -25t-29.5 -9q-29 0 -29 22q0 16 31 27q-6 25 -8.5 33t-2.5 14q0 4 2 4z" />
<glyph unicode="&#xdd;" horiz-adv-x="925" d="M752 -313q-53 0 -127 -4.5t-146 -8.5q-59 -82 -100 -136t-69.5 -90t-46 -56.5t-27.5 -32.5q-4 0 -7.5 4t-3.5 6q0 6 16.5 32t44 65.5t63.5 92t75 111.5q-47 -2 -83 -4t-58 -2q-18 0 -22.5 1t-4.5 5t40 6t144 19q78 117 170 251t185 269q-74 -59 -179.5 -143t-234.5 -176 q-23 -16 -51.5 -37t-59 -39.5t-61.5 -30.5t-57 -12q-31 0 -52.5 13t-34 32.5t-18.5 43t-6 44.5q0 45 14.5 82t32.5 71q55 102 118.5 193.5t126 169.5t117 140.5t91.5 107.5q-39 -18 -65.5 -26.5t-43.5 -12.5q-2 0 -4 4t-2 6t29.5 21.5t67.5 42t72 43t42 24.5q16 -4 27.5 -7 t11.5 -24q0 -14 -6 -26l-4 -6q-78 -104 -178.5 -218t-198.5 -249q-27 -37 -59.5 -82t-60.5 -91t-46.5 -89t-18.5 -80q0 -25 12.5 -45.5t35.5 -20.5t53.5 16.5t54.5 28.5q102 63 194.5 126t168 116t134 97t93.5 71q61 90 116.5 171t100.5 146.5t78 111.5t47 64l2 2 q12 16 29 17q14 0 22 -10.5t8 -22.5q-2 -2 -2 -4q0 -4 -1 -7t-1 -7h2l-4 -6q-68 -106 -160 -239.5t-193 -274t-202.5 -277.5t-189.5 -254q78 10 147.5 19.5t91.5 9.5q10 0 13.5 -10.5t4.5 -21.5t-7 -13zM1006 882l-2 -2q-18 -14 -47 -23.5t-57.5 -15.5t-53 -9t-37.5 -3 q-8 0 -8 4q0 2 23.5 12.5t54.5 22.5t60.5 24.5t41.5 18.5q25 0 25 -29z" />
<glyph unicode="&#xe0;" horiz-adv-x="399" d="M424 365q-16 -31 -44 -69t-56.5 -80t-53 -83t-34.5 -78q12 -6 31.5 2.5t48 27.5t49 35.5t29.5 24t11.5 9.5t10.5 -2.5t8 -10.5q-2 0 -20.5 -21.5t-46 -47t-61.5 -48t-67 -24.5q-18 0 -28.5 7t-14.5 16.5t-5 17.5t-1 12v25q-4 -4 -16 -16.5t-30.5 -25.5t-42 -23.5 t-48.5 -10.5q-23 0 -36 11.5t-21.5 27.5t-11.5 34.5t-3 35.5q0 51 29 109.5t74 108.5t99 83.5t103 33.5q59 0 95 -40q2 0 3 1t3 1q14 0 31.5 -15.5t17.5 -25.5zM227 53h2h-2zM315 334q2 2 2 10q0 27 -38 27q-29 0 -71 -24.5t-82 -63.5t-68.5 -88.5t-28.5 -98.5q0 -45 18 -45 t42 11.5t47.5 26.5t41 29.5t23.5 22.5q29 57 59 107.5t55 85.5zM248 526q-2 0 14 13q8 6 17 14v2v-2q2 -6 28.5 -17.5t57 -23.5t56.5 -22l26 -11l-2 -6l-21 2q-22 2 -53 7t-65 14.5t-58 25.5l-2 2q0 2 2 2z" />
<glyph unicode="&#xe1;" horiz-adv-x="399" d="M424 365q-16 -31 -44 -69t-56.5 -80t-53 -83t-34.5 -78q12 -6 31.5 2.5t48 27.5t49 35.5t29.5 24t11.5 9.5t10.5 -2.5t8 -10.5q-2 0 -20.5 -21.5t-46 -47t-61.5 -48t-67 -24.5q-18 0 -28.5 7t-14.5 16.5t-5 17.5t-1 12v25q-4 -4 -16 -16.5t-30.5 -25.5t-42 -23.5 t-48.5 -10.5q-23 0 -36 11.5t-21.5 27.5t-11.5 34.5t-3 35.5q0 51 29 109.5t74 108.5t99 83.5t103 33.5q59 0 95 -40q2 0 3 1t3 1q14 0 31.5 -15.5t17.5 -25.5zM227 53h2h-2zM315 334q2 2 2 10q0 27 -38 27q-29 0 -71 -24.5t-82 -63.5t-68.5 -88.5t-28.5 -98.5q0 -45 18 -45 t42 11.5t47.5 26.5t41 29.5t23.5 22.5q29 57 59 107.5t55 85.5zM445 524l-2 -2q-18 -14 -47 -23.5t-57.5 -15.5t-53 -9t-37.5 -3q-8 0 -8 4q0 2 23.5 12.5t54.5 22.5t60.5 24.5t41.5 18.5q25 0 25 -29z" />
<glyph unicode="&#xe2;" horiz-adv-x="399" d="M424 365q-16 -31 -44 -69t-56.5 -80t-53 -83t-34.5 -78q12 -6 31.5 2.5t48 27.5t49 35.5t29.5 24t11.5 9.5t10.5 -2.5t8 -10.5q-2 0 -20.5 -21.5t-46 -47t-61.5 -48t-67 -24.5q-18 0 -28.5 7t-14.5 16.5t-5 17.5t-1 12v25q-4 -4 -16 -16.5t-30.5 -25.5t-42 -23.5 t-48.5 -10.5q-23 0 -36 11.5t-21.5 27.5t-11.5 34.5t-3 35.5q0 51 29 109.5t74 108.5t99 83.5t103 33.5q59 0 95 -40q2 0 3 1t3 1q14 0 31.5 -15.5t17.5 -25.5zM227 53h2h-2zM315 334q2 2 2 10q0 27 -38 27q-29 0 -71 -24.5t-82 -63.5t-68.5 -88.5t-28.5 -98.5q0 -45 18 -45 t42 11.5t47.5 26.5t41 29.5t23.5 22.5q29 57 59 107.5t55 85.5zM355 547q-16 0 -42 -8.5t-53.5 -18.5t-51 -18t-34.5 -8q-8 0 -8 6l22 14q23 14 53 31.5t61.5 32t50.5 14.5q16 0 29.5 -9.5t52.5 -50.5q41 -39 52 -48t13 -9v-2q0 -2 -2 -2q-8 0 -30.5 12.5t-47 25.5t-44 25.5 t-21.5 12.5z" />
<glyph unicode="&#xe3;" horiz-adv-x="399" d="M424 365q-16 -31 -44 -69t-56.5 -80t-53 -83t-34.5 -78q12 -6 31.5 2.5t48 27.5t49 35.5t29.5 24t11.5 9.5t10.5 -2.5t8 -10.5q-2 0 -20.5 -21.5t-46 -47t-61.5 -48t-67 -24.5q-18 0 -28.5 7t-14.5 16.5t-5 17.5t-1 12v25q-4 -4 -16 -16.5t-30.5 -25.5t-42 -23.5 t-48.5 -10.5q-23 0 -36 11.5t-21.5 27.5t-11.5 34.5t-3 35.5q0 51 29 109.5t74 108.5t99 83.5t103 33.5q59 0 95 -40q2 0 3 1t3 1q14 0 31.5 -15.5t17.5 -25.5zM227 53h2h-2zM315 334q2 2 2 10q0 27 -38 27q-29 0 -71 -24.5t-82 -63.5t-68.5 -88.5t-28.5 -98.5q0 -45 18 -45 t42 11.5t47.5 26.5t41 29.5t23.5 22.5q29 57 59 107.5t55 85.5zM444 535q10 -14 10 -19l-2 -2q-16 -20 -51 -20q-41 0 -71.5 20.5t-53.5 20.5q-33 0 -52.5 -12.5t-21.5 -12.5l-4 2l-4 4v2l9.5 9.5t19.5 15.5t29.5 15t37.5 7q33 0 65 -13t48 -13q14 0 19.5 4t7.5 4t14 -12z " />
<glyph unicode="&#xe4;" horiz-adv-x="399" d="M424 365q-16 -31 -44 -69t-56.5 -80t-53 -83t-34.5 -78q12 -6 31.5 2.5t48 27.5t49 35.5t29.5 24t11.5 9.5t10.5 -2.5t8 -10.5q-2 0 -20.5 -21.5t-46 -47t-61.5 -48t-67 -24.5q-18 0 -28.5 7t-14.5 16.5t-5 17.5t-1 12v25q-4 -4 -16 -16.5t-30.5 -25.5t-42 -23.5 t-48.5 -10.5q-23 0 -36 11.5t-21.5 27.5t-11.5 34.5t-3 35.5q0 51 29 109.5t74 108.5t99 83.5t103 33.5q59 0 95 -40q2 0 3 1t3 1q14 0 31.5 -15.5t17.5 -25.5zM227 53h2h-2zM315 334q2 2 2 10q0 27 -38 27q-29 0 -71 -24.5t-82 -63.5t-68.5 -88.5t-28.5 -98.5q0 -45 18 -45 t42 11.5t47.5 26.5t41 29.5t23.5 22.5q29 57 59 107.5t55 85.5zM316 584q37 -31 36 -54q0 -16 -15 -25t-30 -9q-29 0 -28 22q0 16 30 27q-6 25 -8 33t-2 14q0 4 2 4zM408 584q37 -31 37 -54q0 -16 -15.5 -25t-29.5 -9q-29 0 -29 22q0 16 31 27q-6 25 -8.5 33t-2.5 14 q0 4 2 4z" />
<glyph unicode="&#xe5;" horiz-adv-x="399" d="M313 539q-12 -10 -16 4v4q0 16 14.5 31.5t34.5 15.5q23 0 37 -19.5t14 -37.5q0 -20 -13 -34t-32 -14q-29 0 -38 15.5t-9 19.5q-2 0 0 2q0 2 8 2q4 -2 6.5 -9t22.5 -7q10 0 19.5 6t9.5 17q0 10 -6.5 18t-14.5 8q-16 0 -20.5 -8t-16.5 -14zM424 365q-16 -31 -44 -69 t-56.5 -80t-53 -83t-34.5 -78q12 -6 31.5 2.5t48 27.5t49 35.5t29.5 24t11.5 9.5t10.5 -2.5t8 -10.5q-2 0 -20.5 -21.5t-46 -47t-61.5 -48t-67 -24.5q-18 0 -28.5 7t-14.5 16.5t-5 17.5t-1 12v25q-4 -4 -16 -16.5t-30.5 -25.5t-42 -23.5t-48.5 -10.5q-23 0 -36 11.5 t-21.5 27.5t-11.5 34.5t-3 35.5q0 51 29 109.5t74 108.5t99 83.5t103 33.5q59 0 95 -40q2 0 3 1t3 1q14 0 31.5 -15.5t17.5 -25.5zM227 53h2h-2zM315 334q2 2 2 10q0 27 -38 27q-29 0 -71 -24.5t-82 -63.5t-68.5 -88.5t-28.5 -98.5q0 -45 18 -45t42 11.5t47.5 26.5t41 29.5 t23.5 22.5q29 57 59 107.5t55 85.5z" />
<glyph unicode="&#xe6;" horiz-adv-x="567" d="M424 365q-14 -29 -46 -71t-68 -84t-71.5 -78t-58.5 -54q-4 -4 -16 -16.5t-30.5 -25.5t-42 -23.5t-48.5 -10.5q-23 0 -36 11.5t-21.5 27.5t-11.5 34.5t-3 35.5q0 51 29 109.5t74 108.5t99 83.5t103 33.5q59 0 95 -40q2 0 3 1t3 1q14 0 31.5 -15.5t17.5 -25.5zM227 53h2h-2 zM315 334q2 2 2 10q0 27 -38 27q-29 0 -71 -24.5t-82 -63.5t-68.5 -88.5t-28.5 -98.5q0 -45 18 -45t42 11.5t47.5 26.5t41 29.5t23.5 22.5q29 57 59 107.5t55 85.5zM594 195q8 0 13 -5.5t5 -7.5q0 -4 -23.5 -32.5t-64.5 -62.5t-97 -61.5t-124 -27.5q-47 0 -67.5 35t-20.5 78 q0 51 33 106t80 103.5t99 80t93 35.5h6v2q6 0 19.5 -2t26 -9t21.5 -20.5t9 -37.5q0 -47 -27.5 -80t-65.5 -53.5t-78 -30.5t-62 -10q-31 0 -56 6q-16 -23 -26.5 -47.5t-10.5 -57.5q0 -25 5.5 -35t21.5 -10q57 0 107.5 19.5t89.5 44t63.5 48t32.5 32.5h-2zM348 242 q53 4 102.5 34.5t75.5 83.5q-41 -14 -86 -43.5t-84 -66.5z" />
<glyph unicode="&#xe7;" horiz-adv-x="356" d="M356 209q-2 0 7.5 -2t9.5 -10q0 -6 -41 -43t-109 -80q-35 -23 -81 -49.5t-105 -26.5q-29 4 -40 29.5t-11 50.5q0 53 30.5 116.5t76.5 119t102.5 92t107.5 36.5q12 0 35.5 -10t23.5 -35q0 -27 -9 -52.5t-21.5 -45.5t-22.5 -34.5t-12 -16.5l-2 -2q-6 -6 -16 -6 q-16 0 -31 10t-15 20q0 2 1.5 3t1.5 3l2 5q8 16 18 37.5t20 37.5q-4 0 -6 -2q-41 -18 -80.5 -48t-71.5 -66.5t-49.5 -79.5t-23.5 -88v-17.5t2 -3.5q6 0 15.5 1t19.5 3q57 14 106.5 40t85 51.5t57 44t25.5 18.5zM-16 -147q-23 2 -46.5 9t-23.5 29q0 23 14.5 30t30.5 7 q51 -4 59.5 -12t8.5 -6q-2 -2 -2 -4h-2q-4 0 -22.5 4t-36.5 4q-12 0 -23.5 -4t-11.5 -14t19.5 -15.5t47.5 -5.5q29 0 60.5 7t54.5 14q-10 2 -29.5 6t-40 13t-36 23.5t-15.5 34.5q0 27 14.5 42.5t14.5 19.5q-2 0 9 -6t19 -6q6 0 9.5 4t5.5 4q0 -2 2 -4q0 -2 -1 -3t-1 -4 l-2 -4q-10 -16 -18.5 -27.5t-8.5 -17.5t18.5 -12t41 -15.5t41 -20.5t18.5 -25q0 -16 -15.5 -25.5t-38 -14.5t-47 -6.5t-42.5 -1.5q-6 0 -12.5 1.5t-12.5 1.5z" />
<glyph unicode="&#xe8;" horiz-adv-x="339" d="M371 195q8 0 13 -5.5t5 -7.5q0 -8 -27.5 -37.5t-72.5 -62.5t-101.5 -58.5t-113.5 -25.5q-47 0 -67.5 35t-20.5 78q0 35 9 63.5t23 52.5q-14 8 -15 11.5t-5 3.5q0 2 4 10t8 8q10 0 25 -8q33 47 74 81t77.5 56.5t65.5 33.5t53.5 11t36.5 -7t21.5 -20.5t9.5 -37.5 q0 -47 -28 -80t-65.5 -53.5t-77.5 -30.5t-63 -10q-31 0 -55 6q-16 -23 -26.5 -47.5t-10.5 -57.5q0 -25 5 -35t22 -10q12 0 45 5t76 22.5t90 46.5t88 70h-2zM119 242q53 4 102 34.5t76 83.5q-41 -14 -86 -43.5t-84 -66.5zM201 526q-2 0 14 13q8 6 17 14v2v-2q2 -6 28.5 -17.5 t57 -23.5t56.5 -22l26 -11l-2 -6l-21 2q-22 2 -53 7t-65 14.5t-58 25.5l-2 2q0 2 2 2z" />
<glyph unicode="&#xe9;" horiz-adv-x="339" d="M371 195q8 0 13 -5.5t5 -7.5q0 -8 -27.5 -37.5t-72.5 -62.5t-101.5 -58.5t-113.5 -25.5q-47 0 -67.5 35t-20.5 78q0 35 9 63.5t23 52.5q-14 8 -15 11.5t-5 3.5q0 2 4 10t8 8q10 0 25 -8q33 47 74 81t77.5 56.5t65.5 33.5t53.5 11t36.5 -7t21.5 -20.5t9.5 -37.5 q0 -47 -28 -80t-65.5 -53.5t-77.5 -30.5t-63 -10q-31 0 -55 6q-16 -23 -26.5 -47.5t-10.5 -57.5q0 -25 5 -35t22 -10q12 0 45 5t76 22.5t90 46.5t88 70h-2zM119 242q53 4 102 34.5t76 83.5q-41 -14 -86 -43.5t-84 -66.5zM399 524l-2 -2q-18 -14 -47 -23.5t-57.5 -15.5 t-53 -9t-37.5 -3q-8 0 -8 4q0 2 23.5 12.5t54.5 22.5t60.5 24.5t41.5 18.5q25 0 25 -29z" />
<glyph unicode="&#xea;" horiz-adv-x="339" d="M371 195q8 0 13 -5.5t5 -7.5q0 -8 -27.5 -37.5t-72.5 -62.5t-101.5 -58.5t-113.5 -25.5q-47 0 -67.5 35t-20.5 78q0 35 9 63.5t23 52.5q-14 8 -15 11.5t-5 3.5q0 2 4 10t8 8q10 0 25 -8q33 47 74 81t77.5 56.5t65.5 33.5t53.5 11t36.5 -7t21.5 -20.5t9.5 -37.5 q0 -47 -28 -80t-65.5 -53.5t-77.5 -30.5t-63 -10q-31 0 -55 6q-16 -23 -26.5 -47.5t-10.5 -57.5q0 -25 5 -35t22 -10q12 0 45 5t76 22.5t90 46.5t88 70h-2zM119 242q53 4 102 34.5t76 83.5q-41 -14 -86 -43.5t-84 -66.5zM328 547q-16 0 -42 -8.5t-53.5 -18.5t-51 -18 t-34.5 -8q-8 0 -8 6l22 14q23 14 53 31.5t61.5 32t50.5 14.5q16 0 29.5 -9.5t52.5 -50.5q41 -39 52 -48t13 -9v-2q0 -2 -2 -2q-8 0 -30.5 12.5t-47 25.5t-44 25.5t-21.5 12.5z" />
<glyph unicode="&#xeb;" horiz-adv-x="339" d="M371 195q8 0 13 -5.5t5 -7.5q0 -8 -27.5 -37.5t-72.5 -62.5t-101.5 -58.5t-113.5 -25.5q-47 0 -67.5 35t-20.5 78q0 35 9 63.5t23 52.5q-14 8 -15 11.5t-5 3.5q0 2 4 10t8 8q10 0 25 -8q33 47 74 81t77.5 56.5t65.5 33.5t53.5 11t36.5 -7t21.5 -20.5t9.5 -37.5 q0 -47 -28 -80t-65.5 -53.5t-77.5 -30.5t-63 -10q-31 0 -55 6q-16 -23 -26.5 -47.5t-10.5 -57.5q0 -25 5 -35t22 -10q12 0 45 5t76 22.5t90 46.5t88 70h-2zM119 242q53 4 102 34.5t76 83.5q-41 -14 -86 -43.5t-84 -66.5zM250 584q37 -31 36 -54q0 -16 -15 -25t-30 -9 q-29 0 -28 22q0 16 30 27q-6 25 -8 33t-2 14q0 4 2 4zM342 584q37 -31 37 -54q0 -16 -15.5 -25t-29.5 -9q-29 0 -29 22q0 16 31 27q-6 25 -8.5 33t-2.5 14q0 4 2 4z" />
<glyph unicode="&#xec;" horiz-adv-x="180" d="M199 131q-4 4 -2 6t-2 2l-2 2v-2v2q-4 0 -59.5 -25.5t-129.5 -56.5q-10 -6 -16 -6q14 37 41.5 80t60.5 87t64.5 84t52.5 69l2 4q0 10 -15.5 27.5t-27.5 17.5q-4 0 -6 -2h-2q-6 -6 -37 -41t-67 -84t-70.5 -108.5t-51.5 -116.5q0 -4 -2 -10.5t-2 -14.5t12.5 -27.5 t41.5 -19.5t63.5 23.5t56.5 35.5q39 23 68 42.5t31 21.5v2q0 2 -1 3t-1 5zM129 526q0 2 10.5 9.5t20.5 17.5v2v-2q2 -6 28.5 -17.5t57 -23.5t56.5 -22l26 -11l-2 -6l-22 2q-21 2 -52 7t-64.5 14.5t-58.5 25.5l-2 2q0 2 2 2z" />
<glyph unicode="&#xed;" horiz-adv-x="180" d="M199 131q0 -4 1 -5t1 -3v-2q-2 -2 -31 -21.5t-68 -42.5q-23 -12 -57.5 -35.5t-62.5 -23.5q-29 0 -41.5 19.5t-12.5 27.5t2 14.5t2 10.5q16 57 51 116.5t71 108.5t67 84t37 41h2q2 2 6 2q12 0 27.5 -17.5t15.5 -27.5l-2 -4q-20 -29 -52 -69t-65 -84t-60.5 -87t-41.5 -80 q6 0 16 6q74 31 129 56.5t60 25.5l2 -2q2 0 2 -2q0 -4 2 -6zM322 524l-3 -2q-25 -16 -58.5 -25.5t-64 -14.5t-52.5 -7l-21 -2l-4 6l25 11q26 10 57.5 22t58.5 23.5t29 17.5v2v-2q0 -6 14 -14l16 -13z" />
<glyph unicode="&#xee;" horiz-adv-x="180" d="M199 131q0 -4 1 -5t1 -3v-2q-2 -2 -31 -21.5t-68 -42.5q-23 -12 -57.5 -35.5t-62.5 -23.5q-29 0 -41.5 19.5t-12.5 27.5t2 14.5t2 10.5q16 57 51 116.5t71 108.5t67 84t37 41h2q2 2 6 2q12 0 27.5 -17.5t15.5 -27.5l-2 -4q-20 -29 -52 -69t-65 -84t-60.5 -87t-41.5 -80 q6 0 16 6q74 31 129 56.5t60 25.5l2 -2h2v-4q0 -2 2 -4zM279 547q-16 0 -42 -8.5t-53.5 -18.5t-51 -18t-34.5 -8q-8 0 -8 6l22 14q23 14 53 31.5t61.5 32t49.5 14.5q16 0 29.5 -9.5t26 -22.5t21.5 -25.5t18 -18.5q29 -23 40 -32t13 -9v-2q0 -2 -2 -2q-8 0 -30.5 12.5 t-47.5 25.5t-44 25.5t-21 12.5z" />
<glyph unicode="&#xef;" horiz-adv-x="180" d="M199 131q0 -4 1 -5t1 -3v-2q-2 -2 -31 -21.5t-68 -42.5q-23 -12 -57.5 -35.5t-62.5 -23.5q-29 0 -41.5 19.5t-12.5 27.5t2 14.5t2 10.5q16 57 51 116.5t71 108.5t67 84t37 41h2q2 2 6 2q12 0 27.5 -17.5t15.5 -27.5l-2 -4q-20 -29 -52 -69t-65 -84t-60.5 -87t-41.5 -80 q6 0 16 6q74 31 129 56.5t60 25.5l2 -2q2 0 2 -2q0 -4 2 -6zM160 598q8 -2 31.5 -12.5t23.5 -42.5q0 -25 -17.5 -36t-33.5 -11q-20 0 -27 14q2 20 15 25q-4 2 -4.5 4t-2.5 2h2q2 0 5 -2v2q0 -4 8 -4q2 2 6 2q-4 35 -7 41t-3 12q0 4 2 4zM168 518l-2 2q0 -2 1 -2t1 -4v4z M168 526q-2 0 -2 -2l2 -2v4zM266 598q8 -2 32 -12.5t24 -42.5q0 -25 -19.5 -36t-34.5 -11q-20 0 -26 14q2 25 16 25q-2 2 -4 3t-4 3h4q2 0 4 -2v2v-2q0 -2 2 -2h6q2 2 6 2q-4 37 -8 42t-4 9q0 6 4 6zM272 526v-4v4zM274 514q0 4 -2 6q0 -2 2 -4v-2z" />
<glyph unicode="&#xf0;" horiz-adv-x="376" d="M383 446q-8 -4 -12 -4v0q-14 12 -31.5 29.5l-36.5 36.5q-25 -6 -44 -10t-34 -6q-2 0 -2 6q0 2 18.5 10t43.5 16q-25 29 -46.5 48.5t-29.5 19.5h-2h-3t-3 4q0 2 3 3t5 1q8 0 19.5 -6t24.5 -15.5t27.5 -20.5t28.5 -23q18 8 33.5 13t22.5 7q2 0 5 -7t3 -13v-3v0 q-10 -4 -20.5 -9t-22.5 -7q12 -10 22 -20.5t18.5 -18.5t13.5 -13t5 -7q0 -5 -6 -11zM344 317q0 -27 -5 -48t-15 -44q-12 -29 -36 -71.5t-57.5 -79.5t-79 -59.5t-96.5 -22.5q-29 0 -47 13t-27.5 31.5t-12.5 38t-3 34.5q0 70 30 126t68.5 96t72.5 62.5t44 26.5h2q31 8 35 -39 q0 -10 -28.5 -37t-64.5 -59.5t-62.5 -80.5t-26.5 -93q0 -55 24 -56q53 0 97.5 29t76 72t51 91t23.5 89q-20 0 -39.5 13t-19.5 40q0 25 11 41t36 21q16 0 26.5 -9.5t15.5 -21.5t6 -25.5t1 -21.5v-8q43 4 76 15t49 21q8 0 8 -6q0 -12 -19.5 -20t-44 -16.5t-46 -18t-23.5 -23.5 zM303 367h2q0 18 -4 33.5t-8 15.5t-7 -9.5t-3 -15.5q0 -22 20 -24z" />
<glyph unicode="&#xf1;" horiz-adv-x="380" d="M457 434q14 -18 14 -28q0 -2 -1 -3.5t-1 -3.5h2l-2 -2q-29 -35 -69 -73.5t-83 -81.5t-83.5 -88t-67.5 -88h2q88 37 146.5 73.5t60.5 40.5h-2q4 0 8 -2q8 -4 8 -12q0 -4 -39 -36t-97 -71t-76.5 -48t-33.5 -9q-29 0 -33 14.5t-8 22.5q0 33 21.5 73t52.5 78.5t65.5 75.5 t61.5 66q-39 -18 -76 -33.5t-67 -28.5q-39 -53 -82 -100t-79 -84t-59.5 -60.5t-23.5 -25.5h-2q-2 0 -6 4q-8 4 -8 6q-2 2 0 2q4 8 26.5 42t52 80t78.5 121t58.5 88t19.5 24.5t19.5 17.5t15.5 0h2q10 2 27.5 -11.5t13.5 -19.5v-2q-4 -6 -8 -13t-8 -15q37 20 76.5 42.5 t73.5 41t56.5 30t26.5 11.5q9 -1 27 -15zM459 535q10 -14 10 -19l-2 -2q-16 -20 -51 -20q-41 0 -71.5 20.5t-53.5 20.5q-33 0 -52.5 -12.5t-21.5 -12.5l-4 2l-4 4v2l9.5 9.5t19.5 15.5t29.5 15t37.5 7q33 0 65 -13t48 -13q14 0 19.5 4t7.5 4t14 -12z" />
<glyph unicode="&#xf2;" horiz-adv-x="372" d="M344 317q0 -27 -5 -48t-15 -44q-12 -29 -36 -71.5t-57.5 -79.5t-79 -59.5t-96.5 -22.5q-29 0 -47 13t-27.5 31.5t-12.5 38t-3 34.5q0 70 30 126t68.5 96t72.5 62.5t44 26.5h2q31 8 35 -39q0 -10 -28.5 -37t-64.5 -59.5t-62.5 -80.5t-26.5 -93q0 -55 24 -56q53 0 97.5 29 t76 72t51 91t23.5 89q-20 0 -39.5 13t-19.5 40q0 25 11 41t36 21q16 0 26.5 -9.5t15.5 -21.5t6 -25.5t1 -21.5v-8q43 4 76 15t49 21q8 0 8 -6q0 -12 -19.5 -20t-44 -16.5t-46 -18t-23.5 -23.5zM303 367h2q0 18 -4 33.5t-8 15.5t-7 -9.5t-3 -15.5q0 -22 20 -24zM158 526 q-2 0 14 13q8 6 17 14v2v-2q2 -6 28.5 -17.5t57 -23.5t56.5 -22l26 -11l-2 -6l-21 2q-22 2 -53 7t-65 14.5t-58 25.5l-2 2q0 2 2 2z" />
<glyph unicode="&#xf3;" horiz-adv-x="372" d="M344 317q0 -27 -5 -48t-15 -44q-12 -29 -36 -71.5t-57.5 -79.5t-79 -59.5t-96.5 -22.5q-29 0 -47 13t-27.5 31.5t-12.5 38t-3 34.5q0 70 30 126t68.5 96t72.5 62.5t44 26.5h2q31 8 35 -39q0 -10 -28.5 -37t-64.5 -59.5t-62.5 -80.5t-26.5 -93q0 -55 24 -56q53 0 97.5 29 t76 72t51 91t23.5 89q-20 0 -39.5 13t-19.5 40q0 25 11 41t36 21q16 0 26.5 -9.5t15.5 -21.5t6 -25.5t1 -21.5v-8q43 4 76 15t49 21q8 0 8 -6q0 -12 -19.5 -20t-44 -16.5t-46 -18t-23.5 -23.5zM303 367h2q0 18 -4 33.5t-8 15.5t-7 -9.5t-3 -15.5q0 -22 20 -24zM354 524 l-2 -2q-18 -14 -47 -23.5t-57.5 -15.5t-53 -9t-37.5 -3q-8 0 -8 4q0 2 23.5 12.5t54.5 22.5t60.5 24.5t41.5 18.5q25 0 25 -29z" />
<glyph unicode="&#xf4;" horiz-adv-x="372" d="M344 317q0 -27 -5 -48t-15 -44q-12 -29 -36 -71.5t-57.5 -79.5t-79 -59.5t-96.5 -22.5q-29 0 -47 13t-27.5 31.5t-12.5 38t-3 34.5q0 70 30 126t68.5 96t72.5 62.5t44 26.5h2q31 8 35 -39q0 -10 -28.5 -37t-64.5 -59.5t-62.5 -80.5t-26.5 -93q0 -55 24 -56q53 0 97.5 29 t76 72t51 91t23.5 89q-20 0 -39.5 13t-19.5 40q0 25 11 41t36 21q16 0 26.5 -9.5t15.5 -21.5t6 -25.5t1 -21.5v-8q43 4 76 15t49 21q8 0 8 -6q0 -12 -19.5 -20t-44 -16.5t-46 -18t-23.5 -23.5zM303 367h2q0 18 -4 33.5t-8 15.5t-7 -9.5t-3 -15.5q0 -22 20 -24zM287 547 q-16 0 -42 -8.5t-53.5 -18.5t-51 -18t-34.5 -8q-8 0 -8 6l22 14q23 14 53 31.5t61.5 32t50.5 14.5q16 0 29.5 -9.5t52.5 -50.5q41 -39 52 -48t13 -9v-2q0 -2 -2 -2q-8 0 -30.5 12.5t-47 25.5t-44 25.5t-21.5 12.5z" />
<glyph unicode="&#xf5;" horiz-adv-x="372" d="M344 317q0 -27 -5 -48t-15 -44q-12 -29 -36 -71.5t-57.5 -79.5t-79 -59.5t-96.5 -22.5q-29 0 -47 13t-27.5 31.5t-12.5 38t-3 34.5q0 70 30 126t68.5 96t72.5 62.5t44 26.5h2q31 8 35 -39q0 -10 -28.5 -37t-64.5 -59.5t-62.5 -80.5t-26.5 -93q0 -55 24 -56q53 0 97.5 29 t76 72t51 91t23.5 89q-20 0 -39.5 13t-19.5 40q0 25 11 41t36 21q16 0 26.5 -9.5t15.5 -21.5t6 -25.5t1 -21.5v-8q43 4 76 15t49 21q8 0 8 -6q0 -12 -19.5 -20t-44 -16.5t-46 -18t-23.5 -23.5zM303 367h2q0 18 -4 33.5t-8 15.5t-7 -9.5t-3 -15.5q0 -22 20 -24zM383 535 q10 -14 10 -19l-2 -2q-16 -20 -51 -20q-41 0 -71.5 20.5t-53.5 20.5q-33 0 -52.5 -12.5t-21.5 -12.5l-4 2l-4 4v2l9.5 9.5t19.5 15.5t29.5 15t37.5 7q33 0 65 -13t48 -13q14 0 19.5 4t7.5 4t14 -12z" />
<glyph unicode="&#xf6;" horiz-adv-x="372" d="M344 317q0 -27 -5 -48t-15 -44q-12 -29 -36 -71.5t-57.5 -79.5t-79 -59.5t-96.5 -22.5q-29 0 -47 13t-27.5 31.5t-12.5 38t-3 34.5q0 70 30 126t68.5 96t72.5 62.5t44 26.5h2q31 8 35 -39q0 -10 -28.5 -37t-64.5 -59.5t-62.5 -80.5t-26.5 -93q0 -55 24 -56q53 0 97.5 29 t76 72t51 91t23.5 89q-20 0 -39.5 13t-19.5 40q0 25 11 41t36 21q16 0 26.5 -9.5t15.5 -21.5t6 -25.5t1 -21.5v-8q43 4 76 15t49 21q8 0 8 -6q0 -12 -19.5 -20t-44 -16.5t-46 -18t-23.5 -23.5zM303 367h2q0 18 -4 33.5t-8 15.5t-7 -9.5t-3 -15.5q0 -22 20 -24zM203 584 q37 -31 36 -54q0 -16 -15 -25t-30 -9q-29 0 -28 22q0 16 30 27q-6 25 -8 33t-2 14q0 4 2 4zM295 584q37 -31 37 -54q0 -16 -15.5 -25t-29.5 -9q-29 0 -29 22q0 16 31 27q-6 25 -8.5 33t-2.5 14q0 4 2 4z" />
<glyph unicode="&#xf7;" horiz-adv-x="516" d="M455 270q8 -2 8 -32q0 -27 -12.5 -34t-28.5 -7q-53 0 -117.5 7t-123 15t-97.5 15.5t-39 9.5l-2 -2v12q0 6 29.5 10t76 6t101.5 2h108h61t36 -2zM244 352q-12 -10 -17 4v4q0 16 14.5 32t34.5 16q23 0 37.5 -19.5t14.5 -38.5q0 -20 -13.5 -33.5t-31.5 -13.5q-29 0 -38 15.5 t-9 19.5q-2 0 0 2q0 2 8 2q4 -2 6 -9t22 -7q10 0 19.5 6t9.5 16t-6 18.5t-14 8.5q-16 0 -20.5 -8.5t-16.5 -14.5zM205 133q-12 -10 -17 4v4q0 16 14.5 31.5t35.5 15.5q23 0 37 -19t14 -38q0 -20 -13.5 -33.5t-31.5 -13.5q-29 0 -38 15.5t-9 19.5q-2 0 0 2q0 2 8 2 q4 -2 6 -9.5t22 -7.5q10 0 19.5 6.5t9.5 16.5t-6 18.5t-14 8.5q-16 0 -20.5 -8.5t-16.5 -14.5z" />
<glyph unicode="&#xf8;" horiz-adv-x="405" d="M465 401h4q6 0 6 -4q0 -10 -38 -27.5t-93 -29.5q0 -53 -17.5 -108.5t-52 -103.5t-86 -84t-118.5 -48q-31 -59 -39 -78.5t-13 -23.5q0 2 -2 2h-2q-2 0 -2 2t10.5 27.5t32.5 68.5q-31 0 -48 12t-26.5 30.5t-12.5 38t-3 36.5q0 70 30 126t67.5 96t72.5 62.5t43 26.5h2 q14 0 24.5 -9.5t10.5 -31.5q0 -14 -6 -21h-2q-20 -12 -49 -39.5t-56.5 -62.5t-47 -74t-19.5 -75q0 -51 20 -52q14 0 33 6q37 80 82 176.5t82 176.5q0 8 8 16q23 49 39 84t23 47v2q8 8 14 8t7 -7t1 -11l-2 -2q-10 -23 -21.5 -48.5t-25.5 -53.5q18 0 27.5 -12.5t14.5 -27 t6 -28.5t1 -16q49 0 86 15t37 19h-2zM291 416q-10 -4 -10 -23q0 -25 24 -24q0 18 -5 33.5t-9 15.5v-2zM293 258q8 33 12 80q-10 2 -24.5 5t-24.5 24q-37 -76 -76 -154t-71 -143q37 8 65.5 28.5t51 47t39 56t28.5 56.5z" />
<glyph unicode="&#xf9;" horiz-adv-x="413" d="M483 434q14 -14 15 -28q0 -2 -1 -3.5t-1 -3.5l-2 -2q-29 -35 -69 -73.5t-83 -81.5t-83 -88t-66 -88q98 43 149 78.5t59 35.5q-2 0 5.5 -3t7.5 -13q0 -4 -32 -27.5t-79 -56.5q-12 -8 -29.5 -21.5t-36 -26t-37 -21.5t-32.5 -9q-25 0 -32 12.5t-7 24.5q0 35 8 49l-17 -12 q-18 -13 -41.5 -27t-49 -26.5t-43.5 -12.5q-23 0 -35 20.5t-12 30.5q-6 31 40 111t83.5 128t69.5 81t38 39q16 2 32.5 -13.5t16.5 -31.5v-2q-20 -29 -50 -66t-60.5 -78t-59.5 -82t-47 -77q2 2 3 2t3 2q45 16 98.5 37.5t75.5 52.5q35 45 78 94t82 87t66.5 64.5t37.5 36.5h3 q2 2 6 3q14 -1 28 -15zM242 526q-2 0 14 13q8 6 17 14v2v-2q2 -6 28.5 -17.5t57 -23.5t56.5 -22l26 -11l-2 -6l-21 2q-22 2 -53 7t-65 14.5t-58 25.5l-2 2q0 2 2 2z" />
<glyph unicode="&#xfa;" horiz-adv-x="413" d="M483 434q14 -14 15 -28q0 -2 -1 -3.5t-1 -3.5l-2 -2q-29 -35 -69 -73.5t-83 -81.5t-83 -88t-66 -88q98 43 149 78.5t59 35.5q-2 0 5.5 -3t7.5 -13q0 -4 -32 -27.5t-79 -56.5q-12 -8 -29.5 -21.5t-36 -26t-37 -21.5t-32.5 -9q-25 0 -32 12.5t-7 24.5q0 35 8 49l-17 -12 q-18 -13 -41.5 -27t-49 -26.5t-43.5 -12.5q-23 0 -35 20.5t-12 30.5q-6 31 40 111t83.5 128t69.5 81t38 39q16 2 32.5 -13.5t16.5 -31.5v-2q-20 -29 -50 -66t-60.5 -78t-59.5 -82t-47 -77q2 2 3 2t3 2q45 16 98.5 37.5t75.5 52.5q35 45 78 94t82 87t66.5 64.5t37.5 36.5h3 q2 2 6 3q14 -1 28 -15zM442 524l-2 -2q-18 -14 -47 -23.5t-57.5 -15.5t-53 -9t-37.5 -3q-8 0 -8 4q0 2 23.5 12.5t54.5 22.5t60.5 24.5t41.5 18.5q25 0 25 -29z" />
<glyph unicode="&#xfb;" horiz-adv-x="413" d="M483 434q14 -14 15 -28q0 -2 -1 -3.5t-1 -3.5l-2 -2q-29 -35 -69 -73.5t-83 -81.5t-83 -88t-66 -88q98 43 149 78.5t59 35.5q-2 0 5.5 -3t7.5 -13q0 -4 -32 -27.5t-79 -56.5q-12 -8 -29.5 -21.5t-36 -26t-37 -21.5t-32.5 -9q-25 0 -32 12.5t-7 24.5q0 35 8 49l-17 -12 q-18 -13 -41.5 -27t-49 -26.5t-43.5 -12.5q-23 0 -35 20.5t-12 30.5q-6 31 40 111t83.5 128t69.5 81t38 39q16 2 32.5 -13.5t16.5 -31.5v-2q-20 -29 -50 -66t-60.5 -78t-59.5 -82t-47 -77q2 2 3 2t3 2q45 16 98.5 37.5t75.5 52.5q35 45 78 94t82 87t66.5 64.5t37.5 36.5h3 q2 2 6 3q14 -1 28 -15zM359 547q-16 0 -42 -8.5t-53.5 -18.5t-51 -18t-34.5 -8q-8 0 -8 6l22 14q23 14 53 31.5t61.5 32t50.5 14.5q16 0 29.5 -9.5t52.5 -50.5q41 -39 52 -48t13 -9v-2q0 -2 -2 -2q-8 0 -30.5 12.5t-47 25.5t-44 25.5t-21.5 12.5z" />
<glyph unicode="&#xfc;" horiz-adv-x="413" d="M483 434q14 -14 15 -28q0 -2 -1 -3.5t-1 -3.5l-2 -2q-29 -35 -69 -73.5t-83 -81.5t-83 -88t-66 -88q98 43 149 78.5t59 35.5q-2 0 5.5 -3t7.5 -13q0 -4 -32 -27.5t-79 -56.5q-12 -8 -29.5 -21.5t-36 -26t-37 -21.5t-32.5 -9q-25 0 -32 12.5t-7 24.5q0 35 8 49l-17 -12 q-18 -13 -41.5 -27t-49 -26.5t-43.5 -12.5q-23 0 -35 20.5t-12 30.5q-6 31 40 111t83.5 128t69.5 81t38 39q16 2 32.5 -13.5t16.5 -31.5v-2q-20 -29 -50 -66t-60.5 -78t-59.5 -82t-47 -77q2 2 3 2t3 2q45 16 98.5 37.5t75.5 52.5q35 45 78 94t82 87t66.5 64.5t37.5 36.5h3 q2 2 6 3q14 -1 28 -15zM287 584q37 -31 36 -54q0 -16 -15 -25t-30 -9q-29 0 -28 22q0 16 30 27q-6 25 -8 33t-2 14q0 4 2 4zM379 584q37 -31 37 -54q0 -16 -15.5 -25t-29.5 -9q-29 0 -29 22q0 16 31 27q-6 25 -8.5 33t-2.5 14q0 4 2 4z" />
<glyph unicode="&#xfd;" horiz-adv-x="407" d="M395 180q6 0 9.5 -6t3.5 -10t-32 -27.5t-79 -56.5q-12 -8 -29.5 -21.5t-36 -26t-37 -21.5t-32.5 -9q-8 0 -10 2q-117 -162 -170.5 -251t-51.5 -89q-18 0 -18 10q0 8 17.5 47t48 96.5t69.5 127t82 137.5q-4 -4 -21.5 -19.5t-41 -33t-51 -30.5t-52.5 -13q-29 0 -36 17 t-7 30q-2 20 8.5 44.5t31 60.5t53 87t62 91t53.5 68t34 36h2q2 2 6 2q16 0 29.5 -15.5t13.5 -27.5l-2 -6q-23 -29 -55.5 -70t-66.5 -86t-62.5 -90t-42.5 -82q61 27 114.5 56.5t71.5 52.5q45 57 87 107t78 89t62.5 64.5t42.5 34.5q4 2 11 2q12 0 28.5 -19.5t7.5 -34.5 q-27 -35 -61.5 -70.5t-73.5 -76.5t-77.5 -85t-73.5 -93q37 25 72.5 43t63.5 32.5t44 21.5t14 11zM418 524l-2 -2q-18 -14 -47 -23.5t-57.5 -15.5t-53 -9t-37.5 -3q-8 0 -8 4q0 2 23.5 12.5t54.5 22.5t60.5 24.5t41.5 18.5q25 0 25 -29z" />
<glyph unicode="&#xff;" horiz-adv-x="407" d="M395 180q6 0 9.5 -6t3.5 -10t-32 -27.5t-79 -56.5q-12 -8 -29.5 -21.5t-36 -26t-37 -21.5t-32.5 -9q-8 0 -10 2q-117 -162 -170.5 -251t-51.5 -89q-18 0 -18 10q0 8 17.5 47t48 96.5t69.5 127t82 137.5q-4 -4 -21.5 -19.5t-41 -33t-51 -30.5t-52.5 -13q-29 0 -36 17 t-7 30q-2 20 8.5 44.5t31 60.5t53 87t62 91t53.5 68t34 36h2q2 2 6 2q16 0 29.5 -15.5t13.5 -27.5l-2 -6q-23 -29 -55.5 -70t-66.5 -86t-62.5 -90t-42.5 -82q61 27 114.5 56.5t71.5 52.5q45 57 87 107t78 89t62.5 64.5t42.5 34.5q4 2 11 2q12 0 28.5 -19.5t7.5 -34.5 q-27 -35 -61.5 -70.5t-73.5 -76.5t-77.5 -85t-73.5 -93q37 25 72.5 43t63.5 32.5t44 21.5t14 11zM285 584q37 -31 36 -54q0 -16 -15 -25t-30 -9q-29 0 -28 22q0 16 30 27q-6 25 -8 33t-2 14q0 4 2 4zM377 584q37 -31 37 -54q0 -16 -15.5 -25t-29.5 -9q-29 0 -29 22 q0 16 31 27q-6 25 -8.5 33t-2.5 14q0 4 2 4z" />
<glyph unicode="&#x153;" horiz-adv-x="579" d="M600 195q8 0 13 -5.5t5 -7.5q0 -4 -23.5 -32.5t-64.5 -62.5t-97 -61.5t-124 -27.5q-47 0 -67.5 35t-20.5 78q0 59 26.5 110t70.5 93t98.5 73t109.5 49l6 2q6 0 19.5 -2t26 -9t21.5 -20.5t9 -37.5q0 -47 -27.5 -80t-65.5 -53.5t-78 -30.5t-62 -10q-31 0 -56 6 q-16 -23 -26 -47.5t-10 -57.5q0 -25 5 -35t21 -10q57 0 107.5 19.5t89.5 44t63.5 48t32.5 32.5h-2zM354 242q53 4 102.5 34.5t75.5 83.5q-41 -14 -86 -43.5t-84 -66.5zM344 317q0 -27 -5 -48t-15 -44q-12 -29 -37 -68.5t-58.5 -76.5t-78 -62.5t-95.5 -25.5q-29 0 -47 13 t-27.5 31.5t-12.5 38t-3 34.5q0 70 30 126t68.5 96t72.5 62.5t44 26.5h2q35 0 35 -39q0 -16 -6 -23h-2q-20 -12 -50 -38.5t-57.5 -61.5t-47 -74t-19.5 -73q0 -55 24 -56q53 0 97.5 29t76 72t51 91t23.5 89q-18 4 -37.5 15t-19.5 44q0 10 8 33t37 23q16 0 26.5 -9.5 t15.5 -21.5t6 -25.5t1 -21.5v-8q43 4 76 15t49 21q8 0 8 -6q0 -12 -19.5 -20t-44 -15.5t-46 -17t-23.5 -25.5zM295 369q4 0 6 -1t4 -1q0 18 -4 33.5t-8 15.5t-7 -9.5t-3 -15.5q0 -20 12 -22z" />
<glyph unicode="&#x2c6;" horiz-adv-x="524" d="M287 547q-16 0 -42 -8.5t-53.5 -18.5t-51 -18t-34.5 -8q-8 0 -8 6l22 14q23 14 53 31.5t61.5 32t50.5 14.5q16 0 29.5 -9.5t52.5 -50.5q41 -39 52 -48t13 -9v-2q0 -2 -2 -2q-8 0 -30.5 12.5t-47 25.5t-44 25.5t-21.5 12.5z" />
<glyph unicode="&#x2dc;" horiz-adv-x="446" d="M342 535q10 -14 10 -19l-2 -2q-16 -20 -51 -20q-41 0 -71.5 20.5t-53.5 20.5q-33 0 -52.5 -12.5t-21.5 -12.5l-4 2l-4 4v2l9.5 9.5t19.5 15.5t29.5 15t37.5 7q33 0 65 -13t48 -13q14 0 19.5 4t7.5 4t14 -12z" />
<glyph unicode="&#x2000;" horiz-adv-x="682" />
<glyph unicode="&#x2001;" horiz-adv-x="1365" />
<glyph unicode="&#x2002;" horiz-adv-x="682" />
<glyph unicode="&#x2003;" horiz-adv-x="1365" />
<glyph unicode="&#x2004;" horiz-adv-x="455" />
<glyph unicode="&#x2005;" horiz-adv-x="341" />
<glyph unicode="&#x2006;" horiz-adv-x="227" />
<glyph unicode="&#x2007;" horiz-adv-x="227" />
<glyph unicode="&#x2008;" horiz-adv-x="170" />
<glyph unicode="&#x2009;" horiz-adv-x="273" />
<glyph unicode="&#x200a;" horiz-adv-x="75" />
<glyph unicode="&#x2010;" horiz-adv-x="464" d="M430 270q8 -2 8 -32q0 -27 -12 -34t-29 -7q-53 0 -117.5 7t-123 15t-97.5 15.5t-39 9.5l-2 -2v12q0 6 30 10t76 6t101.5 2h108.5h60.5t35.5 -2z" />
<glyph unicode="&#x2011;" horiz-adv-x="464" d="M430 270q8 -2 8 -32q0 -27 -12 -34t-29 -7q-53 0 -117.5 7t-123 15t-97.5 15.5t-39 9.5l-2 -2v12q0 6 30 10t76 6t101.5 2h108.5h60.5t35.5 -2z" />
<glyph unicode="&#x2012;" horiz-adv-x="464" d="M430 270q8 -2 8 -32q0 -27 -12 -34t-29 -7q-53 0 -117.5 7t-123 15t-97.5 15.5t-39 9.5l-2 -2v12q0 6 30 10t76 6t101.5 2h108.5h60.5t35.5 -2z" />
<glyph unicode="&#x2013;" horiz-adv-x="1068" d="M1022 270q20 -2 20 -32q0 -27 -29.5 -34t-70.5 -7q-129 0 -286.5 7t-300 15t-237.5 15.5t-95 9.5l-5 -2v12q0 6 73 10t185.5 6t247.5 2h264h148t86 -2z" />
<glyph unicode="&#x2014;" horiz-adv-x="2092" d="M2027 270q39 -2 39 -32q0 -27 -58.5 -34t-141.5 -7q-258 0 -572.5 7t-600 15t-475.5 15.5t-190 9.5l-10 -2v12q0 6 146.5 10t370.5 6t494.5 2h529.5h295t173 -2z" />
<glyph unicode="&#x2018;" horiz-adv-x="299" d="M57 555l-2 -2q-2 0 -2 2v4q18 47 53 87t70 75l4 -4l-13 -25q-13 -24 -28.5 -53t-29 -55.5t-13.5 -30.5h2h-22q-19 0 -19 2z" />
<glyph unicode="&#x2019;" horiz-adv-x="239" d="M182 715q-10 -29 -30.5 -56.5t-41 -51t-36.5 -39.5l-15 -15l-4 4q25 43 41.5 75t26.5 53.5t19.5 32.5t21.5 11t18 -14z" />
<glyph unicode="&#x202f;" horiz-adv-x="273" />
<glyph unicode="&#x205f;" horiz-adv-x="341" />
<glyph unicode="&#x25fc;" horiz-adv-x="450" d="M0 451h451v-451h-451v451z" />
</font>
</defs>
</svg>
