<svg viewBox="0 0 36 409" version="1.1" xmlns="http://www.w3.org/2000/svg" xmlns:xlink="http://www.w3.org/1999/xlink">
	<rect x="0" y="0" width="34" height="409" fill="#40484b"></rect>
	<path d="M36,407 L3.99412338,407 C2.89279945,407 2,406.108128 2,405.000234 L2,396.990533 C8.29898987,397 13,393.19442 13,388.5 C13,383.80558 7.79898987,379.939941 2,379.939941 C2,379.939941 2,359.990533 2,359.990533 C8.29898987,360 13,356.19442 13,351.5 C13,346.80558 8.29898987,343 2,343 C2,343 2,322.990533 2,322.990533 C8.29898987,323 13,319.19442 13,314.5 C13,309.80558 8.29898987,306 2,306 C2,306 2,285.990533 2,285.990533 C8.29898987,286 13,282.19442 13,277.5 C13,272.80558 8.29898987,269 2,269 C2,269 2,253.974615 2,253.974615 C20.8892618,245.26673 34,226.164453 34,204 C34,181.835547 20.8892618,162.73327 2,154.025385 L2,139.990533 C8.29898987,140 13,136.19442 13,131.5 C13,126.80558 8.29898987,123 2,123 C2,123 2,102.990533 2,102.990533 C8.29898987,103 13,99.1944204 13,94.5 C13,89.8055796 8.29898987,86 2,86 C2,86 2,65.9905325 2,65.9905325 C8.29898987,66 13,62.1944204 13,57.5 C13,52.8055796 8.29898987,49 2,49 C2,49 2,28.9905325 2,28.9905325 C8.29898987,29 13,25.1944204 13,20.5 C13,15.8055796 8.29898987,12 2,12 C2,12 2,3.99976626 2,3.99976626 C2,2.89532585 2.8859604,2 3.99412338,2 L36,2" stroke-width="4" stroke="#69B3A5" fill="#4C6866"></path>
</svg>