<svg viewBox="0 0 36 409" version="1.1" xmlns="http://www.w3.org/2000/svg" xmlns:xlink="http://www.w3.org/1999/xlink">
    <rect x="2" y="0" width="34" height="409" fill="#f1f1f1"></rect>
    <path d="M-4.78479478e-10,407 L32.0058766,407 C33.1072005,407 34,406.108128 34,405.000234 L34,396.990533 C27.7010101,397 23,393.19442 23,388.5 C23,383.80558 28.2010101,379.939941 34,379.939941 C34,379.939941 34,359.990533 34,359.990533 C27.7010101,360 23,356.19442 23,351.5 C23,346.80558 27.7010101,343 34,343 C34,343 34,322.990533 34,322.990533 C27.7010101,323 23,319.19442 23,314.5 C23,309.80558 27.7010101,306 34,306 C34,306 34,285.990533 34,285.990533 C27.7010101,286 23,282.19442 23,277.5 C23,272.80558 27.7010101,269 34,269 C34,269 34,253.974615 34,253.974615 C15.1107382,245.26673 2,226.164453 2,204 C2,181.835547 15.1107382,162.73327 34,154.025385 L34,139.990533 C27.7010101,140 23,136.19442 23,131.5 C23,126.80558 27.7010101,123 34,123 C34,123 34,102.990533 34,102.990533 C27.7010101,103 23,99.1944204 23,94.5 C23,89.8055796 27.7010101,86 34,86 C34,86 34,65.9905325 34,65.9905325 C27.7010101,66 23,62.1944204 23,57.5 C23,52.8055796 27.7010101,49 34,49 C34,49 34,28.9905325 34,28.9905325 C27.7010101,29 23,25.1944204 23,20.5 C23,15.8055796 27.7010101,12 34,12 C34,12 34,3.99976626 34,3.99976626 C34,2.89532585 33.1140396,2 32.0058766,2 L-4.78479478e-10,2" stroke-width="4" stroke="#F1B99D" fill="#FEF9F7"></path>
</svg>