<svg viewBox="0 0 75 75" version="1.1" xmlns="http://www.w3.org/2000/svg" xmlns:xlink="http://www.w3.org/1999/xlink">
    <path d="M66.3479632,74.9993374 L8.65203679,74.9993374 C3.87413533,74.9993374 0,71.1238769 0,66.3426625 L0,8.65203679 C0,3.87347274 3.87413533,-7.10542736e-15 8.65203679,-7.10542736e-15 L66.3479632,-7.10542736e-15 C71.1265273,-7.10542736e-15 75,3.87347274 75,8.65203679 L75,66.3426625 C75,71.1238769 71.1265273,74.9993374 66.3479632,74.9993374 L66.3479632,74.9993374 Z M37.4996687,23.0758527 C29.5334075,23.0758527 23.0765153,29.5320824 23.0765153,37.4983435 C23.0765153,45.4632795 29.5334075,51.9228221 37.4996687,51.9228221 C45.4659299,51.9228221 51.9241473,45.4632795 51.9241473,37.4983435 C51.9241473,29.5320824 45.4659299,23.0758527 37.4996687,23.0758527 L37.4996687,23.0758527 Z M66.3479632,11.5362699 C66.3479632,9.94407781 65.0559222,8.65203679 63.4604172,8.65203679 L54.8083804,8.65203679 C53.2148631,8.65203679 51.9241473,9.94407781 51.9241473,11.5362699 L51.9241473,20.1916196 C51.9241473,21.7838117 53.2148631,23.0758527 54.8083804,23.0758527 L63.4604172,23.0758527 C65.0559222,23.0758527 66.3479632,21.7838117 66.3479632,20.1916196 L66.3479632,11.5362699 Z M66.3479632,31.7272269 L59.8188492,31.7272269 C60.2945854,33.5738517 60.5755215,35.5032997 60.5755215,37.4983435 C60.5755215,50.2451565 50.2444939,60.5755215 37.4996687,60.5755215 C24.7555061,60.5755215 14.423816,50.2451565 14.423816,37.4983435 C14.423816,35.5032997 14.7060772,33.5738517 15.1818134,31.7272269 L8.65203679,31.7272269 L8.65203679,63.4604172 C8.65203679,65.0512841 9.94407781,66.3426625 11.5395828,66.3426625 L63.4604172,66.3426625 C65.0559222,66.3426625 66.3479632,65.0512841 66.3479632,63.4604172 L66.3479632,31.7272269 Z" fill="#FFFFFF" fill-rule="evenodd"></path>
</svg>