<svg viewBox="0 0 106 75" version="1.1" xmlns="http://www.w3.org/2000/svg" xmlns:xlink="http://www.w3.org/1999/xlink">
    <path d="M104.941505,16.1797089 C104.941505,16.1797089 103.90584,8.83142661 100.727448,5.59548483 C96.6966567,1.34836997 92.1785423,1.32728212 90.1065897,1.07871686 C75.2734387,0 53.0229341,0 53.0229341,0 L52.9768584,0 C52.9768584,0 30.7268726,0 15.8932028,1.07871686 C13.8211464,1.32728212 9.30469235,1.34836997 5.27244799,5.59548483 C2.09426404,8.83142661 1.06005189,16.1797089 1.06005189,16.1797089 C1.06005189,16.1797089 0,24.8090262 0,33.438239 L0,41.5281457 C0,50.1572542 1.06005189,58.786467 1.06005189,58.786467 C1.06005189,58.786467 2.09426404,66.1348537 5.27244799,69.3707955 C9.30469235,73.6180147 14.6013197,73.483658 16.9604151,73.9287996 C25.4405189,74.7468413 53,75 53,75 C53,75 75.2734387,74.9662803 90.1065897,73.8876679 C92.1785423,73.6389982 96.6966567,73.6180147 100.727448,69.3707955 C103.90584,66.1348537 104.941505,58.786467 104.941505,58.786467 C104.941505,58.786467 106,50.1572542 106,41.5281457 L106,33.438239 C106,24.8090262 104.941505,16.1797089 104.941505,16.1797089 L104.941505,16.1797089 Z M42.0047681,53 L42,23 L70,38.0522648 L42.0047681,53 Z" fill="#FFFFFF" fill-rule="evenodd"></path>
</svg>